<svg width="56" height="57" viewBox="0 0 56 57" fill="none" xmlns="http://www.w3.org/2000/svg">
<circle cx="28" cy="28.5" r="28" fill="#F0F2F5"/>
<path d="M21.0001 25.584C21.0001 22.0402 23.8729 19.1673 27.4167 19.1673C30.5559 19.1673 33.1708 21.4227 33.7249 24.4018C33.8027 24.8195 34.1014 25.162 34.5047 25.2958C36.8272 26.0661 38.5001 28.2562 38.5001 30.834C38.5001 34.0556 35.8884 36.6673 32.6667 36.6673C32.0224 36.6673 31.5001 37.1897 31.5001 37.834C31.5001 38.4783 32.0224 39.0007 32.6667 39.0007C37.1771 39.0007 40.8334 35.3443 40.8334 30.834C40.8334 27.4594 38.7874 24.5655 35.8708 23.3202C34.8727 19.585 31.4671 16.834 27.4167 16.834C22.5843 16.834 18.6667 20.7515 18.6667 25.584C18.6667 25.701 18.6691 25.8175 18.6736 25.9335C16.579 27.1419 15.1667 29.4053 15.1667 32.0007C15.1667 35.8666 18.3008 39.0007 22.1667 39.0007C22.8111 39.0007 23.3334 38.4783 23.3334 37.834C23.3334 37.1897 22.8111 36.6673 22.1667 36.6673C19.5894 36.6673 17.5001 34.578 17.5001 32.0007C17.5001 30.0671 18.6763 28.4055 20.3568 27.6976C20.8432 27.4928 21.1314 26.987 21.0598 26.4642C21.0205 26.177 21.0001 25.8832 21.0001 25.584Z" fill="#475367"/>
<path d="M27.225 31.1287C27.667 30.7358 28.3331 30.7358 28.7752 31.1287L30.5252 32.6842C31.0068 33.1123 31.0501 33.8497 30.6221 34.3313C30.2476 34.7526 29.6363 34.8385 29.1667 34.5668V40.1673C29.1667 40.8117 28.6444 41.334 28.0001 41.334C27.3557 41.334 26.8334 40.8117 26.8334 40.1673V34.5668C26.3638 34.8385 25.7526 34.7526 25.3781 34.3313C24.95 33.8497 24.9934 33.1123 25.475 32.6842L27.225 31.1287Z" fill="#475367"/>
</svg>
