<svg width="57" height="56" viewBox="0 0 57 56" fill="none" xmlns="http://www.w3.org/2000/svg">
<path d="M0.833344 28C0.833344 12.536 13.3694 0 28.8333 0C44.2973 0 56.8333 12.536 56.8333 28C56.8333 43.464 44.2973 56 28.8333 56C13.3694 56 0.833344 43.464 0.833344 28Z" fill="#EAF7EE"/>
<path d="M28.4583 34.9375C28.4583 35.6624 27.8707 36.25 27.1458 36.25C26.421 36.25 25.8333 35.6624 25.8333 34.9375C25.8333 34.2126 26.421 33.625 27.1458 33.625C27.8707 33.625 28.4583 34.2126 28.4583 34.9375Z" stroke="#05CD99" stroke-width="1.5"/>
<path d="M36.3333 34.9375C36.3333 35.6624 35.7457 36.25 35.0208 36.25C34.2959 36.25 33.7083 35.6624 33.7083 34.9375C33.7083 34.2126 34.2959 33.625 35.0208 33.625C35.7457 33.625 36.3333 34.2126 36.3333 34.9375Z" stroke="#05CD99" stroke-width="1.5"/>
<path d="M24.0833 20.5H34.5833C36.5163 20.5 38.0833 22.067 38.0833 24V28.375C38.0833 30.308 36.5163 31.875 34.5833 31.875H27.5833C25.6503 31.875 24.0833 30.308 24.0833 28.375V20.5ZM24.0833 20.5C24.0833 19.5335 23.2998 18.75 22.3333 18.75H20.5833M24.0833 24H37.6458" stroke="#05CD99" stroke-width="1.5" stroke-linecap="round" stroke-linejoin="round"/>
</svg>
