<svg width="369" height="476" viewBox="0 0 369 476" fill="none" xmlns="http://www.w3.org/2000/svg">
<rect width="369" height="476" rx="16" fill="white"/>
<path d="M34.66 31C34.7267 31 34.78 31.0267 34.82 31.08C34.8733 31.12 34.9 31.1733 34.9 31.24V32.78C34.9 32.8467 34.8733 32.9067 34.82 32.96C34.78 33 34.7267 33.02 34.66 33.02H30.98C30.9133 33.02 30.88 33.0533 30.88 33.12V44.76C30.88 44.8267 30.8533 44.8867 30.8 44.94C30.76 44.98 30.7067 45 30.64 45H28.8C28.7333 45 28.6733 44.98 28.62 44.94C28.58 44.8867 28.56 44.8267 28.56 44.76V33.12C28.56 33.0533 28.5267 33.02 28.46 33.02H24.92C24.8533 33.02 24.7933 33 24.74 32.96C24.7 32.9067 24.68 32.8467 24.68 32.78V31.24C24.68 31.1733 24.7 31.12 24.74 31.08C24.7933 31.0267 24.8533 31 24.92 31H34.66ZM39.18 45.16C38.1267 45.16 37.22 44.8933 36.46 44.36C35.7133 43.8267 35.1867 43.0867 34.88 42.14C34.6533 41.42 34.54 40.66 34.54 39.86C34.54 39.0067 34.6467 38.2467 34.86 37.58C35.1667 36.6467 35.7 35.92 36.46 35.4C37.22 34.88 38.1333 34.62 39.2 34.62C40.2133 34.62 41.0867 34.88 41.82 35.4C42.5667 35.92 43.0933 36.64 43.4 37.56C43.64 38.2 43.76 38.96 43.76 39.84C43.76 40.68 43.6467 41.44 43.42 42.12C43.1133 43.0667 42.5867 43.8133 41.84 44.36C41.0933 44.8933 40.2067 45.16 39.18 45.16ZM39.18 43.16C39.6733 43.16 40.0933 43.02 40.44 42.74C40.8 42.46 41.06 42.0667 41.22 41.56C41.3533 41.12 41.42 40.56 41.42 39.88C41.42 39.16 41.3533 38.6 41.22 38.2C41.0733 37.6933 40.82 37.3067 40.46 37.04C40.1 36.76 39.66 36.62 39.14 36.62C38.6467 36.62 38.22 36.76 37.86 37.04C37.5 37.3067 37.24 37.6933 37.08 38.2C36.9467 38.6667 36.88 39.2267 36.88 39.88C36.88 40.5333 36.9467 41.0933 37.08 41.56C37.2267 42.0667 37.48 42.46 37.84 42.74C38.2133 43.02 38.66 43.16 39.18 43.16ZM51.8933 31.24C51.8933 31.1733 51.9133 31.12 51.9533 31.08C52.0066 31.0267 52.0666 31 52.1333 31H53.9733C54.0399 31 54.0933 31.0267 54.1333 31.08C54.1866 31.12 54.2133 31.1733 54.2133 31.24V44.76C54.2133 44.8267 54.1866 44.8867 54.1333 44.94C54.0933 44.98 54.0399 45 53.9733 45H52.1333C52.0666 45 52.0066 44.98 51.9533 44.94C51.9133 44.8867 51.8933 44.8267 51.8933 44.76V44.16C51.8933 44.12 51.8799 44.0933 51.8533 44.08C51.8266 44.0667 51.7999 44.08 51.7733 44.12C51.1866 44.8133 50.4199 45.16 49.4733 45.16C48.5266 45.16 47.7266 44.9133 47.0733 44.42C46.4199 43.9267 45.9466 43.24 45.6533 42.36C45.4133 41.6133 45.2933 40.78 45.2933 39.86C45.2933 38.9133 45.4066 38.1 45.6333 37.42C45.9266 36.54 46.3999 35.8533 47.0533 35.36C47.7066 34.8667 48.5266 34.62 49.5133 34.62C50.4333 34.62 51.1866 34.9533 51.7733 35.62C51.7999 35.6467 51.8266 35.66 51.8533 35.66C51.8799 35.6467 51.8933 35.62 51.8933 35.58V31.24ZM51.4133 42.2C51.7199 41.6533 51.8733 40.88 51.8733 39.88C51.8733 38.84 51.7066 38.0467 51.3733 37.5C51.0133 36.9133 50.5066 36.62 49.8533 36.62C49.1733 36.62 48.6399 36.9 48.2533 37.46C47.8533 38.0467 47.6533 38.86 47.6533 39.9C47.6533 40.8333 47.8133 41.6 48.1333 42.2C48.5066 42.84 49.0733 43.16 49.8333 43.16C50.5133 43.16 51.0399 42.84 51.4133 42.2ZM60.2252 34.62C61.0652 34.62 61.8052 34.7667 62.4452 35.06C63.0852 35.3533 63.5785 35.76 63.9252 36.28C64.2718 36.7867 64.4452 37.3667 64.4452 38.02V44.76C64.4452 44.8267 64.4185 44.8867 64.3652 44.94C64.3252 44.98 64.2718 45 64.2052 45H62.3652C62.2985 45 62.2385 44.98 62.1852 44.94C62.1452 44.8867 62.1252 44.8267 62.1252 44.76V44.12C62.1252 44.08 62.1118 44.06 62.0852 44.06C62.0585 44.0467 62.0318 44.0533 62.0052 44.08C61.3518 44.8 60.4052 45.16 59.1652 45.16C58.1652 45.16 57.3385 44.9067 56.6852 44.4C56.0452 43.8933 55.7252 43.14 55.7252 42.14C55.7252 41.1 56.0852 40.2933 56.8052 39.72C57.5385 39.1333 58.5652 38.84 59.8852 38.84H62.0252C62.0918 38.84 62.1252 38.8067 62.1252 38.74V38.26C62.1252 37.74 61.9718 37.34 61.6652 37.06C61.3585 36.7667 60.8985 36.62 60.2852 36.62C59.7785 36.62 59.3652 36.7133 59.0452 36.9C58.7385 37.0733 58.5452 37.32 58.4652 37.64C58.4252 37.8 58.3318 37.8667 58.1852 37.84L56.2452 37.6C56.1785 37.5867 56.1185 37.5667 56.0652 37.54C56.0252 37.5 56.0118 37.4533 56.0252 37.4C56.1318 36.5867 56.5652 35.92 57.3252 35.4C58.0985 34.88 59.0652 34.62 60.2252 34.62ZM59.7452 43.32C60.3985 43.32 60.9585 43.1467 61.4252 42.8C61.8918 42.4533 62.1252 42.0133 62.1252 41.48V40.54C62.1252 40.4733 62.0918 40.44 62.0252 40.44H60.3452C59.6385 40.44 59.0785 40.5733 58.6652 40.84C58.2652 41.1067 58.0652 41.4867 58.0652 41.98C58.0652 42.4067 58.2185 42.74 58.5252 42.98C58.8452 43.2067 59.2518 43.32 59.7452 43.32ZM65.9595 48.98C65.9195 48.98 65.8862 48.9533 65.8595 48.9C65.8329 48.86 65.8195 48.8067 65.8195 48.74V47.3C65.8195 47.2333 65.8395 47.1733 65.8795 47.12C65.9329 47.08 65.9929 47.06 66.0595 47.06H66.0795C66.6262 47.0467 67.0529 46.9867 67.3595 46.88C67.6662 46.7867 67.9195 46.6 68.1195 46.32C68.3195 46.04 68.4995 45.62 68.6595 45.06C68.6729 45.0333 68.6729 44.9933 68.6595 44.94L65.3595 35.04C65.3462 35.0133 65.3395 34.98 65.3395 34.94C65.3395 34.82 65.4062 34.76 65.5395 34.76H67.4995C67.6462 34.76 67.7395 34.8267 67.7795 34.96L69.7795 42C69.7929 42.04 69.8129 42.06 69.8395 42.06C69.8662 42.06 69.8862 42.04 69.8995 42L71.8995 34.96C71.9395 34.8267 72.0329 34.76 72.1795 34.76H74.0795C74.1595 34.76 74.2129 34.7867 74.2395 34.84C74.2795 34.88 74.2862 34.9467 74.2595 35.04L70.7395 45.56C70.4062 46.5067 70.0795 47.2133 69.7595 47.68C69.4395 48.1467 68.9995 48.48 68.4395 48.68C67.8929 48.88 67.1129 48.98 66.0995 48.98H65.9595ZM84.1086 45.2C83.1086 45.2 82.2219 45 81.4486 44.6C80.6753 44.1867 80.0753 43.6067 79.6486 42.86C79.2353 42.1133 79.0286 41.2533 79.0286 40.28V35.72C79.0286 34.76 79.2419 33.9133 79.6686 33.18C80.0953 32.4333 80.6886 31.86 81.4486 31.46C82.2219 31.0467 83.1086 30.84 84.1086 30.84C85.1219 30.84 86.0086 31.0467 86.7686 31.46C87.5419 31.86 88.1419 32.4333 88.5686 33.18C88.9953 33.9133 89.2086 34.76 89.2086 35.72V40.28C89.2086 41.2533 88.9953 42.1133 88.5686 42.86C88.1419 43.6067 87.5419 44.1867 86.7686 44.6C86.0086 45 85.1219 45.2 84.1086 45.2ZM84.1086 43.2C84.9486 43.2 85.6219 42.94 86.1286 42.42C86.6353 41.9 86.8886 41.2133 86.8886 40.36V35.7C86.8886 34.8333 86.6353 34.14 86.1286 33.62C85.6219 33.1 84.9486 32.84 84.1086 32.84C83.2819 32.84 82.6153 33.1 82.1086 33.62C81.6019 34.14 81.3486 34.8333 81.3486 35.7V40.36C81.3486 41.2133 81.6019 41.9 82.1086 42.42C82.6153 42.94 83.2819 43.2 84.1086 43.2ZM95.9305 34.66C96.3571 34.66 96.7305 34.7467 97.0505 34.92C97.1571 34.9733 97.1971 35.0733 97.1705 35.22L96.8305 37.02C96.8171 37.18 96.7238 37.2267 96.5505 37.16C96.3505 37.0933 96.1171 37.06 95.8505 37.06C95.6771 37.06 95.5438 37.0667 95.4505 37.08C94.8905 37.1067 94.4238 37.3067 94.0505 37.68C93.6771 38.04 93.4905 38.5133 93.4905 39.1V44.76C93.4905 44.8267 93.4638 44.8867 93.4105 44.94C93.3705 44.98 93.3171 45 93.2505 45H91.4105C91.3438 45 91.2838 44.98 91.2305 44.94C91.1905 44.8867 91.1705 44.8267 91.1705 44.76V35.02C91.1705 34.9533 91.1905 34.9 91.2305 34.86C91.2838 34.8067 91.3438 34.78 91.4105 34.78H93.2505C93.3171 34.78 93.3705 34.8067 93.4105 34.86C93.4638 34.9 93.4905 34.9533 93.4905 35.02V35.92C93.4905 35.9733 93.4971 36.0067 93.5105 36.02C93.5371 36.02 93.5638 36 93.5905 35.96C94.1505 35.0933 94.9305 34.66 95.9305 34.66ZM104.435 31.24C104.435 31.1733 104.455 31.12 104.495 31.08C104.548 31.0267 104.608 31 104.675 31H106.515C106.581 31 106.635 31.0267 106.675 31.08C106.728 31.12 106.755 31.1733 106.755 31.24V44.76C106.755 44.8267 106.728 44.8867 106.675 44.94C106.635 44.98 106.581 45 106.515 45H104.675C104.608 45 104.548 44.98 104.495 44.94C104.455 44.8867 104.435 44.8267 104.435 44.76V44.16C104.435 44.12 104.421 44.0933 104.395 44.08C104.368 44.0667 104.341 44.08 104.315 44.12C103.728 44.8133 102.961 45.16 102.015 45.16C101.068 45.16 100.268 44.9133 99.6147 44.42C98.9614 43.9267 98.488 43.24 98.1947 42.36C97.9547 41.6133 97.8347 40.78 97.8347 39.86C97.8347 38.9133 97.948 38.1 98.1747 37.42C98.468 36.54 98.9414 35.8533 99.5947 35.36C100.248 34.8667 101.068 34.62 102.055 34.62C102.975 34.62 103.728 34.9533 104.315 35.62C104.341 35.6467 104.368 35.66 104.395 35.66C104.421 35.6467 104.435 35.62 104.435 35.58V31.24ZM103.955 42.2C104.261 41.6533 104.415 40.88 104.415 39.88C104.415 38.84 104.248 38.0467 103.915 37.5C103.555 36.9133 103.048 36.62 102.395 36.62C101.715 36.62 101.181 36.9 100.795 37.46C100.395 38.0467 100.195 38.86 100.195 39.9C100.195 40.8333 100.355 41.6 100.675 42.2C101.048 42.84 101.615 43.16 102.375 43.16C103.055 43.16 103.581 42.84 103.955 42.2ZM117.487 38.74C117.54 39.0733 117.567 39.4467 117.567 39.86L117.547 40.48C117.547 40.64 117.467 40.72 117.307 40.72H111.047C110.98 40.72 110.947 40.7533 110.947 40.82C110.987 41.26 111.047 41.56 111.127 41.72C111.447 42.68 112.227 43.1667 113.467 43.18C114.373 43.18 115.093 42.8067 115.627 42.06C115.68 41.98 115.747 41.94 115.827 41.94C115.88 41.94 115.927 41.96 115.967 42L117.207 43.02C117.327 43.1133 117.347 43.22 117.267 43.34C116.853 43.9267 116.3 44.38 115.607 44.7C114.927 45.02 114.167 45.18 113.327 45.18C112.287 45.18 111.4 44.9467 110.667 44.48C109.947 44.0133 109.42 43.36 109.087 42.52C108.78 41.8 108.627 40.8 108.627 39.52C108.627 38.7467 108.707 38.12 108.867 37.64C109.133 36.7067 109.633 35.9733 110.367 35.44C111.113 34.8933 112.007 34.62 113.047 34.62C115.673 34.62 117.153 35.9933 117.487 38.74ZM113.047 36.62C112.553 36.62 112.14 36.7467 111.807 37C111.487 37.24 111.26 37.58 111.127 38.02C111.047 38.2467 110.993 38.54 110.967 38.9C110.94 38.9667 110.967 39 111.047 39H115.107C115.173 39 115.207 38.9667 115.207 38.9C115.18 38.5667 115.14 38.3133 115.087 38.14C114.967 37.66 114.727 37.2867 114.367 37.02C114.02 36.7533 113.58 36.62 113.047 36.62ZM124.047 34.66C124.474 34.66 124.847 34.7467 125.167 34.92C125.274 34.9733 125.314 35.0733 125.287 35.22L124.947 37.02C124.934 37.18 124.84 37.2267 124.667 37.16C124.467 37.0933 124.234 37.06 123.967 37.06C123.794 37.06 123.66 37.0667 123.567 37.08C123.007 37.1067 122.54 37.3067 122.167 37.68C121.794 38.04 121.607 38.5133 121.607 39.1V44.76C121.607 44.8267 121.58 44.8867 121.527 44.94C121.487 44.98 121.434 45 121.367 45H119.527C119.46 45 119.4 44.98 119.347 44.94C119.307 44.8867 119.287 44.8267 119.287 44.76V35.02C119.287 34.9533 119.307 34.9 119.347 34.86C119.4 34.8067 119.46 34.78 119.527 34.78H121.367C121.434 34.78 121.487 34.8067 121.527 34.86C121.58 34.9 121.607 34.9533 121.607 35.02V35.92C121.607 35.9733 121.614 36.0067 121.627 36.02C121.654 36.02 121.68 36 121.707 35.96C122.267 35.0933 123.047 34.66 124.047 34.66Z" fill="#05004E"/>
<circle cx="334.001" cy="34.9997" r="0.916667" stroke="#4B465C" stroke-width="1.75" stroke-linecap="round" stroke-linejoin="round"/>
<circle cx="334.001" cy="34.9997" r="0.916667" stroke="white" stroke-opacity="0.5" stroke-width="1.75" stroke-linecap="round" stroke-linejoin="round"/>
<circle cx="334.001" cy="41.4167" r="0.916667" stroke="#4B465C" stroke-width="1.75" stroke-linecap="round" stroke-linejoin="round"/>
<circle cx="334.001" cy="41.4167" r="0.916667" stroke="white" stroke-opacity="0.5" stroke-width="1.75" stroke-linecap="round" stroke-linejoin="round"/>
<ellipse cx="334.001" cy="28.5837" rx="0.916667" ry="0.916667" stroke="#4B465C" stroke-width="1.75" stroke-linecap="round" stroke-linejoin="round"/>
<ellipse cx="334.001" cy="28.5837" rx="0.916667" ry="0.916667" stroke="white" stroke-opacity="0.5" stroke-width="1.75" stroke-linecap="round" stroke-linejoin="round"/>
<mask id="path-6-inside-1_698_25572" fill="white">
<path d="M56 422H334V452H56V422Z"/>
</mask>
<path d="M56 423H334V421H56V423Z" fill="#DBDADE" mask="url(#path-6-inside-1_698_25572)"/>
<path d="M58.606 447V439.518H56.7925V438.732C57.3558 438.732 57.7935 438.691 58.1055 438.608C58.4175 438.526 58.6385 438.4 58.7685 438.231C58.9028 438.062 58.9765 437.852 58.9895 437.601H59.8475V447H58.606ZM62.2879 447V446.265V445.882C62.2879 445.401 62.3768 444.985 62.5544 444.634C62.7364 444.283 62.9748 443.977 63.2694 443.718C63.5684 443.453 63.8934 443.217 64.2444 443.009C64.5998 442.801 64.9529 442.602 65.3039 442.411C65.6593 442.216 65.9843 442.014 66.2789 441.806C66.5736 441.594 66.8098 441.356 66.9874 441.091C67.1694 440.823 67.2604 440.506 67.2604 440.142C67.2604 439.666 67.0914 439.278 66.7534 438.979C66.4198 438.68 65.9669 438.53 65.3949 438.53C64.7796 438.53 64.2856 438.704 63.9129 439.05C63.5403 439.397 63.3301 439.859 63.2824 440.435H62.0864C62.0994 439.893 62.2338 439.399 62.4894 438.953C62.7451 438.502 63.1199 438.143 63.6139 437.874C64.1079 437.605 64.7168 437.471 65.4404 437.471C66.0688 437.471 66.6148 437.584 67.0784 437.809C67.5421 438.03 67.8996 438.342 68.1509 438.745C68.4066 439.144 68.5344 439.609 68.5344 440.142C68.5344 440.628 68.4456 441.044 68.2679 441.39C68.0903 441.737 67.8541 442.038 67.5594 442.294C67.2691 442.545 66.9506 442.771 66.6039 442.97C66.2573 443.169 65.9084 443.362 65.5574 443.548C65.2064 443.73 64.8858 443.923 64.5954 444.127C64.3051 444.326 64.0711 444.556 63.8934 444.816C63.7158 445.076 63.6269 445.386 63.6269 445.745V445.934H68.5864V447H62.2879ZM72.0796 447.13C71.6462 447.13 71.2627 447.054 70.9291 446.902C70.5954 446.746 70.3332 446.523 70.1426 446.233C69.9562 445.943 69.8631 445.592 69.8631 445.18C69.8631 444.435 70.1231 443.88 70.6431 443.516C71.1631 443.152 71.9972 442.957 73.1456 442.931L74.3481 442.898V442.372C74.3481 441.96 74.2246 441.635 73.9776 441.397C73.7306 441.154 73.3471 441.033 72.8271 441.033C72.4414 441.037 72.1012 441.128 71.8066 441.306C71.5162 441.484 71.3277 441.774 71.2411 442.177H70.1816C70.2076 441.739 70.3311 441.371 70.5521 441.072C70.7731 440.769 71.0807 440.539 71.4751 440.383C71.8737 440.227 72.3439 440.149 72.8856 440.149C73.4706 440.149 73.9559 440.231 74.3416 440.396C74.7316 440.561 75.0219 440.803 75.2126 441.124C75.4076 441.445 75.5051 441.839 75.5051 442.307V447H74.4781L74.3936 445.739C74.1336 446.263 73.8021 446.627 73.3991 446.831C73.0004 447.03 72.5606 447.13 72.0796 447.13ZM72.4436 446.265C72.6689 446.265 72.8921 446.224 73.1131 446.142C73.3384 446.06 73.5442 445.949 73.7306 445.81C73.9169 445.667 74.0642 445.509 74.1726 445.336C74.2852 445.158 74.3437 444.976 74.3481 444.79V443.639L73.3471 443.659C72.8357 443.668 72.4067 443.72 72.0601 443.815C71.7177 443.91 71.4599 444.06 71.2866 444.263C71.1176 444.467 71.0331 444.734 71.0331 445.063C71.0331 445.44 71.1631 445.735 71.4231 445.947C71.6874 446.159 72.0276 446.265 72.4436 446.265ZM77.5585 447V440.279H78.7155V441.254C78.9018 440.959 79.1575 440.701 79.4825 440.48C79.8075 440.259 80.23 440.149 80.75 440.149C80.9926 440.149 81.2396 440.19 81.491 440.272C81.7466 440.355 81.9806 440.478 82.193 440.643C82.4053 440.808 82.57 441.009 82.687 441.247C82.895 440.918 83.1766 440.654 83.532 440.454C83.8873 440.251 84.2881 440.149 84.7345 440.149C84.9685 440.149 85.2133 440.186 85.469 440.259C85.7246 440.329 85.9608 440.454 86.1775 440.636C86.3985 440.814 86.5783 441.063 86.717 441.384C86.8556 441.7 86.925 442.108 86.925 442.606V447H85.716V442.723C85.716 442.316 85.651 442.001 85.521 441.78C85.391 441.555 85.2198 441.397 85.0075 441.306C84.7995 441.215 84.5763 441.169 84.338 441.169C84.13 441.169 83.909 441.211 83.675 441.293C83.441 441.375 83.2416 441.514 83.077 441.709C82.9123 441.904 82.83 442.17 82.83 442.508V447H81.634V442.372C81.634 442.108 81.5625 441.887 81.4195 441.709C81.2808 441.531 81.1053 441.397 80.893 441.306C80.685 441.215 80.477 441.169 80.269 441.169C80.0393 441.169 79.8075 441.215 79.5735 441.306C79.3438 441.397 79.1488 441.542 78.9885 441.741C78.8325 441.936 78.7545 442.192 78.7545 442.508V447H77.5585Z" fill="#8B909A"/>
<path d="M146.038 437.471C146.64 437.471 147.18 437.571 147.657 437.77C148.133 437.969 148.51 438.26 148.788 438.641C149.065 439.022 149.204 439.486 149.204 440.032C149.204 440.543 149.065 440.972 148.788 441.319C148.515 441.666 148.161 441.93 147.728 442.112C148.044 442.173 148.346 442.32 148.632 442.554C148.922 442.788 149.16 443.072 149.347 443.405C149.533 443.739 149.626 444.088 149.626 444.452C149.626 444.994 149.477 445.466 149.178 445.869C148.883 446.272 148.467 446.586 147.93 446.811C147.392 447.033 146.762 447.143 146.038 447.143C145.319 447.143 144.69 447.033 144.153 446.811C143.616 446.586 143.198 446.272 142.899 445.869C142.604 445.466 142.457 444.994 142.457 444.452C142.457 444.088 142.548 443.739 142.73 443.405C142.916 443.072 143.154 442.788 143.445 442.554C143.735 442.32 144.038 442.173 144.355 442.112C143.926 441.93 143.57 441.666 143.289 441.319C143.011 440.972 142.873 440.543 142.873 440.032C142.873 439.486 143.011 439.022 143.289 438.641C143.566 438.26 143.943 437.969 144.42 437.77C144.901 437.571 145.44 437.471 146.038 437.471ZM146.038 441.605C146.61 441.605 147.074 441.464 147.429 441.182C147.789 440.901 147.969 440.509 147.969 440.006C147.969 439.499 147.789 439.1 147.429 438.81C147.069 438.515 146.606 438.368 146.038 438.368C145.47 438.368 145.007 438.515 144.647 438.81C144.287 439.105 144.108 439.503 144.108 440.006C144.108 440.509 144.287 440.901 144.647 441.182C145.007 441.464 145.47 441.605 146.038 441.605ZM146.038 446.168C146.736 446.168 147.293 446.012 147.709 445.7C148.125 445.384 148.333 444.965 148.333 444.445C148.333 444.103 148.237 443.798 148.047 443.529C147.86 443.26 147.596 443.05 147.254 442.898C146.911 442.742 146.506 442.664 146.038 442.664C145.574 442.664 145.171 442.742 144.829 442.898C144.491 443.05 144.227 443.26 144.036 443.529C143.85 443.798 143.757 444.103 143.757 444.445C143.757 444.965 143.962 445.384 144.374 445.7C144.79 446.012 145.345 446.168 146.038 446.168ZM153.103 447.13C152.67 447.13 152.286 447.054 151.953 446.902C151.619 446.746 151.357 446.523 151.166 446.233C150.98 445.943 150.887 445.592 150.887 445.18C150.887 444.435 151.147 443.88 151.667 443.516C152.187 443.152 153.021 442.957 154.169 442.931L155.372 442.898V442.372C155.372 441.96 155.248 441.635 155.001 441.397C154.754 441.154 154.371 441.033 153.851 441.033C153.465 441.037 153.125 441.128 152.83 441.306C152.54 441.484 152.351 441.774 152.265 442.177H151.205C151.231 441.739 151.355 441.371 151.576 441.072C151.797 440.769 152.104 440.539 152.499 440.383C152.897 440.227 153.367 440.149 153.909 440.149C154.494 440.149 154.979 440.231 155.365 440.396C155.755 440.561 156.045 440.803 156.236 441.124C156.431 441.445 156.529 441.839 156.529 442.307V447H155.502L155.417 445.739C155.157 446.263 154.826 446.627 154.423 446.831C154.024 447.03 153.584 447.13 153.103 447.13ZM153.467 446.265C153.692 446.265 153.916 446.224 154.137 446.142C154.362 446.06 154.568 445.949 154.754 445.81C154.94 445.667 155.088 445.509 155.196 445.336C155.309 445.158 155.367 444.976 155.372 444.79V443.639L154.371 443.659C153.859 443.668 153.43 443.72 153.084 443.815C152.741 443.91 152.483 444.06 152.31 444.263C152.141 444.467 152.057 444.734 152.057 445.063C152.057 445.44 152.187 445.735 152.447 445.947C152.711 446.159 153.051 446.265 153.467 446.265ZM158.582 447V440.279H159.739V441.254C159.925 440.959 160.181 440.701 160.506 440.48C160.831 440.259 161.253 440.149 161.773 440.149C162.016 440.149 162.263 440.19 162.514 440.272C162.77 440.355 163.004 440.478 163.216 440.643C163.429 440.808 163.593 441.009 163.71 441.247C163.918 440.918 164.2 440.654 164.555 440.454C164.911 440.251 165.312 440.149 165.758 440.149C165.992 440.149 166.237 440.186 166.492 440.259C166.748 440.329 166.984 440.454 167.201 440.636C167.422 440.814 167.602 441.063 167.74 441.384C167.879 441.7 167.948 442.108 167.948 442.606V447H166.739V442.723C166.739 442.316 166.674 442.001 166.544 441.78C166.414 441.555 166.243 441.397 166.031 441.306C165.823 441.215 165.6 441.169 165.361 441.169C165.153 441.169 164.932 441.211 164.698 441.293C164.464 441.375 164.265 441.514 164.1 441.709C163.936 441.904 163.853 442.17 163.853 442.508V447H162.657V442.372C162.657 442.108 162.586 441.887 162.443 441.709C162.304 441.531 162.129 441.397 161.916 441.306C161.708 441.215 161.5 441.169 161.292 441.169C161.063 441.169 160.831 441.215 160.597 441.306C160.367 441.397 160.172 441.542 160.012 441.741C159.856 441.936 159.778 442.192 159.778 442.508V447H158.582Z" fill="#8B909A"/>
<path d="M228.08 437.601H229.302V443.542H230.862V444.601H229.302V447H228.126V444.601H223.699V443.503L228.08 437.601ZM224.85 443.542H228.1V439.18L224.85 443.542ZM232.265 449.093V440.279H233.461L233.474 441.449C233.552 441.31 233.652 441.165 233.773 441.013C233.899 440.862 234.05 440.721 234.228 440.591C234.41 440.461 234.62 440.355 234.859 440.272C235.101 440.19 235.376 440.149 235.684 440.149C236.221 440.149 236.694 440.272 237.101 440.519C237.513 440.762 237.833 441.135 238.063 441.637C238.293 442.14 238.408 442.777 238.408 443.548C238.408 444.32 238.295 444.972 238.07 445.505C237.849 446.034 237.528 446.437 237.108 446.714C236.687 446.991 236.18 447.13 235.587 447.13C235.288 447.13 235.021 447.087 234.787 447C234.557 446.918 234.356 446.809 234.183 446.675C234.014 446.536 233.871 446.389 233.754 446.233C233.641 446.077 233.548 445.927 233.474 445.784V449.093H232.265ZM235.359 446.194C235.914 446.194 236.367 445.984 236.718 445.563C237.069 445.139 237.244 444.48 237.244 443.587C237.244 442.82 237.084 442.212 236.763 441.761C236.442 441.31 235.974 441.085 235.359 441.085C234.735 441.085 234.263 441.317 233.942 441.78C233.621 442.24 233.461 442.842 233.461 443.587C233.461 444.068 233.533 444.506 233.676 444.9C233.819 445.295 234.031 445.609 234.313 445.843C234.594 446.077 234.943 446.194 235.359 446.194ZM239.984 447V440.279H241.141V441.254C241.327 440.959 241.583 440.701 241.908 440.48C242.233 440.259 242.655 440.149 243.175 440.149C243.418 440.149 243.665 440.19 243.916 440.272C244.172 440.355 244.406 440.478 244.618 440.643C244.831 440.808 244.995 441.009 245.112 441.247C245.32 440.918 245.602 440.654 245.957 440.454C246.313 440.251 246.713 440.149 247.16 440.149C247.394 440.149 247.639 440.186 247.894 440.259C248.15 440.329 248.386 440.454 248.603 440.636C248.824 440.814 249.004 441.063 249.142 441.384C249.281 441.7 249.35 442.108 249.35 442.606V447H248.141V442.723C248.141 442.316 248.076 442.001 247.946 441.78C247.816 441.555 247.645 441.397 247.433 441.306C247.225 441.215 247.002 441.169 246.763 441.169C246.555 441.169 246.334 441.211 246.1 441.293C245.866 441.375 245.667 441.514 245.502 441.709C245.338 441.904 245.255 442.17 245.255 442.508V447H244.059V442.372C244.059 442.108 243.988 441.887 243.845 441.709C243.706 441.531 243.531 441.397 243.318 441.306C243.11 441.215 242.902 441.169 242.694 441.169C242.465 441.169 242.233 441.215 241.999 441.306C241.769 441.397 241.574 441.542 241.414 441.741C241.258 441.936 241.18 442.192 241.18 442.508V447H239.984Z" fill="#8B909A"/>
<path d="M306.641 447V439.518H304.827V438.732C305.39 438.732 305.828 438.691 306.14 438.608C306.452 438.526 306.673 438.4 306.803 438.231C306.937 438.062 307.011 437.852 307.024 437.601H307.882V447H306.641ZM311.935 447V439.518H310.121V438.732C310.684 438.732 311.122 438.691 311.434 438.608C311.746 438.526 311.967 438.4 312.097 438.231C312.231 438.062 312.305 437.852 312.318 437.601H313.176V447H311.935ZM315.805 449.093V440.279H317.001L317.014 441.449C317.092 441.31 317.192 441.165 317.313 441.013C317.439 440.862 317.59 440.721 317.768 440.591C317.95 440.461 318.16 440.355 318.399 440.272C318.641 440.19 318.916 440.149 319.224 440.149C319.761 440.149 320.234 440.272 320.641 440.519C321.053 440.762 321.373 441.135 321.603 441.637C321.833 442.14 321.948 442.777 321.948 443.548C321.948 444.32 321.835 444.972 321.61 445.505C321.389 446.034 321.068 446.437 320.648 446.714C320.227 446.991 319.72 447.13 319.127 447.13C318.828 447.13 318.561 447.087 318.327 447C318.097 446.918 317.896 446.809 317.723 446.675C317.554 446.536 317.411 446.389 317.294 446.233C317.181 446.077 317.088 445.927 317.014 445.784V449.093H315.805ZM318.899 446.194C319.454 446.194 319.907 445.984 320.258 445.563C320.609 445.139 320.784 444.48 320.784 443.587C320.784 442.82 320.624 442.212 320.303 441.761C319.982 441.31 319.514 441.085 318.899 441.085C318.275 441.085 317.803 441.317 317.482 441.78C317.161 442.24 317.001 442.842 317.001 443.587C317.001 444.068 317.073 444.506 317.216 444.9C317.359 445.295 317.571 445.609 317.853 445.843C318.134 446.077 318.483 446.194 318.899 446.194ZM323.524 447V440.279H324.681V441.254C324.867 440.959 325.123 440.701 325.448 440.48C325.773 440.259 326.195 440.149 326.715 440.149C326.958 440.149 327.205 440.19 327.456 440.272C327.712 440.355 327.946 440.478 328.158 440.643C328.371 440.808 328.535 441.009 328.652 441.247C328.86 440.918 329.142 440.654 329.497 440.454C329.853 440.251 330.253 440.149 330.7 440.149C330.934 440.149 331.179 440.186 331.434 440.259C331.69 440.329 331.926 440.454 332.143 440.636C332.364 440.814 332.544 441.063 332.682 441.384C332.821 441.7 332.89 442.108 332.89 442.606V447H331.681V442.723C331.681 442.316 331.616 442.001 331.486 441.78C331.356 441.555 331.185 441.397 330.973 441.306C330.765 441.215 330.542 441.169 330.303 441.169C330.095 441.169 329.874 441.211 329.64 441.293C329.406 441.375 329.207 441.514 329.042 441.709C328.878 441.904 328.795 442.17 328.795 442.508V447H327.599V442.372C327.599 442.108 327.528 441.887 327.385 441.709C327.246 441.531 327.071 441.397 326.858 441.306C326.65 441.215 326.442 441.169 326.234 441.169C326.005 441.169 325.773 441.215 325.539 441.306C325.309 441.397 325.114 441.542 324.954 441.741C324.798 441.936 324.72 442.192 324.72 442.508V447H323.524Z" fill="#8B909A"/>
<path d="M226 118.95C226.089 118.95 226.172 118.963 226.25 118.991C226.328 119.019 226.4 119.066 226.466 119.133L230.866 123.533C231 123.666 231.066 123.825 231.066 124.008C231.066 124.191 231 124.349 230.866 124.483C230.733 124.616 230.578 124.683 230.4 124.683C230.222 124.683 230.066 124.616 229.933 124.483L226.666 121.216L226.666 128.683C226.666 128.872 226.602 129.027 226.474 129.15C226.346 129.272 226.188 129.333 226 129.333C225.811 129.333 225.652 129.269 225.524 129.141C225.396 129.013 225.333 128.855 225.333 128.666L225.333 121.216L222.066 124.483C221.933 124.616 221.778 124.683 221.6 124.683C221.422 124.683 221.266 124.616 221.133 124.483C221 124.35 220.933 124.191 220.933 124.008C220.933 123.824 221 123.666 221.133 123.533L225.533 119.133C225.6 119.066 225.672 119.019 225.75 118.991C225.828 118.963 225.911 118.949 226 118.95Z" fill="#1EB564"/>
<path d="M242.697 118.738C243.276 118.738 243.81 118.845 244.3 119.06C244.795 119.275 245.201 119.585 245.518 119.991C245.84 120.392 246.031 120.88 246.092 121.454H244.699C244.568 120.987 244.333 120.623 243.992 120.362C243.656 120.096 243.234 119.963 242.725 119.963C242.16 119.963 241.687 120.124 241.304 120.446C240.926 120.763 240.651 121.228 240.478 121.839C240.31 122.45 240.256 123.188 240.317 124.051C240.448 123.743 240.639 123.475 240.891 123.246C241.148 123.013 241.442 122.833 241.773 122.707C242.104 122.581 242.459 122.518 242.837 122.518C243.509 122.518 244.097 122.646 244.601 122.903C245.105 123.16 245.497 123.526 245.777 124.002C246.062 124.478 246.204 125.043 246.204 125.696C246.204 126.368 246.055 126.965 245.756 127.488C245.462 128.006 245.044 128.414 244.503 128.713C243.962 129.007 243.325 129.154 242.592 129.154C241.789 129.154 241.092 128.951 240.499 128.545C239.911 128.134 239.456 127.553 239.134 126.802C238.817 126.046 238.658 125.148 238.658 124.107C238.658 123.015 238.814 122.068 239.127 121.265C239.44 120.458 239.897 119.835 240.499 119.396C241.101 118.957 241.834 118.738 242.697 118.738ZM242.557 123.701C242.207 123.701 241.873 123.783 241.556 123.946C241.239 124.105 240.98 124.315 240.779 124.576C240.578 124.837 240.478 125.122 240.478 125.43C240.469 125.929 240.55 126.368 240.723 126.746C240.9 127.124 241.145 127.42 241.458 127.635C241.775 127.845 242.144 127.95 242.564 127.95C242.956 127.95 243.304 127.859 243.607 127.677C243.915 127.49 244.158 127.234 244.335 126.907C244.512 126.576 244.601 126.195 244.601 125.766C244.601 125.332 244.519 124.961 244.356 124.653C244.193 124.345 243.957 124.109 243.649 123.946C243.346 123.783 242.982 123.701 242.557 123.701ZM249.743 118.724C250.205 118.724 250.618 118.845 250.982 119.088C251.351 119.331 251.64 119.671 251.85 120.11C252.06 120.544 252.165 121.048 252.165 121.622C252.165 122.196 252.06 122.698 251.85 123.127C251.645 123.556 251.358 123.892 250.989 124.135C250.625 124.373 250.21 124.492 249.743 124.492C249.277 124.492 248.859 124.373 248.49 124.135C248.122 123.892 247.83 123.556 247.615 123.127C247.405 122.698 247.3 122.196 247.3 121.622C247.3 121.048 247.408 120.544 247.622 120.11C247.837 119.671 248.129 119.331 248.497 119.088C248.866 118.845 249.281 118.724 249.743 118.724ZM249.729 123.68C250.159 123.68 250.483 123.493 250.702 123.12C250.922 122.747 251.031 122.247 251.031 121.622C251.031 120.987 250.919 120.481 250.695 120.103C250.471 119.72 250.149 119.529 249.729 119.529C249.449 119.529 249.214 119.618 249.022 119.795C248.831 119.968 248.684 120.213 248.581 120.53C248.479 120.843 248.427 121.207 248.427 121.622C248.427 122.243 248.539 122.742 248.763 123.12C248.987 123.493 249.309 123.68 249.729 123.68ZM256.162 123.358C256.629 123.358 257.044 123.482 257.408 123.729C257.777 123.976 258.066 124.317 258.276 124.751C258.486 125.185 258.591 125.687 258.591 126.256C258.591 126.835 258.486 127.341 258.276 127.775C258.071 128.204 257.784 128.54 257.415 128.783C257.051 129.021 256.634 129.14 256.162 129.14C255.696 129.14 255.276 129.021 254.902 128.783C254.534 128.54 254.244 128.204 254.034 127.775C253.824 127.341 253.719 126.835 253.719 126.256C253.719 125.687 253.824 125.185 254.034 124.751C254.249 124.317 254.541 123.976 254.909 123.729C255.283 123.482 255.7 123.358 256.162 123.358ZM256.148 128.314C256.424 128.314 256.659 128.228 256.855 128.055C257.051 127.882 257.201 127.644 257.303 127.341C257.406 127.033 257.457 126.676 257.457 126.27C257.457 125.855 257.404 125.491 257.296 125.178C257.194 124.865 257.044 124.62 256.848 124.443C256.657 124.266 256.424 124.177 256.148 124.177C255.878 124.177 255.644 124.266 255.448 124.443C255.257 124.62 255.11 124.868 255.007 125.185C254.905 125.498 254.853 125.859 254.853 126.27C254.853 126.676 254.905 127.033 255.007 127.341C255.11 127.644 255.257 127.882 255.448 128.055C255.644 128.228 255.878 128.314 256.148 128.314ZM256.743 118.766L249.939 129.056L248.973 129.042L255.805 118.766H256.743Z" fill="#1EB564"/>
<path d="M274.825 121.762L272.193 129H270.926L268.287 121.762H269.673L271.507 127.103H271.605L273.439 121.762H274.825ZM278.333 129.14C277.829 129.14 277.356 129.061 276.912 128.902C276.474 128.743 276.105 128.494 275.806 128.153C275.512 127.812 275.328 127.376 275.253 126.844H276.59C276.651 127.119 276.765 127.348 276.933 127.53C277.106 127.707 277.311 127.84 277.549 127.929C277.792 128.013 278.051 128.055 278.326 128.055C278.784 128.055 279.152 127.973 279.432 127.81C279.717 127.642 279.859 127.385 279.859 127.04C279.859 126.793 279.782 126.594 279.628 126.445C279.479 126.296 279.241 126.186 278.914 126.116L277.472 125.773C276.875 125.633 276.397 125.411 276.037 125.108C275.678 124.8 275.496 124.371 275.491 123.82C275.491 123.395 275.596 123.017 275.806 122.686C276.021 122.355 276.338 122.096 276.758 121.909C277.178 121.718 277.701 121.622 278.326 121.622C279.143 121.622 279.799 121.804 280.293 122.168C280.788 122.532 281.045 123.059 281.063 123.75H279.768C279.722 123.419 279.57 123.16 279.313 122.973C279.061 122.782 278.728 122.686 278.312 122.686C277.883 122.686 277.531 122.772 277.255 122.945C276.98 123.113 276.842 123.372 276.842 123.722C276.842 123.96 276.943 124.149 277.143 124.289C277.344 124.424 277.645 124.536 278.046 124.625L279.418 124.968C279.773 125.061 280.065 125.185 280.293 125.339C280.522 125.488 280.702 125.654 280.832 125.836C280.963 126.018 281.054 126.207 281.105 126.403C281.161 126.599 281.189 126.783 281.189 126.956C281.189 127.413 281.073 127.805 280.839 128.132C280.611 128.454 280.282 128.704 279.852 128.881C279.428 129.054 278.921 129.14 278.333 129.14ZM287.389 129.098C286.96 129.098 286.614 129.042 286.353 128.93C286.096 128.818 285.9 128.669 285.765 128.482C285.63 128.291 285.539 128.076 285.492 127.838C285.45 127.595 285.429 127.346 285.429 127.089V118.598H286.906V126.935C286.906 127.271 286.971 127.528 287.102 127.705C287.237 127.882 287.443 127.983 287.718 128.006L288.096 128.02V128.972C287.979 129.009 287.858 129.04 287.732 129.063C287.611 129.086 287.496 129.098 287.389 129.098ZM291.376 129.14C290.91 129.14 290.494 129.056 290.13 128.888C289.771 128.72 289.489 128.477 289.283 128.16C289.078 127.843 288.975 127.46 288.975 127.012C288.975 126.209 289.26 125.61 289.829 125.213C290.399 124.816 291.306 124.606 292.552 124.583L293.742 124.548V124.023C293.742 123.608 293.619 123.281 293.371 123.043C293.124 122.805 292.744 122.688 292.23 122.693C291.843 122.693 291.498 122.782 291.194 122.959C290.896 123.136 290.7 123.428 290.606 123.834H289.304C289.332 123.353 289.47 122.95 289.717 122.623C289.969 122.292 290.315 122.042 290.753 121.874C291.192 121.706 291.708 121.622 292.3 121.622C292.958 121.622 293.5 121.713 293.924 121.895C294.349 122.072 294.664 122.334 294.869 122.679C295.079 123.024 295.184 123.444 295.184 123.939V129H293.917L293.798 127.67C293.528 128.225 293.185 128.61 292.769 128.825C292.359 129.035 291.894 129.14 291.376 129.14ZM291.845 128.097C292.074 128.097 292.3 128.057 292.524 127.978C292.748 127.894 292.951 127.782 293.133 127.642C293.315 127.497 293.46 127.336 293.567 127.159C293.679 126.982 293.738 126.8 293.742 126.613V125.416L292.762 125.437C292.263 125.442 291.838 125.493 291.488 125.591C291.143 125.689 290.877 125.841 290.69 126.046C290.508 126.251 290.417 126.524 290.417 126.865C290.417 127.252 290.553 127.556 290.823 127.775C291.094 127.99 291.435 128.097 291.845 128.097ZM299.553 129.14C299.049 129.14 298.575 129.061 298.132 128.902C297.693 128.743 297.325 128.494 297.026 128.153C296.732 127.812 296.548 127.376 296.473 126.844H297.81C297.871 127.119 297.985 127.348 298.153 127.53C298.326 127.707 298.531 127.84 298.769 127.929C299.012 128.013 299.271 128.055 299.546 128.055C300.003 128.055 300.372 127.973 300.652 127.81C300.937 127.642 301.079 127.385 301.079 127.04C301.079 126.793 301.002 126.594 300.848 126.445C300.699 126.296 300.461 126.186 300.134 126.116L298.692 125.773C298.095 125.633 297.616 125.411 297.257 125.108C296.898 124.8 296.716 124.371 296.711 123.82C296.711 123.395 296.816 123.017 297.026 122.686C297.241 122.355 297.558 122.096 297.978 121.909C298.398 121.718 298.921 121.622 299.546 121.622C300.363 121.622 301.018 121.804 301.513 122.168C302.008 122.532 302.264 123.059 302.283 123.75H300.988C300.941 123.419 300.79 123.16 300.533 122.973C300.281 122.782 299.947 122.686 299.532 122.686C299.103 122.686 298.75 122.772 298.475 122.945C298.2 123.113 298.062 123.372 298.062 123.722C298.062 123.96 298.162 124.149 298.363 124.289C298.564 124.424 298.865 124.536 299.266 124.625L300.638 124.968C300.993 125.061 301.284 125.185 301.513 125.339C301.742 125.488 301.921 125.654 302.052 125.836C302.183 126.018 302.274 126.207 302.325 126.403C302.381 126.599 302.409 126.783 302.409 126.956C302.409 127.413 302.292 127.805 302.059 128.132C301.83 128.454 301.501 128.704 301.072 128.881C300.647 129.054 300.141 129.14 299.553 129.14ZM307.568 122.84H305.944L305.951 127.159C305.951 127.397 305.974 127.572 306.021 127.684C306.072 127.791 306.156 127.861 306.273 127.894C306.394 127.922 306.558 127.936 306.763 127.936H307.61V128.909C307.517 128.946 307.377 128.979 307.19 129.007C307.008 129.035 306.772 129.049 306.483 129.049C305.946 129.049 305.529 128.977 305.23 128.832C304.936 128.687 304.731 128.48 304.614 128.209C304.502 127.934 304.446 127.602 304.446 127.215V122.84H303.27V121.762H304.488L304.859 119.634H305.944V121.755H307.568V122.84ZM314.422 129.14C313.47 129.14 312.721 128.816 312.175 128.167C311.629 127.514 311.356 126.573 311.356 125.346C311.356 124.595 311.465 123.941 311.685 123.386C311.904 122.826 312.231 122.392 312.665 122.084C313.103 121.776 313.645 121.622 314.289 121.622C314.615 121.622 314.905 121.662 315.157 121.741C315.413 121.82 315.637 121.923 315.829 122.049C316.025 122.175 316.186 122.31 316.312 122.455C316.442 122.6 316.543 122.735 316.613 122.861V118.598H318.118V129H316.998L316.83 127.516C316.778 127.675 316.699 127.847 316.592 128.034C316.484 128.221 316.337 128.398 316.151 128.566C315.969 128.734 315.735 128.872 315.451 128.979C315.166 129.086 314.823 129.14 314.422 129.14ZM314.709 128.013C315.381 128.013 315.866 127.803 316.165 127.383C316.463 126.958 316.613 126.263 316.613 125.297C316.608 124.751 316.54 124.289 316.41 123.911C316.279 123.533 316.076 123.248 315.801 123.057C315.53 122.861 315.173 122.763 314.73 122.763C314.174 122.763 313.722 122.964 313.372 123.365C313.022 123.762 312.847 124.406 312.847 125.297C312.847 126.174 313.005 126.846 313.323 127.313C313.645 127.78 314.107 128.013 314.709 128.013ZM321.9 129.14C321.433 129.14 321.018 129.056 320.654 128.888C320.295 128.72 320.012 128.477 319.807 128.16C319.602 127.843 319.499 127.46 319.499 127.012C319.499 126.209 319.784 125.61 320.353 125.213C320.922 124.816 321.83 124.606 323.076 124.583L324.266 124.548V124.023C324.266 123.608 324.142 123.281 323.895 123.043C323.648 122.805 323.267 122.688 322.754 122.693C322.367 122.693 322.021 122.782 321.718 122.959C321.419 123.136 321.223 123.428 321.13 123.834H319.828C319.856 123.353 319.994 122.95 320.241 122.623C320.493 122.292 320.838 122.042 321.277 121.874C321.716 121.706 322.231 121.622 322.824 121.622C323.482 121.622 324.023 121.713 324.448 121.895C324.873 122.072 325.188 122.334 325.393 122.679C325.603 123.024 325.708 123.444 325.708 123.939V129H324.441L324.322 127.67C324.051 128.225 323.708 128.61 323.293 128.825C322.882 129.035 322.418 129.14 321.9 129.14ZM322.369 128.097C322.598 128.097 322.824 128.057 323.048 127.978C323.272 127.894 323.475 127.782 323.657 127.642C323.839 127.497 323.984 127.336 324.091 127.159C324.203 126.982 324.261 126.8 324.266 126.613V125.416L323.286 125.437C322.787 125.442 322.362 125.493 322.012 125.591C321.667 125.689 321.401 125.841 321.214 126.046C321.032 126.251 320.941 126.524 320.941 126.865C320.941 127.252 321.076 127.556 321.347 127.775C321.618 127.99 321.958 128.097 322.369 128.097ZM328.127 131.31C327.684 131.31 327.376 131.277 327.203 131.212C327.035 131.147 326.951 131.114 326.951 131.114V130.148L327.686 130.162C327.966 130.176 328.195 130.16 328.372 130.113C328.554 130.066 328.696 130.001 328.799 129.917C328.906 129.838 328.988 129.751 329.044 129.658C329.1 129.565 329.142 129.478 329.17 129.399L329.394 128.79L326.573 121.762H328.071L330.101 127.11L332.117 121.762H333.587L330.57 129.406C330.365 129.91 330.138 130.3 329.891 130.575C329.648 130.85 329.38 131.042 329.086 131.149C328.792 131.256 328.472 131.31 328.127 131.31Z" fill="#8B909A"/>
<path d="M28.208 173.14C27.2887 173.14 26.493 172.937 25.821 172.531C25.1537 172.12 24.638 171.53 24.274 170.76C23.9147 169.985 23.735 169.052 23.735 167.96C23.735 166.859 23.917 165.921 24.281 165.146C24.6497 164.367 25.1677 163.772 25.835 163.361C26.507 162.946 27.298 162.738 28.208 162.738C29.1133 162.738 29.8973 162.946 30.56 163.361C31.2273 163.772 31.7407 164.367 32.1 165.146C32.464 165.921 32.646 166.859 32.646 167.96C32.646 169.052 32.4663 169.983 32.107 170.753C31.7477 171.523 31.2343 172.113 30.567 172.524C29.9043 172.935 29.118 173.14 28.208 173.14ZM28.208 171.859C28.796 171.859 29.2977 171.724 29.713 171.453C30.133 171.182 30.4527 170.76 30.672 170.186C30.8913 169.612 31.001 168.877 31.001 167.981C31.001 167.062 30.889 166.31 30.665 165.727C30.4457 165.144 30.126 164.714 29.706 164.439C29.2907 164.159 28.7913 164.019 28.208 164.019C27.6247 164.019 27.1207 164.159 26.696 164.439C26.276 164.719 25.9517 165.151 25.723 165.734C25.4943 166.317 25.38 167.066 25.38 167.981C25.38 168.882 25.4943 169.619 25.723 170.193C25.9517 170.762 26.276 171.182 26.696 171.453C27.1207 171.724 27.6247 171.859 28.208 171.859ZM33.9889 173V165.762H35.4239V167.246C35.5452 166.891 35.7132 166.595 35.9279 166.357C36.1472 166.114 36.4016 165.932 36.6909 165.811C36.9802 165.685 37.2859 165.622 37.6079 165.622C37.7059 165.622 37.7992 165.629 37.8879 165.643C37.9766 165.652 38.0466 165.671 38.0979 165.699V167.141C38.0372 167.113 37.9579 167.094 37.8599 167.085C37.7666 167.076 37.6849 167.069 37.6149 167.064C37.2976 167.041 37.0082 167.057 36.7469 167.113C36.4856 167.169 36.2592 167.262 36.0679 167.393C35.8812 167.524 35.7366 167.694 35.6339 167.904C35.5359 168.114 35.4869 168.361 35.4869 168.646V173H33.9889ZM41.721 173.14C40.769 173.14 40.02 172.816 39.474 172.167C38.928 171.514 38.655 170.573 38.655 169.346C38.655 168.595 38.7646 167.941 38.984 167.386C39.2033 166.826 39.53 166.392 39.964 166.084C40.4026 165.776 40.944 165.622 41.588 165.622C41.9146 165.622 42.204 165.662 42.456 165.741C42.7126 165.82 42.9366 165.923 43.128 166.049C43.324 166.175 43.485 166.31 43.611 166.455C43.7416 166.6 43.842 166.735 43.912 166.861V162.598H45.417V173H44.297L44.129 171.516C44.0776 171.675 43.9983 171.847 43.891 172.034C43.7836 172.221 43.6366 172.398 43.45 172.566C43.268 172.734 43.0346 172.872 42.75 172.979C42.4653 173.086 42.1223 173.14 41.721 173.14ZM42.008 172.013C42.68 172.013 43.1653 171.803 43.464 171.383C43.7626 170.958 43.912 170.263 43.912 169.297C43.9073 168.751 43.8396 168.289 43.709 167.911C43.5783 167.533 43.3753 167.248 43.1 167.057C42.8293 166.861 42.4723 166.763 42.029 166.763C41.4736 166.763 41.021 166.964 40.671 167.365C40.321 167.762 40.146 168.406 40.146 169.297C40.146 170.174 40.3046 170.846 40.622 171.313C40.944 171.78 41.406 172.013 42.008 172.013ZM48.3031 169.731C48.3031 170.165 48.3731 170.555 48.5131 170.9C48.6578 171.241 48.8748 171.511 49.1641 171.712C49.4535 171.908 49.8128 172.006 50.2421 172.006C50.6715 172.006 51.0425 171.908 51.3551 171.712C51.6725 171.516 51.8801 171.224 51.9781 170.837H53.3641C53.2801 171.332 53.0818 171.752 52.7691 172.097C52.4611 172.442 52.0878 172.704 51.6491 172.881C51.2105 173.054 50.7508 173.14 50.2701 173.14C49.5841 173.14 48.9798 172.993 48.4571 172.699C47.9345 172.4 47.5261 171.976 47.2321 171.425C46.9428 170.874 46.7981 170.219 46.7981 169.458C46.7981 168.707 46.9311 168.044 47.1971 167.47C47.4631 166.891 47.8481 166.439 48.3521 166.112C48.8561 165.785 49.4628 165.622 50.1721 165.622C50.8721 165.622 51.4601 165.771 51.9361 166.07C52.4168 166.369 52.7808 166.789 53.0281 167.33C53.2755 167.867 53.3991 168.501 53.3991 169.234V169.731H48.3031ZM48.3031 168.758H51.9711C51.9711 168.38 51.9058 168.037 51.7751 167.729C51.6445 167.416 51.4438 167.171 51.1731 166.994C50.9071 166.812 50.5711 166.721 50.1651 166.721C49.7498 166.721 49.4045 166.821 49.1291 167.022C48.8538 167.223 48.6461 167.479 48.5061 167.792C48.3708 168.105 48.3031 168.427 48.3031 168.758ZM54.7915 173V165.762H56.2265V167.246C56.3478 166.891 56.5158 166.595 56.7305 166.357C56.9498 166.114 57.2042 165.932 57.4935 165.811C57.7828 165.685 58.0885 165.622 58.4105 165.622C58.5085 165.622 58.6018 165.629 58.6905 165.643C58.7792 165.652 58.8492 165.671 58.9005 165.699V167.141C58.8398 167.113 58.7605 167.094 58.6625 167.085C58.5692 167.076 58.4875 167.069 58.4175 167.064C58.1002 167.041 57.8108 167.057 57.5495 167.113C57.2882 167.169 57.0618 167.262 56.8705 167.393C56.6838 167.524 56.5392 167.694 56.4365 167.904C56.3385 168.114 56.2895 168.361 56.2895 168.646V173H54.7915ZM62.6196 173.14C62.1156 173.14 61.6419 173.061 61.1986 172.902C60.7599 172.743 60.3912 172.494 60.0926 172.153C59.7986 171.812 59.6142 171.376 59.5396 170.844H60.8766C60.9372 171.119 61.0516 171.348 61.2196 171.53C61.3922 171.707 61.5976 171.84 61.8356 171.929C62.0782 172.013 62.3372 172.055 62.6126 172.055C63.0699 172.055 63.4386 171.973 63.7186 171.81C64.0032 171.642 64.1456 171.385 64.1456 171.04C64.1456 170.793 64.0686 170.594 63.9146 170.445C63.7652 170.296 63.5272 170.186 63.2006 170.116L61.7586 169.773C61.1612 169.633 60.6829 169.411 60.3236 169.108C59.9642 168.8 59.7822 168.371 59.7776 167.82C59.7776 167.395 59.8826 167.017 60.0926 166.686C60.3072 166.355 60.6246 166.096 61.0446 165.909C61.4646 165.718 61.9872 165.622 62.6126 165.622C63.4292 165.622 64.0849 165.804 64.5796 166.168C65.0742 166.532 65.3309 167.059 65.3496 167.75H64.0546C64.0079 167.419 63.8562 167.16 63.5996 166.973C63.3476 166.782 63.0139 166.686 62.5986 166.686C62.1692 166.686 61.8169 166.772 61.5416 166.945C61.2662 167.113 61.1286 167.372 61.1286 167.722C61.1286 167.96 61.2289 168.149 61.4296 168.289C61.6302 168.424 61.9312 168.536 62.3326 168.625L63.7046 168.968C64.0592 169.061 64.3509 169.185 64.5796 169.339C64.8082 169.488 64.9879 169.654 65.1186 169.836C65.2492 170.018 65.3402 170.207 65.3916 170.403C65.4476 170.599 65.4756 170.783 65.4756 170.956C65.4756 171.413 65.3589 171.805 65.1256 172.132C64.8969 172.454 64.5679 172.704 64.1386 172.881C63.7139 173.054 63.2076 173.14 62.6196 173.14ZM73.9082 173.14C72.9888 173.14 72.1932 172.937 71.5212 172.531C70.8538 172.12 70.3382 171.53 69.9742 170.76C69.6148 169.985 69.4352 169.052 69.4352 167.96C69.4352 166.859 69.6172 165.921 69.9812 165.146C70.3498 164.367 70.8678 163.772 71.5352 163.361C72.2072 162.946 72.9982 162.738 73.9082 162.738C74.8135 162.738 75.5975 162.946 76.2602 163.361C76.9275 163.772 77.4408 164.367 77.8002 165.146C78.1642 165.921 78.3462 166.859 78.3462 167.96C78.3462 169.052 78.1665 169.983 77.8072 170.753C77.4478 171.523 76.9345 172.113 76.2672 172.524C75.6045 172.935 74.8182 173.14 73.9082 173.14ZM73.9082 171.859C74.4962 171.859 74.9978 171.724 75.4132 171.453C75.8332 171.182 76.1528 170.76 76.3722 170.186C76.5915 169.612 76.7012 168.877 76.7012 167.981C76.7012 167.062 76.5892 166.31 76.3652 165.727C76.1458 165.144 75.8262 164.714 75.4062 164.439C74.9908 164.159 74.4915 164.019 73.9082 164.019C73.3248 164.019 72.8208 164.159 72.3962 164.439C71.9762 164.719 71.6518 165.151 71.4232 165.734C71.1945 166.317 71.0802 167.066 71.0802 167.981C71.0802 168.882 71.1945 169.619 71.4232 170.193C71.6518 170.762 71.9762 171.182 72.3962 171.453C72.8208 171.724 73.3248 171.859 73.9082 171.859ZM85.6221 165.762L82.9901 173H81.7231L79.0841 165.762H80.4701L82.3041 171.103H82.4021L84.2361 165.762H85.6221ZM87.5157 169.731C87.5157 170.165 87.5857 170.555 87.7257 170.9C87.8704 171.241 88.0874 171.511 88.3767 171.712C88.6661 171.908 89.0254 172.006 89.4547 172.006C89.8841 172.006 90.2551 171.908 90.5677 171.712C90.8851 171.516 91.0927 171.224 91.1907 170.837H92.5767C92.4927 171.332 92.2944 171.752 91.9817 172.097C91.6737 172.442 91.3004 172.704 90.8617 172.881C90.4231 173.054 89.9634 173.14 89.4827 173.14C88.7967 173.14 88.1924 172.993 87.6697 172.699C87.1471 172.4 86.7387 171.976 86.4447 171.425C86.1554 170.874 86.0107 170.219 86.0107 169.458C86.0107 168.707 86.1437 168.044 86.4097 167.47C86.6757 166.891 87.0607 166.439 87.5647 166.112C88.0687 165.785 88.6754 165.622 89.3847 165.622C90.0847 165.622 90.6727 165.771 91.1487 166.07C91.6294 166.369 91.9934 166.789 92.2407 167.33C92.4881 167.867 92.6117 168.501 92.6117 169.234V169.731H87.5157ZM87.5157 168.758H91.1837C91.1837 168.38 91.1184 168.037 90.9877 167.729C90.8571 167.416 90.6564 167.171 90.3857 166.994C90.1197 166.812 89.7837 166.721 89.3777 166.721C88.9624 166.721 88.6171 166.821 88.3417 167.022C88.0664 167.223 87.8587 167.479 87.7187 167.792C87.5834 168.105 87.5157 168.427 87.5157 168.758ZM94.0041 173V165.762H95.4391V167.246C95.5604 166.891 95.7284 166.595 95.9431 166.357C96.1624 166.114 96.4167 165.932 96.7061 165.811C96.9954 165.685 97.3011 165.622 97.6231 165.622C97.7211 165.622 97.8144 165.629 97.9031 165.643C97.9917 165.652 98.0617 165.671 98.1131 165.699V167.141C98.0524 167.113 97.9731 167.094 97.8751 167.085C97.7817 167.076 97.7001 167.069 97.6301 167.064C97.3127 167.041 97.0234 167.057 96.7621 167.113C96.5007 167.169 96.2744 167.262 96.0831 167.393C95.8964 167.524 95.7517 167.694 95.6491 167.904C95.5511 168.114 95.5021 168.361 95.5021 168.646V173H94.0041ZM101.391 164.243V162.878H109.168V164.243H106.109V173H104.597V164.243H101.391ZM111.795 165.762V173H110.353V165.762H111.795ZM111.823 162.885V164.362H110.318V162.885H111.823ZM113.747 173V165.762H115.203V166.805C115.409 166.488 115.689 166.212 116.043 165.979C116.398 165.741 116.855 165.622 117.415 165.622C117.677 165.622 117.94 165.666 118.206 165.755C118.477 165.844 118.724 165.977 118.948 166.154C119.177 166.327 119.357 166.541 119.487 166.798C119.716 166.453 120.022 166.17 120.404 165.951C120.787 165.732 121.216 165.622 121.692 165.622C121.949 165.622 122.215 165.664 122.49 165.748C122.766 165.827 123.02 165.965 123.253 166.161C123.491 166.352 123.683 166.618 123.827 166.959C123.977 167.3 124.051 167.731 124.051 168.254V173H122.546V168.415C122.546 168.018 122.479 167.708 122.343 167.484C122.213 167.26 122.04 167.104 121.825 167.015C121.615 166.922 121.391 166.875 121.153 166.875C120.939 166.875 120.715 166.917 120.481 167.001C120.248 167.085 120.05 167.225 119.886 167.421C119.723 167.617 119.641 167.883 119.641 168.219V173H118.143V168.093C118.143 167.827 118.071 167.603 117.926 167.421C117.786 167.239 117.609 167.104 117.394 167.015C117.184 166.922 116.974 166.875 116.764 166.875C116.531 166.875 116.298 166.922 116.064 167.015C115.831 167.108 115.635 167.255 115.476 167.456C115.322 167.652 115.245 167.906 115.245 168.219V173H113.747ZM126.824 169.731C126.824 170.165 126.894 170.555 127.034 170.9C127.179 171.241 127.396 171.511 127.685 171.712C127.974 171.908 128.334 172.006 128.763 172.006C129.192 172.006 129.563 171.908 129.876 171.712C130.193 171.516 130.401 171.224 130.499 170.837H131.885C131.801 171.332 131.603 171.752 131.29 172.097C130.982 172.442 130.609 172.704 130.17 172.881C129.731 173.054 129.272 173.14 128.791 173.14C128.105 173.14 127.501 172.993 126.978 172.699C126.455 172.4 126.047 171.976 125.753 171.425C125.464 170.874 125.319 170.219 125.319 169.458C125.319 168.707 125.452 168.044 125.718 167.47C125.984 166.891 126.369 166.439 126.873 166.112C127.377 165.785 127.984 165.622 128.693 165.622C129.393 165.622 129.981 165.771 130.457 166.07C130.938 166.369 131.302 166.789 131.549 167.33C131.796 167.867 131.92 168.501 131.92 169.234V169.731H126.824ZM126.824 168.758H130.492C130.492 168.38 130.427 168.037 130.296 167.729C130.165 167.416 129.965 167.171 129.694 166.994C129.428 166.812 129.092 166.721 128.686 166.721C128.271 166.721 127.925 166.821 127.65 167.022C127.375 167.223 127.167 167.479 127.027 167.792C126.892 168.105 126.824 168.427 126.824 168.758Z" fill="#8B909A"/>
<path d="M28.504 130V112.672H24.376V110.032C25.6987 110.032 26.7653 109.909 27.576 109.664C28.3973 109.408 29.0107 109.045 29.416 108.576C29.8213 108.096 30.0613 107.525 30.136 106.864H33.24V130H28.504ZM47.1675 106.544C48.6182 106.544 49.9568 106.811 51.1835 107.344C52.4102 107.867 53.4075 108.629 54.1755 109.632C54.9542 110.624 55.3808 111.819 55.4555 113.216H51.1835C50.9062 112.245 50.4368 111.509 49.7755 111.008C49.1142 110.496 48.2768 110.24 47.2635 110.24C46.1542 110.24 45.2315 110.555 44.4955 111.184C43.7595 111.813 43.2315 112.693 42.9115 113.824C42.5915 114.955 42.5062 116.272 42.6555 117.776C43.0075 117.264 43.4555 116.832 43.9995 116.48C44.5435 116.117 45.1515 115.84 45.8235 115.648C46.4955 115.456 47.1942 115.36 47.9195 115.36C49.4875 115.36 50.8582 115.653 52.0315 116.24C53.2048 116.816 54.1222 117.637 54.7835 118.704C55.4448 119.771 55.7755 121.019 55.7755 122.448C55.7755 123.963 55.4022 125.317 54.6555 126.512C53.9195 127.696 52.8902 128.635 51.5675 129.328C50.2448 130.011 48.7142 130.352 46.9755 130.352C45.0128 130.352 43.3168 129.877 41.8875 128.928C40.4582 127.979 39.3595 126.645 38.5915 124.928C37.8342 123.211 37.4555 121.195 37.4555 118.88C37.4555 116.341 37.8395 114.149 38.6075 112.304C39.3862 110.459 40.5008 109.04 41.9515 108.048C43.4022 107.045 45.1408 106.544 47.1675 106.544ZM46.8315 118.848C46.1702 118.848 45.5302 118.997 44.9115 119.296C44.3035 119.584 43.8022 119.957 43.4075 120.416C43.0235 120.864 42.8315 121.323 42.8315 121.792C42.8208 122.827 42.9808 123.717 43.3115 124.464C43.6528 125.2 44.1222 125.771 44.7195 126.176C45.3275 126.571 46.0262 126.768 46.8155 126.768C47.5622 126.768 48.2342 126.597 48.8315 126.256C49.4395 125.904 49.9248 125.419 50.2875 124.8C50.6502 124.181 50.8315 123.472 50.8315 122.672C50.8315 121.819 50.6555 121.109 50.3035 120.544C49.9515 119.979 49.4715 119.557 48.8635 119.28C48.2662 118.992 47.5888 118.848 46.8315 118.848ZM58.1165 130V124.912H63.2365V130H58.1165ZM68.3415 106.864H83.2055L83.0295 110.688H72.0375L71.5895 116.272C72.4428 115.792 73.2535 115.445 74.0215 115.232C74.8002 115.019 75.6535 114.912 76.5815 114.912C78.1282 114.912 79.5095 115.205 80.7255 115.792C81.9522 116.368 82.9228 117.216 83.6375 118.336C84.3522 119.456 84.7095 120.821 84.7095 122.432C84.7095 124.064 84.3415 125.472 83.6055 126.656C82.8695 127.84 81.8242 128.752 80.4695 129.392C79.1255 130.032 77.5308 130.352 75.6855 130.352C74.1708 130.352 72.7628 130.117 71.4615 129.648C70.1602 129.179 69.0348 128.539 68.0855 127.728C67.1362 126.907 66.4162 125.968 65.9255 124.912L69.5735 122.752C69.9895 123.477 70.4588 124.133 70.9815 124.72C71.5042 125.296 72.1068 125.755 72.7895 126.096C73.4828 126.427 74.2882 126.592 75.2055 126.592C76.5922 126.592 77.7068 126.224 78.5495 125.488C79.3922 124.752 79.8135 123.792 79.8135 122.608C79.8135 121.861 79.6215 121.195 79.2375 120.608C78.8642 120.011 78.3468 119.541 77.6855 119.2C77.0242 118.859 76.2508 118.688 75.3655 118.688C74.8962 118.688 74.4482 118.731 74.0215 118.816C73.6055 118.891 73.1788 119.04 72.7415 119.264C72.3148 119.477 71.8402 119.787 71.3175 120.192C71.1682 120.256 71.0615 120.288 70.9975 120.288C70.9442 120.288 70.8375 120.251 70.6775 120.176L67.2855 118.608L68.3415 106.864ZM107.551 130H102.463L96.3352 119.232L92.9112 123.36V130H88.0632V106.864H92.9112V117.456L101.343 106.864H106.703L99.6792 115.824L107.551 130Z" fill="#23272E"/>
<path d="M57 421.5H80.5L109.5 291.5L136 421.5H171L194.5 337.5L212.5 421.5H237L261 314" stroke="#0F60FF" stroke-width="2"/>
<path d="M15.895 215.601H21.5045L21.472 216.641H16.922L16.6815 219.676C16.9935 219.386 17.3337 219.18 17.702 219.059C18.0747 218.933 18.4777 218.87 18.911 218.87C19.4787 218.87 20.0009 218.987 20.4775 219.221C20.9585 219.451 21.3442 219.793 21.6345 220.248C21.9249 220.699 22.07 221.258 22.07 221.925C22.07 222.575 21.9292 223.141 21.6475 223.622C21.3659 224.103 20.9694 224.478 20.458 224.746C19.9467 225.011 19.3465 225.143 18.6575 225.143C18.0769 225.143 17.5395 225.041 17.0455 224.837C16.5515 224.634 16.1269 224.35 15.7715 223.986C15.4205 223.622 15.1627 223.204 14.998 222.731L16.038 222.296C16.194 222.651 16.389 222.968 16.623 223.245C16.8614 223.522 17.143 223.739 17.468 223.895C17.793 224.051 18.1614 224.129 18.573 224.129C19.2404 224.129 19.7755 223.936 20.1785 223.55C20.5859 223.16 20.7895 222.632 20.7895 221.964C20.7895 221.548 20.6942 221.187 20.5035 220.879C20.3129 220.567 20.055 220.324 19.73 220.151C19.4094 219.978 19.054 219.891 18.664 219.891C18.4084 219.891 18.17 219.915 17.949 219.962C17.728 220.006 17.5092 220.092 17.2925 220.222C17.0759 220.352 16.8484 220.55 16.61 220.814C16.584 220.827 16.5645 220.833 16.5515 220.833C16.5385 220.829 16.5169 220.82 16.4865 220.807L15.4725 220.489L15.895 215.601ZM26.6866 215.471C27.705 215.471 28.5153 215.88 29.1176 216.699C29.7243 217.514 30.0276 218.721 30.0276 220.32C30.0276 221.91 29.7265 223.113 29.1241 223.927C28.5218 224.738 27.705 225.143 26.6736 225.143C25.6466 225.143 24.832 224.74 24.2296 223.934C23.6273 223.124 23.3261 221.925 23.3261 220.339C23.3261 219.269 23.4648 218.372 23.7421 217.648C24.0195 216.925 24.4095 216.381 24.9121 216.017C25.4148 215.653 26.0063 215.471 26.6866 215.471ZM26.6866 224.103C27.3583 224.103 27.8653 223.808 28.2076 223.219C28.5543 222.625 28.7276 221.661 28.7276 220.326C28.7276 218.966 28.5521 217.987 28.2011 217.388C27.8545 216.786 27.3475 216.485 26.6801 216.485C26.0171 216.485 25.5058 216.788 25.1461 217.395C24.7908 217.997 24.6131 218.974 24.6131 220.326C24.6131 221.657 24.7908 222.619 25.1461 223.212C25.5015 223.806 26.015 224.103 26.6866 224.103ZM37.5586 225H36.2846L34.1786 221.626L32.8526 222.998V225H31.6566V215.341H32.8526V221.639L36.0116 218.279H37.3896L34.9651 220.84L37.5586 225Z" fill="#4B465C"/>
<path d="M15.895 215.601H21.5045L21.472 216.641H16.922L16.6815 219.676C16.9935 219.386 17.3337 219.18 17.702 219.059C18.0747 218.933 18.4777 218.87 18.911 218.87C19.4787 218.87 20.0009 218.987 20.4775 219.221C20.9585 219.451 21.3442 219.793 21.6345 220.248C21.9249 220.699 22.07 221.258 22.07 221.925C22.07 222.575 21.9292 223.141 21.6475 223.622C21.3659 224.103 20.9694 224.478 20.458 224.746C19.9467 225.011 19.3465 225.143 18.6575 225.143C18.0769 225.143 17.5395 225.041 17.0455 224.837C16.5515 224.634 16.1269 224.35 15.7715 223.986C15.4205 223.622 15.1627 223.204 14.998 222.731L16.038 222.296C16.194 222.651 16.389 222.968 16.623 223.245C16.8614 223.522 17.143 223.739 17.468 223.895C17.793 224.051 18.1614 224.129 18.573 224.129C19.2404 224.129 19.7755 223.936 20.1785 223.55C20.5859 223.16 20.7895 222.632 20.7895 221.964C20.7895 221.548 20.6942 221.187 20.5035 220.879C20.3129 220.567 20.055 220.324 19.73 220.151C19.4094 219.978 19.054 219.891 18.664 219.891C18.4084 219.891 18.17 219.915 17.949 219.962C17.728 220.006 17.5092 220.092 17.2925 220.222C17.0759 220.352 16.8484 220.55 16.61 220.814C16.584 220.827 16.5645 220.833 16.5515 220.833C16.5385 220.829 16.5169 220.82 16.4865 220.807L15.4725 220.489L15.895 215.601ZM26.6866 215.471C27.705 215.471 28.5153 215.88 29.1176 216.699C29.7243 217.514 30.0276 218.721 30.0276 220.32C30.0276 221.91 29.7265 223.113 29.1241 223.927C28.5218 224.738 27.705 225.143 26.6736 225.143C25.6466 225.143 24.832 224.74 24.2296 223.934C23.6273 223.124 23.3261 221.925 23.3261 220.339C23.3261 219.269 23.4648 218.372 23.7421 217.648C24.0195 216.925 24.4095 216.381 24.9121 216.017C25.4148 215.653 26.0063 215.471 26.6866 215.471ZM26.6866 224.103C27.3583 224.103 27.8653 223.808 28.2076 223.219C28.5543 222.625 28.7276 221.661 28.7276 220.326C28.7276 218.966 28.5521 217.987 28.2011 217.388C27.8545 216.786 27.3475 216.485 26.6801 216.485C26.0171 216.485 25.5058 216.788 25.1461 217.395C24.7908 217.997 24.6131 218.974 24.6131 220.326C24.6131 221.657 24.7908 222.619 25.1461 223.212C25.5015 223.806 26.015 224.103 26.6866 224.103ZM37.5586 225H36.2846L34.1786 221.626L32.8526 222.998V225H31.6566V215.341H32.8526V221.639L36.0116 218.279H37.3896L34.9651 220.84L37.5586 225Z" fill="white" fill-opacity="0.5"/>
<path d="M19.2487 252.201H20.4707V258.142H22.0307V259.201H20.4707V261.6H19.2942V259.201H14.8677V258.103L19.2487 252.201ZM16.0182 258.142H19.2682V253.78L16.0182 258.142ZM26.4235 252.071C27.4418 252.071 28.2521 252.48 28.8545 253.299C29.4611 254.114 29.7645 255.321 29.7645 256.92C29.7645 258.51 29.4633 259.712 28.861 260.527C28.2586 261.337 27.4418 261.743 26.4105 261.743C25.3835 261.743 24.5688 261.34 23.9665 260.534C23.3641 259.723 23.063 258.525 23.063 256.939C23.063 255.869 23.2016 254.972 23.479 254.248C23.7563 253.524 24.1463 252.981 24.649 252.617C25.1516 252.253 25.7431 252.071 26.4235 252.071ZM26.4235 260.703C27.0951 260.703 27.6021 260.408 27.9445 259.819C28.2911 259.225 28.4645 258.261 28.4645 256.926C28.4645 255.565 28.289 254.586 27.938 253.988C27.5913 253.386 27.0843 253.085 26.417 253.085C25.754 253.085 25.2426 253.388 24.883 253.995C24.5276 254.597 24.35 255.574 24.35 256.926C24.35 258.256 24.5276 259.218 24.883 259.812C25.2383 260.406 25.7518 260.703 26.4235 260.703ZM37.2954 261.6H36.0214L33.9154 258.226L32.5894 259.598V261.6H31.3934V251.941H32.5894V258.239L35.7484 254.879H37.1264L34.7019 257.44L37.2954 261.6Z" fill="#4B465C"/>
<path d="M19.2487 252.201H20.4707V258.142H22.0307V259.201H20.4707V261.6H19.2942V259.201H14.8677V258.103L19.2487 252.201ZM16.0182 258.142H19.2682V253.78L16.0182 258.142ZM26.4235 252.071C27.4418 252.071 28.2521 252.48 28.8545 253.299C29.4611 254.114 29.7645 255.321 29.7645 256.92C29.7645 258.51 29.4633 259.712 28.861 260.527C28.2586 261.337 27.4418 261.743 26.4105 261.743C25.3835 261.743 24.5688 261.34 23.9665 260.534C23.3641 259.723 23.063 258.525 23.063 256.939C23.063 255.869 23.2016 254.972 23.479 254.248C23.7563 253.524 24.1463 252.981 24.649 252.617C25.1516 252.253 25.7431 252.071 26.4235 252.071ZM26.4235 260.703C27.0951 260.703 27.6021 260.408 27.9445 259.819C28.2911 259.225 28.4645 258.261 28.4645 256.926C28.4645 255.565 28.289 254.586 27.938 253.988C27.5913 253.386 27.0843 253.085 26.417 253.085C25.754 253.085 25.2426 253.388 24.883 253.995C24.5276 254.597 24.35 255.574 24.35 256.926C24.35 258.256 24.5276 259.218 24.883 259.812C25.2383 260.406 25.7518 260.703 26.4235 260.703ZM37.2954 261.6H36.0214L33.9154 258.226L32.5894 259.598V261.6H31.3934V251.941H32.5894V258.239L35.7484 254.879H37.1264L34.7019 257.44L37.2954 261.6Z" fill="white" fill-opacity="0.5"/>
<path d="M15.0488 291.538C15.0488 290.931 15.1961 290.415 15.4908 289.991C15.7854 289.562 16.1776 289.235 16.6673 289.009C17.1613 288.784 17.7051 288.671 18.2988 288.671C18.9488 288.671 19.5229 288.767 20.0213 288.957C20.5196 289.144 20.9096 289.417 21.1913 289.776C21.4729 290.136 21.6138 290.576 21.6138 291.096C21.6138 291.559 21.4664 291.98 21.1718 292.357C20.8771 292.729 20.4264 293.022 19.8198 293.234C20.2314 293.347 20.5911 293.512 20.8988 293.728C21.2064 293.945 21.4448 294.211 21.6138 294.528C21.7828 294.84 21.8673 295.199 21.8673 295.607C21.8673 296.036 21.7763 296.421 21.5943 296.764C21.4166 297.102 21.1653 297.39 20.8403 297.628C20.5153 297.862 20.1318 298.042 19.6898 298.168C19.2478 298.289 18.7668 298.348 18.2468 298.343C17.6011 298.339 17.0313 298.22 16.5373 297.986C16.0476 297.752 15.6619 297.425 15.3803 297.004C15.0986 296.58 14.9469 296.077 14.9253 295.496H16.1278C16.2188 296.081 16.4571 296.53 16.8428 296.842C17.2284 297.154 17.7116 297.31 18.2923 297.31C18.7516 297.31 19.1524 297.238 19.4948 297.095C19.8371 296.948 20.1014 296.746 20.2878 296.491C20.4741 296.235 20.5673 295.936 20.5673 295.594C20.5673 295.217 20.4633 294.898 20.2553 294.638C20.0473 294.378 19.7634 294.181 19.4038 294.047C19.0441 293.908 18.6433 293.837 18.2013 293.832L17.3563 293.813V292.792L18.1623 292.773C18.5739 292.764 18.9423 292.686 19.2673 292.539C19.5923 292.387 19.8479 292.19 20.0343 291.947C20.2249 291.7 20.3203 291.429 20.3203 291.135C20.3203 290.875 20.2401 290.634 20.0798 290.413C19.9194 290.188 19.6876 290.008 19.3843 289.874C19.0853 289.739 18.7213 289.672 18.2923 289.672C17.9543 289.672 17.6314 289.739 17.3238 289.874C17.0161 290.004 16.7626 290.205 16.5633 290.478C16.3639 290.751 16.2578 291.104 16.2448 291.538H15.0488ZM26.3854 288.671C27.4037 288.671 28.214 289.081 28.8164 289.9C29.423 290.714 29.7264 291.921 29.7264 293.52C29.7264 295.111 29.4252 296.313 28.8229 297.128C28.2205 297.938 27.4037 298.343 26.3724 298.343C25.3454 298.343 24.5307 297.94 23.9284 297.134C23.326 296.324 23.0249 295.126 23.0249 293.54C23.0249 292.469 23.1635 291.572 23.4409 290.849C23.7182 290.125 24.1082 289.581 24.6109 289.217C25.1135 288.853 25.705 288.671 26.3854 288.671ZM26.3854 297.303C27.057 297.303 27.564 297.009 27.9064 296.419C28.253 295.826 28.4264 294.861 28.4264 293.527C28.4264 292.166 28.2509 291.187 27.8999 290.589C27.5532 289.986 27.0462 289.685 26.3789 289.685C25.7159 289.685 25.2045 289.989 24.8449 290.595C24.4895 291.198 24.3119 292.175 24.3119 293.527C24.3119 294.857 24.4895 295.819 24.8449 296.413C25.2002 297.006 25.7137 297.303 26.3854 297.303ZM37.2573 298.2H35.9833L33.8773 294.827L32.5513 296.198V298.2H31.3553V288.541H32.5513V294.84L35.7103 291.479H37.0883L34.6638 294.04L37.2573 298.2Z" fill="#4B465C"/>
<path d="M15.0488 291.538C15.0488 290.931 15.1961 290.415 15.4908 289.991C15.7854 289.562 16.1776 289.235 16.6673 289.009C17.1613 288.784 17.7051 288.671 18.2988 288.671C18.9488 288.671 19.5229 288.767 20.0213 288.957C20.5196 289.144 20.9096 289.417 21.1913 289.776C21.4729 290.136 21.6138 290.576 21.6138 291.096C21.6138 291.559 21.4664 291.98 21.1718 292.357C20.8771 292.729 20.4264 293.022 19.8198 293.234C20.2314 293.347 20.5911 293.512 20.8988 293.728C21.2064 293.945 21.4448 294.211 21.6138 294.528C21.7828 294.84 21.8673 295.199 21.8673 295.607C21.8673 296.036 21.7763 296.421 21.5943 296.764C21.4166 297.102 21.1653 297.39 20.8403 297.628C20.5153 297.862 20.1318 298.042 19.6898 298.168C19.2478 298.289 18.7668 298.348 18.2468 298.343C17.6011 298.339 17.0313 298.22 16.5373 297.986C16.0476 297.752 15.6619 297.425 15.3803 297.004C15.0986 296.58 14.9469 296.077 14.9253 295.496H16.1278C16.2188 296.081 16.4571 296.53 16.8428 296.842C17.2284 297.154 17.7116 297.31 18.2923 297.31C18.7516 297.31 19.1524 297.238 19.4948 297.095C19.8371 296.948 20.1014 296.746 20.2878 296.491C20.4741 296.235 20.5673 295.936 20.5673 295.594C20.5673 295.217 20.4633 294.898 20.2553 294.638C20.0473 294.378 19.7634 294.181 19.4038 294.047C19.0441 293.908 18.6433 293.837 18.2013 293.832L17.3563 293.813V292.792L18.1623 292.773C18.5739 292.764 18.9423 292.686 19.2673 292.539C19.5923 292.387 19.8479 292.19 20.0343 291.947C20.2249 291.7 20.3203 291.429 20.3203 291.135C20.3203 290.875 20.2401 290.634 20.0798 290.413C19.9194 290.188 19.6876 290.008 19.3843 289.874C19.0853 289.739 18.7213 289.672 18.2923 289.672C17.9543 289.672 17.6314 289.739 17.3238 289.874C17.0161 290.004 16.7626 290.205 16.5633 290.478C16.3639 290.751 16.2578 291.104 16.2448 291.538H15.0488ZM26.3854 288.671C27.4037 288.671 28.214 289.081 28.8164 289.9C29.423 290.714 29.7264 291.921 29.7264 293.52C29.7264 295.111 29.4252 296.313 28.8229 297.128C28.2205 297.938 27.4037 298.343 26.3724 298.343C25.3454 298.343 24.5307 297.94 23.9284 297.134C23.326 296.324 23.0249 295.126 23.0249 293.54C23.0249 292.469 23.1635 291.572 23.4409 290.849C23.7182 290.125 24.1082 289.581 24.6109 289.217C25.1135 288.853 25.705 288.671 26.3854 288.671ZM26.3854 297.303C27.057 297.303 27.564 297.009 27.9064 296.419C28.253 295.826 28.4264 294.861 28.4264 293.527C28.4264 292.166 28.2509 291.187 27.8999 290.589C27.5532 289.986 27.0462 289.685 26.3789 289.685C25.7159 289.685 25.2045 289.989 24.8449 290.595C24.4895 291.198 24.3119 292.175 24.3119 293.527C24.3119 294.857 24.4895 295.819 24.8449 296.413C25.2002 297.006 25.7137 297.303 26.3854 297.303ZM37.2573 298.2H35.9833L33.8773 294.827L32.5513 296.198V298.2H31.3553V288.541H32.5513V294.84L35.7103 291.479H37.0883L34.6638 294.04L37.2573 298.2Z" fill="white" fill-opacity="0.5"/>
<path d="M15.285 334.8V334.065V333.682C15.285 333.201 15.3738 332.785 15.5515 332.434C15.7335 332.083 15.9718 331.777 16.2665 331.517C16.5655 331.253 16.8905 331.017 17.2415 330.809C17.5968 330.601 17.95 330.401 18.301 330.211C18.6563 330.016 18.9813 329.814 19.276 329.606C19.5707 329.394 19.8068 329.156 19.9845 328.891C20.1665 328.623 20.2575 328.306 20.2575 327.942C20.2575 327.466 20.0885 327.078 19.7505 326.779C19.4168 326.48 18.964 326.33 18.392 326.33C17.7767 326.33 17.2827 326.504 16.91 326.85C16.5373 327.197 16.3272 327.658 16.2795 328.235H15.0835C15.0965 327.693 15.2308 327.199 15.4865 326.753C15.7422 326.302 16.117 325.942 16.611 325.674C17.105 325.405 17.7138 325.271 18.4375 325.271C19.0658 325.271 19.6118 325.383 20.0755 325.609C20.5392 325.83 20.8967 326.142 21.148 326.545C21.4037 326.943 21.5315 327.409 21.5315 327.942C21.5315 328.428 21.4427 328.844 21.265 329.19C21.0873 329.537 20.8512 329.838 20.5565 330.094C20.2662 330.345 19.9477 330.57 19.601 330.77C19.2543 330.969 18.9055 331.162 18.5545 331.348C18.2035 331.53 17.8828 331.723 17.5925 331.927C17.3022 332.126 17.0682 332.356 16.8905 332.616C16.7128 332.876 16.624 333.186 16.624 333.545V333.734H21.5835V334.8H15.285ZM26.2076 325.271C27.226 325.271 28.0363 325.68 28.6386 326.499C29.2453 327.314 29.5486 328.521 29.5486 330.12C29.5486 331.71 29.2475 332.913 28.6451 333.727C28.0428 334.538 27.226 334.943 26.1946 334.943C25.1676 334.943 24.353 334.54 23.7506 333.734C23.1483 332.923 22.8471 331.725 22.8471 330.139C22.8471 329.069 22.9858 328.172 23.2631 327.448C23.5405 326.725 23.9305 326.181 24.4331 325.817C24.9358 325.453 25.5273 325.271 26.2076 325.271ZM26.2076 333.903C26.8793 333.903 27.3863 333.608 27.7286 333.019C28.0753 332.425 28.2486 331.461 28.2486 330.126C28.2486 328.766 28.0731 327.786 27.7221 327.188C27.3755 326.586 26.8685 326.285 26.2011 326.285C25.5381 326.285 25.0268 326.588 24.6671 327.195C24.3118 327.797 24.1341 328.774 24.1341 330.126C24.1341 331.457 24.3118 332.419 24.6671 333.012C25.0225 333.606 25.536 333.903 26.2076 333.903ZM37.0796 334.8H35.8056L33.6996 331.426L32.3736 332.798V334.8H31.1776V325.141H32.3736V331.439L35.5326 328.079H36.9106L34.4861 330.64L37.0796 334.8Z" fill="#4B465C"/>
<path d="M15.285 334.8V334.065V333.682C15.285 333.201 15.3738 332.785 15.5515 332.434C15.7335 332.083 15.9718 331.777 16.2665 331.517C16.5655 331.253 16.8905 331.017 17.2415 330.809C17.5968 330.601 17.95 330.401 18.301 330.211C18.6563 330.016 18.9813 329.814 19.276 329.606C19.5707 329.394 19.8068 329.156 19.9845 328.891C20.1665 328.623 20.2575 328.306 20.2575 327.942C20.2575 327.466 20.0885 327.078 19.7505 326.779C19.4168 326.48 18.964 326.33 18.392 326.33C17.7767 326.33 17.2827 326.504 16.91 326.85C16.5373 327.197 16.3272 327.658 16.2795 328.235H15.0835C15.0965 327.693 15.2308 327.199 15.4865 326.753C15.7422 326.302 16.117 325.942 16.611 325.674C17.105 325.405 17.7138 325.271 18.4375 325.271C19.0658 325.271 19.6118 325.383 20.0755 325.609C20.5392 325.83 20.8967 326.142 21.148 326.545C21.4037 326.943 21.5315 327.409 21.5315 327.942C21.5315 328.428 21.4427 328.844 21.265 329.19C21.0873 329.537 20.8512 329.838 20.5565 330.094C20.2662 330.345 19.9477 330.57 19.601 330.77C19.2543 330.969 18.9055 331.162 18.5545 331.348C18.2035 331.53 17.8828 331.723 17.5925 331.927C17.3022 332.126 17.0682 332.356 16.8905 332.616C16.7128 332.876 16.624 333.186 16.624 333.545V333.734H21.5835V334.8H15.285ZM26.2076 325.271C27.226 325.271 28.0363 325.68 28.6386 326.499C29.2453 327.314 29.5486 328.521 29.5486 330.12C29.5486 331.71 29.2475 332.913 28.6451 333.727C28.0428 334.538 27.226 334.943 26.1946 334.943C25.1676 334.943 24.353 334.54 23.7506 333.734C23.1483 332.923 22.8471 331.725 22.8471 330.139C22.8471 329.069 22.9858 328.172 23.2631 327.448C23.5405 326.725 23.9305 326.181 24.4331 325.817C24.9358 325.453 25.5273 325.271 26.2076 325.271ZM26.2076 333.903C26.8793 333.903 27.3863 333.608 27.7286 333.019C28.0753 332.425 28.2486 331.461 28.2486 330.126C28.2486 328.766 28.0731 327.786 27.7221 327.188C27.3755 326.586 26.8685 326.285 26.2011 326.285C25.5381 326.285 25.0268 326.588 24.6671 327.195C24.3118 327.797 24.1341 328.774 24.1341 330.126C24.1341 331.457 24.3118 332.419 24.6671 333.012C25.0225 333.606 25.536 333.903 26.2076 333.903ZM37.0796 334.8H35.8056L33.6996 331.426L32.3736 332.798V334.8H31.1776V325.141H32.3736V331.439L35.5326 328.079H36.9106L34.4861 330.64L37.0796 334.8Z" fill="white" fill-opacity="0.5"/>
<path d="M19.6221 371.4V363.919H17.8086V363.132C18.3719 363.132 18.8096 363.091 19.1216 363.009C19.4336 362.927 19.6546 362.801 19.7846 362.632C19.9189 362.463 19.9926 362.253 20.0056 362.001H20.8636V371.4H19.6221ZM26.4825 361.871C27.5009 361.871 28.3112 362.281 28.9135 363.1C29.5202 363.915 29.8235 365.121 29.8235 366.72C29.8235 368.311 29.5224 369.513 28.92 370.328C28.3177 371.138 27.5009 371.543 26.4695 371.543C25.4425 371.543 24.6279 371.14 24.0255 370.334C23.4232 369.524 23.122 368.326 23.122 366.74C23.122 365.67 23.2607 364.773 23.538 364.049C23.8154 363.325 24.2054 362.781 24.708 362.417C25.2107 362.053 25.8022 361.871 26.4825 361.871ZM26.4825 370.503C27.1542 370.503 27.6612 370.209 28.0035 369.619C28.3502 369.026 28.5235 368.062 28.5235 366.727C28.5235 365.366 28.348 364.387 27.997 363.789C27.6504 363.187 27.1434 362.885 26.476 362.885C25.813 362.885 25.3017 363.189 24.942 363.795C24.5867 364.398 24.409 365.375 24.409 366.727C24.409 368.057 24.5867 369.019 24.942 369.613C25.2974 370.207 25.8109 370.503 26.4825 370.503ZM37.3545 371.4H36.0805L33.9745 368.027L32.6485 369.398V371.4H31.4525V361.741H32.6485V368.04L35.8075 364.679H37.1855L34.761 367.24L37.3545 371.4Z" fill="#4B465C"/>
<path d="M19.6221 371.4V363.919H17.8086V363.132C18.3719 363.132 18.8096 363.091 19.1216 363.009C19.4336 362.927 19.6546 362.801 19.7846 362.632C19.9189 362.463 19.9926 362.253 20.0056 362.001H20.8636V371.4H19.6221ZM26.4825 361.871C27.5009 361.871 28.3112 362.281 28.9135 363.1C29.5202 363.915 29.8235 365.121 29.8235 366.72C29.8235 368.311 29.5224 369.513 28.92 370.328C28.3177 371.138 27.5009 371.543 26.4695 371.543C25.4425 371.543 24.6279 371.14 24.0255 370.334C23.4232 369.524 23.122 368.326 23.122 366.74C23.122 365.67 23.2607 364.773 23.538 364.049C23.8154 363.325 24.2054 362.781 24.708 362.417C25.2107 362.053 25.8022 361.871 26.4825 361.871ZM26.4825 370.503C27.1542 370.503 27.6612 370.209 28.0035 369.619C28.3502 369.026 28.5235 368.062 28.5235 366.727C28.5235 365.366 28.348 364.387 27.997 363.789C27.6504 363.187 27.1434 362.885 26.476 362.885C25.813 362.885 25.3017 363.189 24.942 363.795C24.5867 364.398 24.409 365.375 24.409 366.727C24.409 368.057 24.5867 369.019 24.942 369.613C25.2974 370.207 25.8109 370.503 26.4825 370.503ZM37.3545 371.4H36.0805L33.9745 368.027L32.6485 369.398V371.4H31.4525V361.741H32.6485V368.04L35.8075 364.679H37.1855L34.761 367.24L37.3545 371.4Z" fill="white" fill-opacity="0.5"/>
<path d="M26.3356 398.471C27.3539 398.471 28.1642 398.88 28.7666 399.699C29.3732 400.514 29.6766 401.721 29.6766 403.32C29.6766 404.91 29.3754 406.113 28.7731 406.927C28.1707 407.738 27.3539 408.143 26.3226 408.143C25.2956 408.143 24.4809 407.74 23.8786 406.934C23.2762 406.124 22.9751 404.925 22.9751 403.339C22.9751 402.269 23.1137 401.372 23.3911 400.648C23.6684 399.925 24.0584 399.381 24.5611 399.017C25.0637 398.653 25.6552 398.471 26.3356 398.471ZM26.3356 407.103C27.0072 407.103 27.5142 406.808 27.8566 406.219C28.2032 405.625 28.3766 404.661 28.3766 403.326C28.3766 401.966 28.2011 400.987 27.8501 400.388C27.5034 399.786 26.9964 399.485 26.3291 399.485C25.6661 399.485 25.1547 399.788 24.7951 400.395C24.4397 400.997 24.2621 401.974 24.2621 403.326C24.2621 404.657 24.4397 405.619 24.7951 406.212C25.1504 406.806 25.6639 407.103 26.3356 407.103ZM37.2075 408H35.9335L33.8275 404.626L32.5015 405.998V408H31.3055V398.341H32.5015V404.639L35.6605 401.279H37.0385L34.614 403.84L37.2075 408Z" fill="#4B465C"/>
<path d="M26.3356 398.471C27.3539 398.471 28.1642 398.88 28.7666 399.699C29.3732 400.514 29.6766 401.721 29.6766 403.32C29.6766 404.91 29.3754 406.113 28.7731 406.927C28.1707 407.738 27.3539 408.143 26.3226 408.143C25.2956 408.143 24.4809 407.74 23.8786 406.934C23.2762 406.124 22.9751 404.925 22.9751 403.339C22.9751 402.269 23.1137 401.372 23.3911 400.648C23.6684 399.925 24.0584 399.381 24.5611 399.017C25.0637 398.653 25.6552 398.471 26.3356 398.471ZM26.3356 407.103C27.0072 407.103 27.5142 406.808 27.8566 406.219C28.2032 405.625 28.3766 404.661 28.3766 403.326C28.3766 401.966 28.2011 400.987 27.8501 400.388C27.5034 399.786 26.9964 399.485 26.3291 399.485C25.6661 399.485 25.1547 399.788 24.7951 400.395C24.4397 400.997 24.2621 401.974 24.2621 403.326C24.2621 404.657 24.4397 405.619 24.7951 406.212C25.1504 406.806 25.6639 407.103 26.3356 407.103ZM37.2075 408H35.9335L33.8275 404.626L32.5015 405.998V408H31.3055V398.341H32.5015V404.639L35.6605 401.279H37.0385L34.614 403.84L37.2075 408Z" fill="white" fill-opacity="0.5"/>
</svg>
