<svg width="57" height="57" viewBox="0 0 57 57" fill="none" xmlns="http://www.w3.org/2000/svg">
<path d="M0.5 28.5C0.5 13.036 13.036 0.5 28.5 0.5C43.964 0.5 56.5 13.036 56.5 28.5C56.5 43.964 43.964 56.5 28.5 56.5C13.036 56.5 0.5 43.964 0.5 28.5Z" fill="#F4F7FE"/>
<path d="M32.2231 23.3794C32.2231 25.4046 30.5634 27.0594 28.5 27.0594C26.4366 27.0594 24.7769 25.4046 24.7769 23.3794C24.7769 21.3542 26.4366 19.6994 28.5 19.6994C30.5634 19.6994 32.2231 21.3542 32.2231 23.3794Z" stroke="#2B3674" stroke-width="1.6"/>
<path d="M26.6561 29.8896H30.3439C33.5222 29.8896 36.15 32.5814 36.15 35.9663C36.15 36.7592 35.5402 37.3496 34.8512 37.3496H22.1488C21.4598 37.3496 20.85 36.7592 20.85 35.9663C20.85 32.5814 23.4778 29.8896 26.6561 29.8896Z" stroke="#2B3674" stroke-width="1.5"/>
</svg>
