<svg width="120" height="28" viewBox="0 0 120 28" fill="none" xmlns="http://www.w3.org/2000/svg">
<g clip-path="url(#clip0_676_1665)">
<g clip-path="url(#clip1_676_1665)">
<g clip-path="url(#clip2_676_1665)">
<path d="M0.00631714 13.1089C0.00631714 11.6524 0.299306 10.3799 0.885282 9.29167C1.488 8.20343 2.31675 7.36631 3.37151 6.78034C4.44301 6.19436 5.6652 5.90137 7.03806 5.90137C8.79596 5.90137 10.261 6.36178 11.4329 7.2826C12.6216 8.20343 13.4001 9.50094 13.7684 11.1752H9.19778C8.81275 10.1037 8.06768 9.56793 6.96272 9.56793C6.17584 9.56793 5.548 9.87768 5.07922 10.4971C4.61043 11.0998 4.37604 11.9705 4.37604 13.1089C4.37604 14.2474 4.61043 15.1263 5.07922 15.7458C5.548 16.3485 6.17584 16.6499 6.96272 16.6499C8.06768 16.6499 8.81275 16.1142 9.19778 15.0426H13.7684C13.4001 16.6834 12.6216 17.9725 11.4329 18.9101C10.2442 19.8476 8.77925 20.3164 7.03806 20.3164C5.6652 20.3164 4.44301 20.0235 3.37151 19.4375C2.31675 18.8515 1.488 18.0144 0.885282 16.9262C0.299306 15.8379 0.00631714 14.5655 0.00631714 13.1089Z" fill="#2B3674"/>
<path d="M37.7319 20.3164C36.5097 20.3164 35.4214 20.1072 34.4672 19.6886C33.5129 19.2701 32.7594 18.7008 32.2069 17.9809C31.6545 17.2443 31.3447 16.4239 31.2777 15.5198H35.5219C35.5721 16.0053 35.7982 16.3988 36.2 16.7001C36.6018 17.0015 37.0957 17.1521 37.6816 17.1521C38.2174 17.1521 38.6276 17.0517 38.9122 16.8508C39.2136 16.6331 39.3642 16.3569 39.3642 16.022C39.3642 15.6202 39.155 15.3273 38.7365 15.1431C38.3179 14.9422 37.6398 14.7245 36.7022 14.4901C35.6977 14.2557 34.8606 14.013 34.1909 13.7618C33.5212 13.4939 32.9436 13.0838 32.4581 12.5313C31.9726 11.962 31.7298 11.2003 31.7298 10.246C31.7298 9.44237 31.9475 8.71409 32.3828 8.06109C32.8348 7.39145 33.4877 6.86404 34.3416 6.47898C35.2122 6.0939 36.2419 5.90137 37.4305 5.90137C39.1885 5.90137 40.5697 6.33666 41.5742 7.20725C42.5955 8.07787 43.1815 9.23311 43.3322 10.6729H39.3642C39.2973 10.1874 39.0796 9.80234 38.7113 9.51772C38.3597 9.23311 37.891 9.09077 37.305 9.09077C36.8027 9.09077 36.4176 9.19118 36.1497 9.39209C35.8819 9.57629 35.7479 9.83576 35.7479 10.1707C35.7479 10.5725 35.9572 10.8738 36.3758 11.0747C36.8111 11.2756 37.4808 11.4765 38.3848 11.6774C39.4229 11.9453 40.2684 12.2132 40.9213 12.4811C41.5742 12.7322 42.1435 13.1508 42.629 13.7367C43.1313 14.306 43.3908 15.0761 43.4075 16.0472C43.4075 16.8675 43.1731 17.6042 42.7043 18.2572C42.2523 18.8934 41.591 19.3956 40.7204 19.7639C39.8666 20.1322 38.8704 20.3164 37.7319 20.3164Z" fill="#2B3674"/>
<path d="M53.8451 16.4747V20.1162H51.6602C50.1032 20.1162 48.8894 19.7395 48.0188 18.9861C47.1481 18.216 46.7129 16.9687 46.7129 15.2442V9.66899H45.0052V6.10292H46.7129V2.6875H51.0072V6.10292H53.8199V9.66899H51.0072V15.2944C51.0072 15.713 51.1077 16.0143 51.3086 16.1985C51.5095 16.3826 51.8444 16.4747 52.3132 16.4747H53.8451Z" fill="#2B3674"/>
<path d="M60.5315 8.08623C60.9501 7.4333 61.5277 6.9059 62.2643 6.50409C63.001 6.10227 63.8632 5.90137 64.851 5.90137C66.0062 5.90137 67.0526 6.19436 67.9902 6.78034C68.9278 7.36631 69.6644 8.20343 70.2002 9.29167C70.7527 10.3799 71.0289 11.6439 71.0289 13.0838C71.0289 14.5236 70.7527 15.7961 70.2002 16.901C69.6644 17.9893 68.9278 18.8347 67.9902 19.4375C67.0526 20.0235 66.0062 20.3164 64.851 20.3164C63.88 20.3164 63.0178 20.1155 62.2643 19.7137C61.5277 19.3119 60.9501 18.7929 60.5315 18.1567V26.7957H56.2371V6.10227H60.5315V8.08623ZM66.6592 13.0838C66.6592 12.0123 66.3578 11.1752 65.7551 10.5725C65.1691 9.95296 64.4408 9.64328 63.5702 9.64328C62.7164 9.64328 61.9881 9.95296 61.3854 10.5725C60.7994 11.1919 60.5064 12.0374 60.5064 13.1089C60.5064 14.1804 60.7994 15.0259 61.3854 15.6454C61.9881 16.2648 62.7164 16.5746 63.5702 16.5746C64.4241 16.5746 65.1524 16.2648 65.7551 15.6454C66.3578 15.0091 66.6592 14.1553 66.6592 13.0838Z" fill="#2B3674"/>
<path d="M77.576 8.43839C78.0788 7.66825 78.7066 7.0655 79.4594 6.63021C80.2129 6.17817 81.0499 5.95215 81.9713 5.95215V10.4977H80.7907C79.7193 10.4977 78.9159 10.7321 78.3802 11.2008C77.8438 11.6529 77.576 12.4565 77.576 13.6117V20.1161H73.2822V6.10283H77.576V8.43839Z" fill="#2B3674"/>
<path d="M86.1837 4.64598C85.4302 4.64598 84.8102 4.42833 84.3253 3.99303C83.8561 3.54098 83.6218 2.98849 83.6218 2.33555C83.6218 1.66585 83.8561 1.11336 84.3253 0.678061C84.8102 0.22602 85.4302 0 86.1837 0C86.92 0 87.5228 0.22602 87.9913 0.678061C88.477 1.11336 88.7198 1.66585 88.7198 2.33555C88.7198 2.98849 88.477 3.54098 87.9913 3.99303C87.5228 4.42833 86.92 4.64598 86.1837 4.64598ZM88.3177 6.10255V20.1158H84.0239V6.10255H88.3177Z" fill="#2B3674"/>
<path d="M90.576 13.1089C90.576 11.6524 90.8696 10.3799 91.4553 9.29167C92.058 8.20343 92.8865 7.36631 93.9414 6.78034C95.0127 6.19436 96.2355 5.90137 97.6082 5.90137C99.3658 5.90137 100.831 6.36178 102.003 7.2826C103.192 8.20343 103.97 9.50094 104.338 11.1752H99.7679C99.383 10.1037 98.6373 9.56793 97.5325 9.56793C96.7461 9.56793 96.1183 9.87768 95.6491 10.4971C95.1806 11.0998 94.9463 11.9705 94.9463 13.1089C94.9463 14.2474 95.1806 15.1263 95.6491 15.7458C96.1183 16.3485 96.7461 16.6499 97.5325 16.6499C98.6373 16.6499 99.383 16.1142 99.7679 15.0426H104.338C103.97 16.6834 103.192 17.9725 102.003 18.9101C100.814 19.8476 99.3494 20.3164 97.6082 20.3164C96.2355 20.3164 95.0127 20.0235 93.9414 19.4375C92.8865 18.8515 92.058 18.0144 91.4553 16.9262C90.8696 15.8379 90.576 14.5655 90.576 13.1089Z" fill="#2B3674"/>
<path d="M119.845 12.8829C119.845 13.2847 119.82 13.7033 119.77 14.1385H110.051C110.118 15.0091 110.394 15.6789 110.88 16.1476C111.382 16.5997 111.993 16.8257 112.713 16.8257C113.784 16.8257 114.529 16.3736 114.948 15.4696H119.519C119.284 16.3904 118.857 17.2191 118.238 17.9558C117.635 18.6925 116.873 19.2701 115.953 19.6886C115.032 20.1072 114.002 20.3164 112.864 20.3164C111.491 20.3164 110.268 20.0235 109.197 19.4375C108.126 18.8515 107.289 18.0144 106.686 16.9262C106.083 15.8379 105.782 14.5655 105.782 13.1089C105.782 11.6524 106.074 10.3799 106.661 9.29167C107.264 8.20343 108.101 7.36631 109.172 6.78034C110.243 6.19436 111.474 5.90137 112.864 5.90137C114.22 5.90137 115.425 6.18599 116.48 6.75522C117.535 7.32445 118.355 8.13644 118.941 9.19119C119.544 10.246 119.845 11.4765 119.845 12.8829ZM115.451 11.7528C115.451 11.0161 115.199 10.4301 114.697 9.99482C114.195 9.55958 113.567 9.34188 112.814 9.34188C112.094 9.34188 111.482 9.55115 110.98 9.96975C110.495 10.3883 110.193 10.9826 110.076 11.7528H115.451Z" fill="#2B3674"/>
<path d="M19.5717 15.293H26.7125V18.3976H19.5717V15.293Z" fill="#2B3674"/>
<path d="M26.9609 15.9445C26.9609 14.9235 26.5586 13.9443 25.8424 13.2223C25.1262 12.5003 24.1549 12.0947 23.1422 12.0947C22.1293 12.0947 21.158 12.5003 20.4419 13.2223C19.7257 13.9443 19.3234 14.9235 19.3234 15.9445H23.1422H26.9609Z" fill="#2B3674"/>
<path fill-rule="evenodd" clip-rule="evenodd" d="M23.1577 16.9074C25.3439 16.9074 27.1161 15.135 27.1161 12.9488C27.1161 10.7627 25.3439 8.99041 23.1577 8.99041C20.9715 8.99041 19.1992 10.7627 19.1992 12.9488C19.1992 15.135 20.9715 16.9074 23.1577 16.9074ZM23.1577 20.012C27.0585 20.012 30.2208 16.8497 30.2208 12.9488C30.2208 9.04804 27.0585 5.88574 23.1577 5.88574C19.2568 5.88574 16.0945 9.04804 16.0945 12.9488C16.0945 16.8497 19.2568 20.012 23.1577 20.012Z" fill="#2B3674"/>
<path d="M86.1372 4.70876C87.5459 4.70876 88.6878 3.65467 88.6878 2.35438C88.6878 1.05409 87.5459 0 86.1372 0C84.7286 0 83.5867 1.05409 83.5867 2.35438C83.5867 3.65467 84.7286 4.70876 86.1372 4.70876Z" fill="#F55425"/>
</g>
</g>
</g>
<defs>
<clipPath id="clip0_676_1665">
<rect width="120" height="27.14" fill="white"/>
</clipPath>
<clipPath id="clip1_676_1665">
<rect width="120" height="27.14" fill="white"/>
</clipPath>
<clipPath id="clip2_676_1665">
<rect width="119.987" height="27.14" fill="white" transform="translate(0.00631714)"/>
</clipPath>
</defs>
</svg>
