<svg width="31" height="30" viewBox="0 0 31 30" fill="none" xmlns="http://www.w3.org/2000/svg">
<g clip-path="url(#clip0_19_3017)">
<path d="M29.9438 15.7844C29.2844 12.5156 25.7188 10.1156 24.5094 9.38438C23.2469 4.88438 18.8656 1.55313 13.6687 1.55313C7.4875 1.55313 2.45938 6.25938 2.45938 12.0438C2.45938 12.0719 2.45937 12.0969 2.4625 12.125L2.68125 14.1219C2.61875 14.1313 2.55625 14.1469 2.49688 14.1719C1.76849 14.4951 1.1494 15.0225 0.714573 15.6902C0.279745 16.358 0.0478189 17.1375 0.046875 17.9344C0.046875 20.2031 1.89375 22.0469 4.15938 22.0469C4.29375 22.0469 4.41875 22.0094 4.52812 21.9438C6.29688 25.8625 9.79062 28.4438 13.7656 28.4438C17.7406 28.4438 20.9125 26.1031 22.7469 22.4875C22.875 22.4875 23.0031 22.4969 23.1281 22.4969C25.7938 22.4969 27.5406 21.8781 28.5938 20.5719C29.8188 19.0531 30.2719 17.4406 29.9375 15.7813L29.9438 15.7844ZM13.6687 3.03751C18.1344 3.03751 21.9062 5.84063 23.0406 9.65001C22.9906 9.88126 23.0531 10.1219 23.2062 10.2969C23.2688 10.5875 23.3156 10.8813 23.3469 11.1781C22.2844 10.4813 20.3625 9.59376 17.1687 9.20938L17.25 7.27813C17.3156 5.30001 15.7594 3.64063 13.7812 3.57501C11.8 3.51251 10.1437 5.06563 10.0781 7.03751L9.9875 9.18438C6.925 9.54688 5.06563 10.3781 4.00312 11.0688C4.52812 6.55938 8.6625 3.03751 13.6687 3.03751ZM23.5 20.7031C23.7781 19.875 23.9813 19 24.1031 18.0875C24.1563 17.6813 23.8719 17.3063 23.4656 17.2531C23.0594 17.1969 22.6844 17.4844 22.6313 17.8906C21.9281 23.1469 18.2031 26.9594 13.7719 26.9594C9.34062 26.9594 5.65625 23.1813 4.925 17.9781C4.91162 17.8816 4.87931 17.7887 4.82994 17.7047C4.78057 17.6207 4.71511 17.5473 4.6373 17.4886C4.5595 17.43 4.47088 17.3873 4.37653 17.363C4.28218 17.3386 4.18396 17.3332 4.0875 17.3469C3.68125 17.4031 3.39687 17.7781 3.45625 18.1844C3.57187 19.0094 3.75625 19.8 4 20.5563C2.62813 20.4688 1.5375 19.3313 1.5375 17.9375C1.5375 16.9938 2.04688 16.1313 2.85625 15.6656L2.88125 15.8969C2.89159 15.9939 2.92102 16.0878 2.96783 16.1734C3.01465 16.259 3.07793 16.3344 3.15404 16.3954C3.23014 16.4564 3.31756 16.5018 3.41126 16.5288C3.50496 16.5559 3.60309 16.5642 3.7 16.5531C3.797 16.5428 3.891 16.5134 3.97658 16.4666C4.06216 16.4198 4.13763 16.3565 4.19864 16.2804C4.25964 16.2043 4.30498 16.1169 4.33203 16.0232C4.35908 15.9294 4.36731 15.8313 4.35625 15.7344L4.00625 12.55C4.63438 11.9875 6.48125 10.7094 10.6438 10.3094C10.9719 10.2781 11.2094 9.98751 11.1781 9.66251C11.1719 9.60938 11.1594 9.56251 11.1437 9.51563C11.1562 9.46876 11.1656 9.42501 11.1687 9.37501L11.2656 7.08438C11.3094 5.76251 12.4187 4.72501 13.7406 4.76563C15.0625 4.80938 16.1031 5.91876 16.0594 7.23438L15.9812 9.09688C15.3 9.04688 14.5687 9.01876 13.7844 9.01876C13.3937 9.01876 12.9969 9.02501 12.6062 9.04063C12.5283 9.04345 12.4516 9.06162 12.3806 9.09409C12.3097 9.12657 12.2458 9.17271 12.1927 9.22989C12.1396 9.28707 12.0983 9.35415 12.0711 9.42731C12.0439 9.50047 12.0314 9.57827 12.0344 9.65626C12.0469 9.98438 12.3125 10.2469 12.65 10.2281C13.025 10.2156 13.4094 10.2063 13.7875 10.2063C20.1031 10.2063 22.6719 12.0594 23.3438 12.6656L23.0688 16.0781C23.0344 16.4875 23.3406 16.8438 23.75 16.8781H23.8094C24.1938 16.8781 24.5156 16.5844 24.55 16.1969L24.6094 15.475C25.0623 15.7076 25.4425 16.0605 25.7082 16.4948C25.9739 16.9292 26.1148 17.4283 26.1156 17.9375C26.1156 19.4125 24.9594 20.6188 23.5063 20.7063L23.5 20.7031ZM27.4438 19.6406C27.1813 19.9656 26.8344 20.2313 26.4031 20.4406C26.9625 19.7563 27.2969 18.8844 27.2969 17.9375C27.2969 16.3688 26.3687 14.9469 24.9344 14.3094C24.8563 14.275 24.7781 14.2594 24.7 14.2594L24.875 12.1031V12.0438C24.875 11.8281 24.8656 11.6125 24.8531 11.4C26.2094 12.3906 28.0875 14.0844 28.4906 16.0781C28.7344 17.3 28.3937 18.4656 27.4469 19.6406H27.4438ZM18.7 14.5063C17.5594 14.5063 16.6313 15.4344 16.6313 16.575C16.6313 16.7325 16.6938 16.8835 16.8052 16.9949C16.9165 17.1062 17.0675 17.1688 17.225 17.1688C17.3825 17.1688 17.5335 17.1062 17.6448 16.9949C17.7562 16.8835 17.8188 16.7325 17.8188 16.575C17.8188 16.0906 18.2125 15.6969 18.6969 15.6969C19.1812 15.6969 19.575 16.0906 19.575 16.575C19.575 16.7325 19.6376 16.8835 19.7489 16.9949C19.8603 17.1062 20.0113 17.1688 20.1688 17.1688C20.3262 17.1688 20.4772 17.1062 20.5886 16.9949C20.6999 16.8835 20.7625 16.7325 20.7625 16.575C20.7625 15.4344 19.8344 14.5063 18.6937 14.5063H18.7ZM8.3875 14.5063C7.24688 14.5063 6.31875 15.4344 6.31875 16.575C6.31875 16.7325 6.38131 16.8835 6.49266 16.9949C6.60401 17.1062 6.75503 17.1688 6.9125 17.1688C7.06997 17.1688 7.22099 17.1062 7.33235 16.9949C7.44369 16.8835 7.50625 16.7325 7.50625 16.575C7.50625 16.0906 7.9 15.6969 8.38437 15.6969C8.86875 15.6969 9.2625 16.0906 9.2625 16.575C9.2625 16.7325 9.32506 16.8835 9.43641 16.9949C9.54776 17.1062 9.69878 17.1688 9.85625 17.1688C10.0137 17.1688 10.1647 17.1062 10.2761 16.9949C10.3874 16.8835 10.45 16.7325 10.45 16.575C10.45 15.4344 9.52188 14.5063 8.38125 14.5063H8.3875ZM15.8312 21.7688C15.6738 21.7688 15.5228 21.8313 15.4114 21.9427C15.3001 22.054 15.2375 22.205 15.2375 22.3625C15.2375 23.0531 14.3687 23.6438 13.6594 23.6438C12.95 23.6438 12.0812 23.0531 12.0812 22.3625C12.0812 22.205 12.0187 22.054 11.9073 21.9427C11.796 21.8313 11.645 21.7688 11.4875 21.7688C11.33 21.7688 11.179 21.8313 11.0677 21.9427C10.9563 22.054 10.8937 22.205 10.8937 22.3625C10.8937 23.775 12.3531 24.8313 13.6594 24.8313C14.9656 24.8313 16.425 23.775 16.425 22.3625C16.425 22.205 16.3624 22.054 16.2511 21.9427C16.1397 21.8313 15.9887 21.7688 15.8312 21.7688Z" fill="#1E1218" stroke="#1E1218" stroke-width="0.3125"/>
</g>
<defs>
<clipPath id="clip0_19_3017">
<rect width="30" height="30" fill="white" transform="translate(0.0499878)"/>
</clipPath>
</defs>
</svg>
