<svg width="31" height="30" viewBox="0 0 31 30" fill="none" xmlns="http://www.w3.org/2000/svg">
<g clip-path="url(#clip0_19_3061)">
<path d="M30.6637 11.8906C30.445 10.925 29.6637 10.2875 28.67 10.2656L12.2762 9.94999H12.2356C12.1231 9.94999 12.0106 9.96249 11.9012 9.98124L11.095 8.39374C12.2794 7.41249 12.6731 5.70311 11.9481 4.27811C11.5419 3.47499 10.845 2.88124 9.99185 2.60311C9.1356 2.32499 8.2231 2.39374 7.4231 2.80311C5.76685 3.64374 5.10435 5.67499 5.94497 7.33124C5.98892 7.41819 6.04961 7.49561 6.12355 7.55904C6.1975 7.62248 6.28325 7.67068 6.37588 7.70088C6.46851 7.73108 6.56619 7.74268 6.66332 7.73502C6.76045 7.72736 6.8551 7.70058 6.94185 7.65624C7.02889 7.61239 7.1064 7.55175 7.1699 7.47782C7.23341 7.40388 7.28165 7.31812 7.31186 7.22545C7.34207 7.13279 7.35365 7.03506 7.34592 6.93791C7.3382 6.84075 7.31132 6.74608 7.26685 6.65936C7.04177 6.21409 7.00221 5.6978 7.15682 5.22343C7.31142 4.74906 7.64762 4.35524 8.09185 4.12811C8.53873 3.89999 9.05123 3.86249 9.52935 4.01561C9.7647 4.09158 9.98259 4.21359 10.1704 4.37454C10.3581 4.53548 10.512 4.73215 10.6231 4.95311C11.0919 5.87811 10.7231 7.01249 9.7981 7.48436C9.71106 7.52821 9.63355 7.58885 9.57005 7.66278C9.50654 7.73671 9.4583 7.82248 9.42809 7.91514C9.39788 8.00781 9.3863 8.10553 9.39403 8.20269C9.40175 8.29984 9.42863 8.39451 9.4731 8.48124L10.6168 10.7312C10.5856 10.7687 10.5543 10.8031 10.5262 10.8437L1.11373 24.2625C0.54185 25.075 0.594975 26.0844 1.24185 26.825C1.57935 27.2219 2.13873 27.5687 2.80748 27.5687C3.1106 27.5687 3.4356 27.4969 3.7731 27.325L29.5762 14.2187C30.6575 13.6687 30.8356 12.6156 30.6637 11.8875V11.8906ZM28.9012 12.8969L3.10123 26.0031C2.75123 26.1812 2.51373 26.025 2.36685 25.8562C2.22623 25.6969 2.10748 25.4375 2.32935 25.1156L11.7387 11.6937C11.8575 11.5281 12.0512 11.4281 12.2481 11.4344L28.6387 11.75C29.0294 11.7594 29.1669 12.0094 29.2169 12.225C29.2669 12.4344 29.2512 12.7187 28.9012 12.8969Z" fill="#1E1218" stroke="#1E1218" stroke-width="0.3125"/>
</g>
<defs>
<clipPath id="clip0_19_3061">
<rect width="30" height="30" fill="white" transform="translate(0.719971)"/>
</clipPath>
</defs>
</svg>
