<svg width="31" height="30" viewBox="0 0 31 30" fill="none" xmlns="http://www.w3.org/2000/svg">
<path d="M23.7175 0.946875H20.8394C20.7831 0.946875 20.73 0.9375 20.6738 0.9375H5.60814C3.34564 0.9375 1.50501 2.77812 1.50501 5.04062V18.0375C1.50189 18.0656 1.49564 18.0938 1.49564 18.125V23.5156C1.49564 26.575 3.98314 29.0625 7.04251 29.0625H23.7144C26.7738 29.0625 29.2613 26.575 29.2613 23.5156V6.49375C29.2613 3.43438 26.7738 0.946875 23.7144 0.946875H23.7175ZM2.89876 5.04062C2.89876 3.54687 4.11439 2.33125 5.60814 2.33125H19.2081C19.2363 2.33438 19.2644 2.34062 19.2925 2.34062H20.8394C22.255 2.42812 23.3831 3.60312 23.3831 5.04375V20.1719C23.3831 21.6656 22.1675 22.8813 20.6738 22.8813H5.60814C4.11439 22.8813 2.89876 21.6656 2.89876 20.1719V5.04062ZM27.8738 23.5156C27.8738 24.2875 27.6581 25.0094 27.2894 25.6312L24.93 23.7438C24.6894 23.5531 24.3394 23.5906 24.1456 23.8313C23.955 24.0719 23.9925 24.4219 24.2331 24.6156L26.5956 26.5063C25.8235 27.2549 24.7899 27.6731 23.7144 27.6719H7.04251C4.75189 27.6719 2.88626 25.8062 2.88626 23.5156V23.2312C3.61126 23.875 4.56126 24.2688 5.60501 24.2688H20.6706C22.9331 24.2688 24.7738 22.4281 24.7738 20.1656V5.04062C24.7738 4.00625 24.3863 3.0625 23.7519 2.34062C26.0269 2.3625 27.8706 4.21563 27.8706 6.49375V23.5156H27.8738ZM7.95501 19.9844C8.80814 19.9844 9.58939 19.5562 9.98939 18.8687C10.005 18.8406 10.0113 18.8062 10.0019 18.7719C9.99358 18.7405 9.97341 18.7136 9.94564 18.6969L9.23626 18.275C9.21029 18.2595 9.17938 18.2544 9.14979 18.2607C9.1202 18.2671 9.09414 18.2845 9.07689 18.3094C9.00501 18.4125 8.92689 18.5031 8.89564 18.5312C8.64251 18.7812 8.30501 18.9188 7.94251 18.9188C7.70814 18.9188 7.00501 18.7625 6.78001 18.075H9.95189C10.0144 18.075 10.0675 18.0281 10.0738 17.9625C10.0738 17.9406 10.08 17.9188 10.0831 17.8969C10.0988 17.825 10.1175 17.7312 10.1144 17.4812C10.0988 15.95 8.99564 15.2656 7.91126 15.2656C6.76439 15.2656 5.60501 15.9969 5.60501 17.625C5.60501 19.4875 7.13939 19.9812 7.95189 19.9812L7.95501 19.9844ZM7.91439 16.2437C8.49876 16.2437 8.89251 16.5844 8.99564 17.1844H6.76439C6.93001 16.4938 7.48314 16.2437 7.91439 16.2437ZM10.8831 19.3094C11.0738 19.5094 11.6206 19.9781 12.5488 19.9781C13.5831 19.9781 14.3081 19.3844 14.3081 18.5312C14.3081 18.0344 14.055 17.65 13.5581 17.3875C13.4269 17.3156 13.0894 17.175 12.5175 16.9594C12.3363 16.8938 12.205 16.7906 12.1675 16.6813C12.1425 16.6125 12.155 16.5375 12.2019 16.4625C12.2644 16.3625 12.355 16.2969 12.4738 16.2719C12.7363 16.2156 13.1394 16.3469 13.5488 16.625C13.6019 16.6625 13.6738 16.65 13.7144 16.5969L14.1456 16.0156C14.1831 15.9656 14.1769 15.8969 14.1331 15.8531C13.7394 15.4625 13.2394 15.2656 12.6425 15.2656C12.0456 15.2656 10.9863 15.55 10.9863 16.625C10.9863 17.0063 11.13 17.5219 11.8269 17.8281C11.9331 17.875 12.3238 18.0312 12.58 18.1313C12.705 18.1812 12.8019 18.2188 12.8206 18.2281C13.0113 18.3188 13.105 18.4281 13.105 18.5656C13.105 18.8813 12.7081 18.95 12.5519 18.95C12.0113 18.95 11.6269 18.6187 11.4456 18.4219C11.4345 18.409 11.4205 18.399 11.4047 18.3925C11.389 18.386 11.372 18.3832 11.355 18.3844C11.3376 18.3844 11.3204 18.3883 11.3047 18.3959C11.289 18.4035 11.2752 18.4145 11.2644 18.4281L10.7581 19.025C10.7175 19.0719 10.7175 19.1438 10.7581 19.1875C10.8144 19.25 10.8613 19.3 10.8738 19.3125L10.8831 19.3094ZM17.2206 19.9781C17.2644 19.9781 17.3081 19.9812 17.3519 19.9812C18.155 19.9812 18.9113 19.5688 19.3456 18.8844C19.355 18.8703 19.3612 18.8543 19.3639 18.8376C19.3666 18.8209 19.3657 18.8038 19.3613 18.7875C19.3519 18.755 19.3307 18.7271 19.3019 18.7094L18.5238 18.275C18.4675 18.2437 18.3988 18.2594 18.3613 18.3125C18.252 18.4722 18.1063 18.6037 17.9363 18.6961C17.7662 18.7884 17.5766 18.8391 17.3831 18.8438C16.73 18.8344 16.2144 18.2906 16.2144 17.625C16.2144 16.9594 16.73 16.4156 17.3831 16.4062C17.7988 16.4187 18.1863 16.6375 18.4019 17.0031C18.4363 17.0625 18.5113 17.0812 18.5706 17.0469L19.3394 16.5969C19.3675 16.5813 19.3894 16.5531 19.3956 16.5219C19.405 16.4906 19.3988 16.4563 19.3831 16.4281C19.1741 16.0761 18.8774 15.7842 18.5219 15.581C18.1665 15.3778 17.7644 15.2702 17.355 15.2688C16.705 15.2688 16.0988 15.5281 15.6488 16C15.427 16.2302 15.2549 16.5034 15.1431 16.8029C15.0313 17.1023 14.9822 17.4214 14.9988 17.7406C15.055 18.9312 16.03 19.9125 17.2206 19.9812V19.9781Z" fill="#1E1218" stroke="#1E1218" stroke-width="0.3125"/>
</svg>
