<svg width="33" height="33" viewBox="0 0 33 33" fill="none" xmlns="http://www.w3.org/2000/svg">
<path d="M16.5 3.14001V29.14" stroke="#FA8232" stroke-width="2" stroke-linecap="round" stroke-linejoin="round"/>
<path d="M23.5 11.14C23.5 10.4834 23.3707 9.83323 23.1194 9.2266C22.8681 8.61997 22.4998 8.06877 22.0355 7.60448C21.5712 7.14019 21.02 6.77189 20.4134 6.52062C19.8068 6.26934 19.1566 6.14001 18.5 6.14001H14C12.6739 6.14001 11.4021 6.6668 10.4645 7.60448C9.52678 8.54216 9 9.81393 9 11.14C9 12.4661 9.52678 13.7379 10.4645 14.6755C11.4021 15.6132 12.6739 16.14 14 16.14H19.5C20.8261 16.14 22.0979 16.6668 23.0355 17.6045C23.9732 18.5422 24.5 19.8139 24.5 21.14C24.5 22.4661 23.9732 23.7379 23.0355 24.6755C22.0979 25.6132 20.8261 26.14 19.5 26.14H13.5C12.1739 26.14 10.9021 25.6132 9.96447 24.6755C9.02678 23.7379 8.5 22.4661 8.5 21.14" stroke="#FA8232" stroke-width="2" stroke-linecap="round" stroke-linejoin="round"/>
</svg>
