<svg width="14" height="15" viewBox="0 0 14 15" fill="none" xmlns="http://www.w3.org/2000/svg">
<path d="M1 2.95833H5.66667M5.66667 2.95833C5.66667 3.69471 6.26362 4.29167 7 4.29167C7.73638 4.29167 8.33333 3.69471 8.33333 2.95833M5.66667 2.95833C5.66667 2.22195 6.26362 1.625 7 1.625C7.73638 1.625 8.33333 2.22195 8.33333 2.95833M8.33333 2.95833H13M1 7.625H7M11.6667 7.625H13M11.6667 7.625C11.6667 8.36138 11.0697 8.95833 10.3333 8.95833C9.597 8.95833 9 8.36138 9 7.625C9 6.88862 9.597 6.29167 10.3333 6.29167C11.0697 6.29167 11.6667 6.88862 11.6667 7.625ZM7 12.2917H13M1 12.2917H2.33333M2.33333 12.2917C2.33333 13.028 2.93029 13.625 3.66667 13.625C4.40305 13.625 5 13.028 5 12.2917C5 11.5553 4.40305 10.9583 3.66667 10.9583C2.93029 10.9583 2.33333 11.5553 2.33333 12.2917Z" stroke="#2B3674" stroke-width="1.5" stroke-linecap="round"/>
</svg>
