<svg width="24" height="24" viewBox="0 0 24 24" fill="none" xmlns="http://www.w3.org/2000/svg">
<path d="M22.5656 11.4188L20.25 12.5719L17.25 6.83438L19.5938 5.6625C19.7679 5.57372 19.9701 5.5574 20.1563 5.61711C20.3425 5.67682 20.4975 5.80772 20.5875 5.98125L22.8937 10.3969C22.9405 10.4853 22.9691 10.5821 22.9779 10.6817C22.9867 10.7813 22.9755 10.8817 22.9449 10.9769C22.9143 11.0721 22.865 11.1603 22.7999 11.2361C22.7348 11.312 22.6551 11.3741 22.5656 11.4188V11.4188Z" stroke="#FA8232" stroke-width="1.5" stroke-linecap="round" stroke-linejoin="round"/>
<path d="M3.74984 12.4781L1.43422 11.3156C1.34506 11.2719 1.26559 11.2107 1.20055 11.1357C1.13551 11.0607 1.08622 10.9734 1.05561 10.8789C1.02499 10.7844 1.01369 10.6848 1.02236 10.5859C1.03103 10.487 1.05951 10.3908 1.10609 10.3031L3.41234 5.8875C3.50256 5.71409 3.65691 5.58276 3.84253 5.52147C4.02814 5.46018 4.23035 5.47378 4.40609 5.55937L6.74984 6.73125L3.74984 12.4781Z" stroke="#FA8232" stroke-width="1.5" stroke-linecap="round" stroke-linejoin="round"/>
<path d="M20.25 12.5719L18.75 14.3344L15.3 17.7844C15.206 17.8723 15.092 17.9361 14.968 17.9704C14.8439 18.0047 14.7133 18.0084 14.5875 17.9813L9.15 16.6219C9.05067 16.5942 8.95812 16.5463 8.87812 16.4813L3.75 12.4781" stroke="#FA8232" stroke-width="1.5" stroke-linecap="round" stroke-linejoin="round"/>
<path d="M18.7501 14.3344L14.6251 11.3344L13.4251 12.2344C12.9052 12.6224 12.2738 12.832 11.6251 12.832C10.9763 12.832 10.345 12.6224 9.82508 12.2344L9.31883 11.85C9.23323 11.7849 9.16242 11.7024 9.1111 11.6079C9.05978 11.5134 9.02911 11.4091 9.02113 11.3018C9.01316 11.1946 9.02805 11.0869 9.06483 10.9858C9.1016 10.8847 9.15942 10.7927 9.23446 10.7156L12.9095 7.05C12.9785 6.98131 13.0604 6.9269 13.1505 6.8899C13.2406 6.8529 13.3371 6.83403 13.4345 6.83438H17.2501" stroke="#FA8232" stroke-width="1.5" stroke-linecap="round" stroke-linejoin="round"/>
<path d="M6.80615 6.73125L11.6155 5.325C11.7864 5.27599 11.9692 5.28928 12.1312 5.3625L15.3749 6.83437" stroke="#FA8232" stroke-width="1.5" stroke-linecap="round" stroke-linejoin="round"/>
<path d="M10.5 19.9594L7.67813 19.2469C7.56313 19.2209 7.45666 19.166 7.36875 19.0875L5.25 17.25" stroke="#FA8232" stroke-width="1.5" stroke-linecap="round" stroke-linejoin="round"/>
</svg>
