<svg width="31" height="30" viewBox="0 0 31 30" fill="none" xmlns="http://www.w3.org/2000/svg">
<path d="M27.4094 11.6625C27.2782 10.5969 26.0969 3.35939 18.1 2.27501L13.9969 2.26876V1.90314C13.9969 1.41251 13.5969 1.01564 13.1094 1.01564H11.1219C10.6313 1.01564 10.2344 1.41564 10.2344 1.90314V4.11564C9.94244 4.17599 9.68017 4.3351 9.49177 4.56619C9.30336 4.79728 9.20034 5.08623 9.20005 5.38439V9.88439C4.6063 11.1656 1.22817 15.3781 1.22817 20.3688C1.22817 23.4781 2.56255 26.4438 4.89067 28.5094C6.37505 29.825 8.12817 30.0031 10 30.0031C10.3438 30.0031 10.6875 29.9969 11.0375 29.9906C11.7032 29.9781 12.3938 29.9781 13.0594 29.9875C15.4157 30.0188 17.6407 30.0469 19.4375 28.4031C21.6875 26.3469 22.9813 23.4188 22.9813 20.3719C22.9813 15.3875 19.6125 11.1813 15.0313 9.90001V5.39689C15.0313 4.77189 14.5844 4.24689 13.9969 4.12814V3.50626H17.9782C24.775 4.44689 25.9813 10.2406 26.1719 11.6156C24.625 11.925 23.4344 13.6313 23.4344 15.6906C23.4344 17.9688 24.8875 19.8188 26.6719 19.8188C28.4563 19.8188 29.9094 17.9656 29.9094 15.6906C29.9094 13.7375 28.8407 12.1 27.4094 11.675V11.6625ZM11.1469 1.94064H13.075V4.09689H11.1469V1.94064ZM10.4188 5.39064C10.4188 5.35314 10.45 5.32189 10.4875 5.32189H13.7344C13.7719 5.32189 13.8032 5.35314 13.8032 5.39064V9.62501C13.25 9.53751 12.6813 9.49064 12.1032 9.49064C11.525 9.49064 10.9688 9.53439 10.4188 9.62189V5.39064ZM13.0782 28.4531C12.3969 28.4438 11.6875 28.4469 11.0094 28.4563C8.97192 28.4906 7.21255 28.5219 5.9063 27.3594C5.37157 26.8847 4.8934 26.3499 4.4813 25.7656C5.1813 25.5594 6.07192 25.2469 6.5563 24.875L6.65942 24.7969C7.38755 24.2344 8.60317 23.2906 10.9063 24.5313C11.5813 24.8938 12.15 25.2781 12.6969 25.65C14.0625 26.5719 15.3719 27.45 17.8469 27.6875C16.5625 28.4938 14.9313 28.4719 13.0782 28.45V28.4531ZM21.4469 20.3688C21.4469 22.6406 20.6094 24.8344 19.1282 26.5281C16.1657 26.5156 14.9282 25.6813 13.3844 24.6375C12.8094 24.25 12.2157 23.85 11.4875 23.4563C8.48442 21.8344 6.7438 23.1844 5.90942 23.8313L5.81255 23.9063C5.45317 24.1813 4.5563 24.4844 3.81567 24.6844C3.12817 23.3656 2.7563 21.8875 2.7563 20.3688C2.7563 15.2156 6.94692 11.025 12.1 11.025C17.2532 11.025 21.4438 15.2156 21.4438 20.3688H21.4469ZM26.6688 18.5875C25.5782 18.5875 24.6563 17.2563 24.6563 15.6844C24.6563 14.1125 25.5782 12.7813 26.6688 12.7813C27.7594 12.7813 28.6813 14.1125 28.6813 15.6844C28.6813 17.2563 27.7594 18.5875 26.6688 18.5875ZM5.90317 1.58751L8.31567 2.24689C8.3563 2.25939 8.39692 2.26251 8.43755 2.26251C8.64067 2.26251 8.82505 2.12814 8.8813 1.92501C8.94692 1.68126 8.80317 1.42814 8.55942 1.35939L6.14692 0.700011C5.90317 0.634386 5.65005 0.778136 5.5813 1.02189C5.51567 1.26564 5.65942 1.51876 5.90317 1.58751ZM8.30317 3.46564L6.0438 4.01251C5.79692 4.07189 5.64692 4.32189 5.7063 4.56564C5.72035 4.62459 5.7459 4.68018 5.78149 4.72923C5.81708 4.77828 5.862 4.81982 5.91368 4.85147C5.96536 4.88312 6.02279 4.90425 6.08265 4.91365C6.14252 4.92305 6.20365 4.92054 6.26255 4.90626L8.52192 4.35939C8.7688 4.30001 8.9188 4.05001 8.85942 3.80626C8.80005 3.55939 8.5563 3.40626 8.30317 3.46876V3.46564ZM4.1438 4.48439L3.17817 4.73751C2.9313 4.80314 2.78755 5.05314 2.85005 5.30001C2.90317 5.50626 3.09067 5.64376 3.2938 5.64376C3.3313 5.64376 3.37192 5.63751 3.41255 5.62814L4.37817 5.37501C4.62505 5.30939 4.7688 5.05939 4.7063 4.81251C4.69108 4.75393 4.66442 4.69895 4.62787 4.65071C4.59131 4.60247 4.54558 4.56194 4.4933 4.53144C4.44102 4.50095 4.38323 4.48109 4.32325 4.47301C4.26327 4.46494 4.20228 4.4688 4.1438 4.48439ZM6.56255 2.83439C6.56255 2.58126 6.3563 2.37501 6.10317 2.37501H1.15005C0.896924 2.37501 0.690674 2.58126 0.690674 2.83439C0.690674 3.08751 0.896924 3.29376 1.15005 3.29376H6.10005C6.35317 3.29376 6.55942 3.08751 6.55942 2.83439H6.56255ZM3.12817 0.887511L4.0688 1.25626C4.12505 1.27814 4.1813 1.28751 4.23755 1.28751C4.42192 1.28751 4.5938 1.17814 4.66567 0.996886C4.75942 0.759386 4.64067 0.493761 4.4063 0.400011L3.46255 0.0312613C3.22817 -0.0593637 2.95942 0.0562613 2.86567 0.290636C2.77192 0.528136 2.89067 0.793761 3.12505 0.887511H3.12817Z" fill="#1E1218" stroke="#1E1218" stroke-width="0.3125"/>
</svg>
