<svg width="30" height="30" viewBox="0 0 30 30" fill="none" xmlns="http://www.w3.org/2000/svg">
<path d="M28.0375 7.76562L18.4531 2.91875C18.4656 2.9 18.4812 2.88437 18.4906 2.86562C18.6375 2.57187 18.5187 2.2125 18.225 2.06562L15.4469 0.674999C15.15 0.528124 14.7937 0.646874 14.6469 0.940624C14.6406 0.956249 14.6375 0.968749 14.6312 0.984374L14.0469 0.690624C12.9031 0.109374 11.4969 0.368749 10.6312 1.31875L5.54687 6.9C4.74687 7.77812 4.43437 8.99375 4.71249 10.1469C4.99062 11.3 5.82187 12.2406 6.93437 12.6562L9.62187 13.6625L8.98437 15.3625L8.31249 15.1125C6.39062 14.3937 4.20312 15.2094 3.22499 17.0156L0.499992 22.0375C-0.0687582 23.0875 -0.156258 24.3344 0.262492 25.4562C0.681242 26.5781 1.56249 27.4594 2.68437 27.8812L6.61562 29.3562C7.08437 29.5312 7.57812 29.6187 8.06874 29.6187C8.74687 29.6187 9.42499 29.45 10.0344 29.1219C11.0875 28.5531 11.8406 27.5562 12.1031 26.3906L13.3531 20.8156C13.8031 18.8125 12.6937 16.7594 10.7687 16.0375L10.1 15.7875L10.7375 14.0875L24.25 19.1531C24.6562 19.3062 25.0812 19.3812 25.5062 19.3812C26.3387 19.3804 27.1447 19.0894 27.7858 18.5584C28.4269 18.0274 28.8629 17.2896 29.0187 16.4719L29.9406 11.6312C30.2375 10.0719 29.4562 8.4875 28.0406 7.77187L28.0375 7.76562ZM2.71249 26.5781C2.098 26.2404 1.62467 25.6939 1.37812 25.0375C1.23082 24.6437 1.16966 24.223 1.19877 23.8036C1.22788 23.3842 1.34658 22.9759 1.54687 22.6062L4.27187 17.5812C4.91249 16.3969 6.28749 15.8125 7.56874 16.1312C6.14062 17.0937 4.71874 19.4062 3.79062 21.8812C3.17187 23.5312 2.79687 25.175 2.70937 26.5781H2.71249ZM10.65 17.2875C11.8281 17.8906 12.4812 19.2344 12.1875 20.55L10.9375 26.125C10.75 26.9562 10.2156 27.6625 9.46562 28.0687C8.71562 28.475 7.83124 28.5344 7.03437 28.2344L3.88749 27.0562C3.90937 25.6969 4.27187 24.0094 4.91249 22.3031C6.30937 18.575 8.29999 16.6062 9.04687 16.8875C9.32499 16.9906 9.64374 17.5844 9.62812 18.9094C9.60937 20.2719 9.24687 21.9687 8.60312 23.6844C8.23124 24.6781 7.79374 25.6031 7.30624 26.4281C7.13749 26.7125 7.23124 27.0781 7.51562 27.2469C7.79999 27.4156 8.16562 27.3187 8.33437 27.0375C8.85624 26.15 9.32499 25.1656 9.72187 24.1062C10.4125 22.2625 10.8031 20.4219 10.8219 18.925C10.8312 18.25 10.7656 17.7156 10.65 17.2875ZM28.4719 11.3469L27.55 16.1875C27.4932 16.4857 27.372 16.768 27.195 17.0146C27.018 17.2612 26.7893 17.4663 26.525 17.6156C26.2604 17.7648 25.9662 17.8541 25.6633 17.8774C25.3604 17.9006 25.0561 17.8571 24.7719 17.75L7.45624 11.2594C6.79999 11.0125 6.32499 10.4812 6.16249 9.79687C5.99687 9.1125 6.17499 8.425 6.64687 7.90312L11.7312 2.32187C11.8604 2.18038 12.0178 2.06751 12.1933 1.99054C12.3688 1.91357 12.5584 1.87421 12.75 1.875C12.9594 1.875 13.1719 1.92187 13.3687 2.02187L27.3625 9.09687C27.7656 9.30159 28.0914 9.63162 28.2909 10.0374C28.4904 10.4431 28.5528 10.9026 28.4687 11.3469H28.4719ZM25.6219 10.1312L14.8719 4.65C14.6186 4.52013 14.3421 4.44167 14.0584 4.41915C13.7747 4.39662 13.4893 4.43047 13.2187 4.51875C12.6687 4.69687 12.2187 5.08125 11.9562 5.59687L11.8125 5.87812C11.2687 6.94375 11.6937 8.25 12.7594 8.79375L23.5094 14.275C23.8187 14.4344 24.1531 14.5125 24.4906 14.5125C24.7156 14.5125 24.9406 14.4781 25.1625 14.4062C25.7125 14.2281 26.1625 13.8469 26.425 13.3312L26.5687 13.05C27.1125 11.9844 26.6875 10.6781 25.6219 10.1344V10.1312ZM25.5062 12.5031L25.3625 12.7844C25.245 13.0141 25.0411 13.1879 24.7957 13.2676C24.5502 13.3472 24.2832 13.3263 24.0531 13.2094C24.0531 13.2094 13.3031 7.72812 13.3031 7.72812C13.0734 7.6106 12.8996 7.40675 12.8199 7.16129C12.7403 6.91584 12.7612 6.6488 12.8781 6.41875L13.0219 6.1375C13.1406 5.90625 13.3406 5.73437 13.5875 5.65312C13.6875 5.62187 13.7875 5.60625 13.8875 5.60625C14.0406 5.60625 14.1906 5.64062 14.3281 5.7125L25.0781 11.1937C25.5562 11.4375 25.7469 12.025 25.5031 12.5031H25.5062Z" fill="#1E1218" stroke="#1E1218" stroke-width="0.3125"/>
</svg>
