<svg width="22" height="22" viewBox="0 0 22 22" fill="none" xmlns="http://www.w3.org/2000/svg">
<g clip-path="url(#clip0_934_21236)">
<path d="M1.83398 11L1.05312 10.3753L0.55336 11L1.05312 11.6247L1.83398 11ZM10.084 12C10.6363 12 11.084 11.5523 11.084 11C11.084 10.4477 10.6363 10 10.084 10V12ZM4.71978 5.79199L1.05312 10.3753L2.61485 11.6247L6.28152 7.04138L4.71978 5.79199ZM1.05312 11.6247L4.71978 16.208L6.28152 14.9587L2.61485 10.3753L1.05312 11.6247ZM1.83398 12H10.084V10H1.83398V12Z" fill="#F55425"/>
<path d="M9.16602 7.45425V7.05515C9.16602 5.43681 9.16602 4.62764 9.63998 4.06815C10.1139 3.50866 10.9121 3.37563 12.5084 3.10958L13.1796 2.99771C16.4227 2.4572 18.0443 2.18694 19.1051 3.08563C20.166 3.98433 20.166 5.62825 20.166 8.91608V13.0839C20.166 16.3717 20.166 18.0156 19.1051 18.9143C18.0443 19.813 16.4227 19.5428 13.1796 19.0022L12.5084 18.8904C10.9121 18.6243 10.1139 18.4913 9.63998 17.9318C9.16602 17.3723 9.16602 16.5631 9.16602 14.9448V14.7271" stroke="#F55425" stroke-width="2"/>
</g>
<defs>
<clipPath id="clip0_934_21236">
<rect width="22" height="22" fill="white"/>
</clipPath>
</defs>
</svg>
