<svg width="120" height="28" viewBox="0 0 120 28" fill="none" xmlns="http://www.w3.org/2000/svg">
<g clip-path="url(#clip0_2_8)">
<g clip-path="url(#clip1_2_8)">
<g clip-path="url(#clip2_2_8)">
<path d="M0.00631714 13.5392C0.00631714 12.0826 0.299306 10.8102 0.885282 9.72195C1.488 8.63371 2.31675 7.79658 3.37151 7.21061C4.44301 6.62463 5.6652 6.33164 7.03806 6.33164C8.79596 6.33164 10.261 6.79205 11.4329 7.71288C12.6216 8.63371 13.4001 9.93121 13.7684 11.6055H9.19778C8.81275 10.5339 8.06768 9.99821 6.96272 9.99821C6.17584 9.99821 5.548 10.308 5.07922 10.9274C4.61043 11.5301 4.37604 12.4007 4.37604 13.5392C4.37604 14.6776 4.61043 15.5566 5.07922 16.1761C5.548 16.7788 6.17584 17.0802 6.96272 17.0802C8.06768 17.0802 8.81275 16.5444 9.19778 15.4729H13.7684C13.4001 17.1137 12.6216 18.4028 11.4329 19.3404C10.2442 20.2779 8.77925 20.7467 7.03806 20.7467C5.6652 20.7467 4.44301 20.4537 3.37151 19.8677C2.31675 19.2818 1.488 18.4447 0.885282 17.3564C0.299306 16.2682 0.00631714 14.9958 0.00631714 13.5392Z" fill="#2B3674"/>
<path d="M37.7319 20.7467C36.5097 20.7467 35.4214 20.5375 34.4672 20.1189C33.5129 19.7003 32.7594 19.1311 32.2069 18.4112C31.6545 17.6745 31.3447 16.8541 31.2777 15.9501H35.5219C35.5721 16.4356 35.7982 16.8291 36.2 17.1304C36.6018 17.4318 37.0957 17.5824 37.6816 17.5824C38.2174 17.5824 38.6276 17.482 38.9122 17.2811C39.2136 17.0634 39.3642 16.7872 39.3642 16.4523C39.3642 16.0505 39.155 15.7575 38.7365 15.5733C38.3179 15.3724 37.6398 15.1548 36.7022 14.9204C35.6977 14.686 34.8606 14.4432 34.1909 14.1921C33.5212 13.9242 32.9436 13.5141 32.4581 12.9616C31.9726 12.3923 31.7298 11.6305 31.7298 10.6763C31.7298 9.87265 31.9475 9.14437 32.3828 8.49136C32.8348 7.82172 33.4877 7.29432 34.3416 6.90925C35.2122 6.52418 36.2419 6.33164 37.4305 6.33164C39.1885 6.33164 40.5697 6.76694 41.5742 7.63753C42.5955 8.50815 43.1815 9.66338 43.3322 11.1032H39.3642C39.2973 10.6176 39.0796 10.2326 38.7113 9.948C38.3597 9.66338 37.891 9.52104 37.305 9.52104C36.8027 9.52104 36.4176 9.62146 36.1497 9.82237C35.8819 10.0066 35.7479 10.266 35.7479 10.6009C35.7479 11.0027 35.9572 11.3041 36.3758 11.505C36.8111 11.7059 37.4808 11.9068 38.3848 12.1077C39.4229 12.3756 40.2684 12.6435 40.9213 12.9113C41.5742 13.1625 42.1435 13.581 42.629 14.167C43.1313 14.7363 43.3908 15.5064 43.4075 16.4775C43.4075 17.2978 43.1731 18.0345 42.7043 18.6874C42.2523 19.3237 41.591 19.8259 40.7204 20.1942C39.8666 20.5625 38.8704 20.7467 37.7319 20.7467Z" fill="#2B3674"/>
<path d="M53.8451 16.9043V20.5458H51.6602C50.1032 20.5458 48.8894 20.1691 48.0188 19.4157C47.1481 18.6456 46.7129 17.3983 46.7129 15.6738V10.0986H45.0052V6.53255H46.7129V3.11713H51.0072V6.53255H53.8199V10.0986H51.0072V15.724C51.0072 16.1426 51.1077 16.444 51.3086 16.6282C51.5095 16.8123 51.8444 16.9043 52.3132 16.9043H53.8451Z" fill="#2B3674"/>
<path d="M60.5315 8.51651C60.9501 7.86357 61.5277 7.33618 62.2643 6.93436C63.001 6.53255 63.8632 6.33164 64.851 6.33164C66.0062 6.33164 67.0526 6.62463 67.9902 7.21061C68.9278 7.79658 69.6644 8.63371 70.2002 9.72195C70.7527 10.8102 71.0289 12.0742 71.0289 13.5141C71.0289 14.9539 70.7527 16.2263 70.2002 17.3313C69.6644 18.4195 68.9278 19.265 67.9902 19.8677C67.0526 20.4537 66.0062 20.7467 64.851 20.7467C63.88 20.7467 63.0178 20.5458 62.2643 20.144C61.5277 19.7422 60.9501 19.2232 60.5315 18.5869V27.226H56.2371V6.53255H60.5315V8.51651ZM66.6592 13.5141C66.6592 12.4426 66.3578 11.6055 65.7551 11.0027C65.1691 10.3832 64.4408 10.0736 63.5702 10.0736C62.7164 10.0736 61.9881 10.3832 61.3854 11.0027C60.7994 11.6222 60.5064 12.4677 60.5064 13.5392C60.5064 14.6107 60.7994 15.4562 61.3854 16.0756C61.9881 16.6951 62.7164 17.0048 63.5702 17.0048C64.4241 17.0048 65.1524 16.6951 65.7551 16.0756C66.3578 15.4394 66.6592 14.5856 66.6592 13.5141Z" fill="#2B3674"/>
<path d="M77.576 8.86811C78.0788 8.09798 78.7066 7.49523 79.4594 7.05993C80.2129 6.60789 81.0499 6.38187 81.9713 6.38187V10.9274H80.7907C79.7193 10.9274 78.9159 11.1618 78.3802 11.6305C77.8438 12.0826 77.576 12.8863 77.576 14.0414V20.5458H73.2822V6.53255H77.576V8.86811Z" fill="#2B3674"/>
<path d="M86.1837 5.07598C85.4302 5.07598 84.8102 4.85833 84.3253 4.42303C83.8561 3.97098 83.6218 3.41849 83.6218 2.76555C83.6218 2.09585 83.8561 1.54336 84.3253 1.10806C84.8102 0.656021 85.4302 0.43 86.1837 0.43C86.92 0.43 87.5228 0.656021 87.9913 1.10806C88.477 1.54336 88.7198 2.09585 88.7198 2.76555C88.7198 3.41849 88.477 3.97098 87.9913 4.42303C87.5228 4.85833 86.92 5.07598 86.1837 5.07598ZM88.3177 6.53255V20.5458H84.0239V6.53255H88.3177Z" fill="#2B3674"/>
<path d="M90.5761 13.5392C90.5761 12.0826 90.8696 10.8102 91.4553 9.72195C92.0581 8.63371 92.8865 7.79658 93.9414 7.21061C95.0127 6.62463 96.2355 6.33164 97.6082 6.33164C99.3659 6.33164 100.831 6.79205 102.003 7.71288C103.192 8.63371 103.97 9.93121 104.338 11.6055H99.768C99.383 10.5339 98.6374 9.99821 97.5325 9.99821C96.7461 9.99821 96.1183 10.308 95.6491 10.9274C95.1806 11.5301 94.9463 12.4007 94.9463 13.5392C94.9463 14.6776 95.1806 15.5566 95.6491 16.1761C96.1183 16.7788 96.7461 17.0802 97.5325 17.0802C98.6374 17.0802 99.383 16.5444 99.768 15.4729H104.338C103.97 17.1137 103.192 18.4028 102.003 19.3404C100.814 20.2779 99.3494 20.7467 97.6082 20.7467C96.2355 20.7467 95.0127 20.4537 93.9414 19.8677C92.8865 19.2818 92.0581 18.4447 91.4553 17.3564C90.8696 16.2682 90.5761 14.9958 90.5761 13.5392Z" fill="#2B3674"/>
<path d="M119.845 13.3131C119.845 13.715 119.82 14.1336 119.77 14.5688H110.051C110.118 15.4394 110.394 16.1091 110.88 16.5779C111.382 17.03 111.993 17.2559 112.713 17.2559C113.784 17.2559 114.529 16.8039 114.948 15.8999H119.519C119.284 16.8206 118.857 17.6494 118.238 18.386C117.635 19.1227 116.873 19.7003 115.953 20.1189C115.032 20.5375 114.002 20.7467 112.864 20.7467C111.491 20.7467 110.268 20.4537 109.197 19.8677C108.126 19.2818 107.289 18.4447 106.686 17.3564C106.083 16.2682 105.782 14.9958 105.782 13.5392C105.782 12.0826 106.074 10.8102 106.661 9.72195C107.264 8.63371 108.101 7.79658 109.172 7.21061C110.243 6.62463 111.474 6.33164 112.864 6.33164C114.22 6.33164 115.425 6.61626 116.48 7.18549C117.535 7.75473 118.355 8.56671 118.941 9.62146C119.544 10.6763 119.845 11.9068 119.845 13.3131ZM115.451 12.183C115.451 11.4464 115.199 10.8604 114.697 10.4251C114.195 9.98985 113.567 9.77216 112.814 9.77216C112.094 9.77216 111.482 9.98142 110.98 10.4C110.495 10.8185 110.193 11.4129 110.076 12.183H115.451Z" fill="#2B3674"/>
<path d="M19.5717 15.7231H26.7125V18.8278H19.5717V15.7231Z" fill="#2B3674"/>
<path d="M26.9609 16.3751C26.9609 15.3541 26.5586 14.3749 25.8424 13.6529C25.1262 12.9309 24.1549 12.5253 23.1422 12.5253C22.1293 12.5253 21.158 12.9309 20.4419 13.6529C19.7257 14.3749 19.3234 15.3541 19.3234 16.3751H23.1422H26.9609Z" fill="#2B3674"/>
<path fill-rule="evenodd" clip-rule="evenodd" d="M23.1577 17.3376C25.3439 17.3376 27.1161 15.5653 27.1161 13.3791C27.1161 11.1929 25.3439 9.42062 23.1577 9.42062C20.9715 9.42062 19.1992 11.1929 19.1992 13.3791C19.1992 15.5653 20.9715 17.3376 23.1577 17.3376ZM23.1577 20.4422C27.0585 20.4422 30.2208 17.2799 30.2208 13.3791C30.2208 9.47826 27.0585 6.31596 23.1577 6.31596C19.2568 6.31596 16.0945 9.47826 16.0945 13.3791C16.0945 17.2799 19.2568 20.4422 23.1577 20.4422Z" fill="#2B3674"/>
<path d="M86.1372 5.13878C87.5459 5.13878 88.6878 4.08469 88.6878 2.7844C88.6878 1.48412 87.5459 0.430023 86.1372 0.430023C84.7286 0.430023 83.5867 1.48412 83.5867 2.7844C83.5867 4.08469 84.7286 5.13878 86.1372 5.13878Z" fill="#F55425"/>
</g>
</g>
</g>
<defs>
<clipPath id="clip0_2_8">
<rect width="120" height="27.14" fill="white" transform="translate(0 0.43)"/>
</clipPath>
<clipPath id="clip1_2_8">
<rect width="120" height="27.14" fill="white" transform="translate(0 0.43)"/>
</clipPath>
<clipPath id="clip2_2_8">
<rect width="119.987" height="27.14" fill="white" transform="translate(0.00631714 0.43)"/>
</clipPath>
</defs>
</svg>
