<svg width="120" height="32" viewBox="0 0 120 32" fill="none" xmlns="http://www.w3.org/2000/svg">
<g clip-path="url(#clip0_2_1167)">
<g clip-path="url(#clip1_2_1167)">
<path d="M0 15.5391C0 14.0824 0.29302 12.8098 0.879057 11.7215C1.48184 10.6331 2.31067 9.7959 3.36554 9.20987C4.43716 8.62383 5.65948 8.33081 7.03249 8.33081C8.79057 8.33081 10.2557 8.79127 11.4278 9.71219C12.6166 10.6331 13.3952 11.9308 13.7636 13.6052H9.19243C8.80736 12.5335 8.06221 11.9978 6.95714 11.9978C6.17017 11.9978 5.54226 12.3075 5.07344 12.927C4.6046 13.5298 4.37019 14.4005 4.37019 15.5391C4.37019 16.6777 4.6046 17.5568 5.07344 18.1763C5.54226 18.779 6.17017 19.0805 6.95714 19.0805C8.06221 19.0805 8.80736 18.5447 9.19243 17.473H13.7636C13.3952 19.114 12.6166 20.4033 11.4278 21.3409C10.2389 22.2785 8.77386 22.7474 7.03249 22.7474C5.65948 22.7474 4.43716 22.4544 3.36554 21.8683C2.31067 21.2823 1.48184 20.4451 0.879057 19.3568C0.29302 18.2684 0 16.9958 0 15.5391Z" fill="white"/>
<path d="M37.7296 22.7474C36.5072 22.7474 35.4189 22.5381 34.4645 22.1195C33.5101 21.7009 32.7566 21.1316 32.204 20.4116C31.6515 19.6749 31.3417 18.8544 31.2747 17.9503H35.5194C35.5696 18.4358 35.7956 18.8293 36.1975 19.1307C36.5994 19.4321 37.0933 19.5828 37.6793 19.5828C38.2151 19.5828 38.6254 19.4823 38.91 19.2814C39.2114 19.0637 39.3621 18.7875 39.3621 18.4525C39.3621 18.0507 39.1528 17.7577 38.7342 17.5735C38.3156 17.3725 37.6374 17.1549 36.6998 16.9205C35.6951 16.686 34.8579 16.4433 34.1882 16.1921C33.5184 15.9242 32.9408 15.514 32.4552 14.9615C31.9696 14.3921 31.7269 13.6303 31.7269 12.6759C31.7269 11.8722 31.9445 11.1438 32.3799 10.4908C32.8319 9.82105 33.4849 9.29359 34.3389 8.90848C35.2096 8.52337 36.2394 8.33081 37.4281 8.33081C39.1863 8.33081 40.5676 8.76615 41.5723 9.63683C42.5937 10.5075 43.1797 11.6629 43.3304 13.1028H39.3621C39.2951 12.6173 39.0774 12.2322 38.7091 11.9475C38.3574 11.6629 37.8886 11.5205 37.3026 11.5205C36.8003 11.5205 36.4151 11.621 36.1472 11.8219C35.8794 12.0061 35.7454 12.2656 35.7454 12.6005C35.7454 13.0024 35.9547 13.3038 36.3733 13.5047C36.8086 13.7056 37.4784 13.9065 38.3826 14.1075C39.4207 14.3754 40.2663 14.6433 40.9193 14.9112C41.5723 15.1624 42.1416 15.581 42.6271 16.167C43.1295 16.7363 43.389 17.5065 43.4058 18.4777C43.4058 19.2981 43.1714 20.0349 42.7025 20.6879C42.2504 21.3242 41.5891 21.8265 40.7184 22.1948C39.8644 22.5632 38.8681 22.7474 37.7296 22.7474Z" fill="white"/>
<path d="M53.8444 18.9046V22.5465H51.6593C50.1021 22.5465 48.8882 22.1698 48.0175 21.4163C47.1468 20.6461 46.7115 19.3986 46.7115 17.674V12.0982H45.0035V8.53175H46.7115V5.11597H51.0063V8.53175H53.8193V12.0982H51.0063V17.7242C51.0063 18.1428 51.1068 18.4442 51.3077 18.6284C51.5086 18.8126 51.8435 18.9046 52.3123 18.9046H53.8444Z" fill="white"/>
<path d="M60.5316 10.5159C60.9501 9.8629 61.5278 9.33545 62.2646 8.9336C63.0013 8.53174 63.8636 8.33081 64.8515 8.33081C66.0068 8.33081 67.0533 8.62383 67.991 9.20987C68.9287 9.7959 69.6654 10.6331 70.2012 11.7215C70.7538 12.8098 71.0301 14.074 71.0301 15.514C71.0301 16.954 70.7538 18.2265 70.2012 19.3316C69.6654 20.42 68.9287 21.2655 67.991 21.8683C67.0533 22.4544 66.0068 22.7474 64.8515 22.7474C63.8803 22.7474 63.0181 22.5465 62.2646 22.1446C61.5278 21.7428 60.9501 21.2237 60.5316 20.5874V29.2273H56.2367V8.53174H60.5316V10.5159ZM66.6598 15.514C66.6598 14.4424 66.3585 13.6052 65.7557 13.0024C65.1696 12.3828 64.4413 12.0731 63.5706 12.0731C62.7166 12.0731 61.9883 12.3828 61.3855 13.0024C60.7995 13.6219 60.5064 14.4675 60.5064 15.5391C60.5064 16.6108 60.7995 17.4563 61.3855 18.0758C61.9883 18.6953 62.7166 19.0051 63.5706 19.0051C64.4246 19.0051 65.1529 18.6953 65.7557 18.0758C66.3585 17.4395 66.6598 16.5856 66.6598 15.514Z" fill="white"/>
<path d="M77.5779 10.8674C78.0807 10.0971 78.7086 9.49433 79.4614 9.05899C80.215 8.6069 81.0521 8.38086 81.9736 8.38086V12.9269H80.7929C79.7214 12.9269 78.9179 13.1613 78.3821 13.6301C77.8457 14.0822 77.5779 14.8859 77.5779 16.0412V22.5463H73.2836V8.53155H77.5779V10.8674Z" fill="white"/>
<path d="M86.1864 7.07493C85.4328 7.07493 84.8128 6.85726 84.3278 6.42192C83.8586 5.96982 83.6243 5.41727 83.6243 4.76426C83.6243 4.0945 83.8586 3.54195 84.3278 3.1066C84.8128 2.65451 85.4328 2.42847 86.1864 2.42847C86.9228 2.42847 87.5257 2.65451 87.9943 3.1066C88.48 3.54195 88.7228 4.0945 88.7228 4.76426C88.7228 5.41727 88.48 5.96982 87.9943 6.42192C87.5257 6.85726 86.9228 7.07493 86.1864 7.07493ZM88.3207 8.53166V22.5464H84.0264V8.53166H88.3207Z" fill="white"/>
<path d="M90.5793 15.5391C90.5793 14.0824 90.8729 12.8098 91.4586 11.7215C92.0614 10.6331 92.89 9.7959 93.945 9.20987C95.0164 8.62383 96.2393 8.33081 97.6121 8.33081C99.37 8.33081 100.835 8.79127 102.007 9.71219C103.196 10.6331 103.975 11.9308 104.343 13.6052H99.7721C99.3871 12.5335 98.6414 11.9978 97.5364 11.9978C96.75 11.9978 96.1221 12.3075 95.6529 12.927C95.1843 13.5298 94.95 14.4005 94.95 15.5391C94.95 16.6777 95.1843 17.5568 95.6529 18.1763C96.1221 18.779 96.75 19.0805 97.5364 19.0805C98.6414 19.0805 99.3871 18.5447 99.7721 17.473H104.343C103.975 19.114 103.196 20.4033 102.007 21.3409C100.819 22.2785 99.3536 22.7474 97.6121 22.7474C96.2393 22.7474 95.0164 22.4544 93.945 21.8683C92.89 21.2823 92.0614 20.4451 91.4586 19.3568C90.8729 18.2684 90.5793 16.9958 90.5793 15.5391Z" fill="white"/>
<path d="M119.851 15.313C119.851 15.7149 119.826 16.1335 119.776 16.5688H110.056C110.123 17.4395 110.399 18.1093 110.885 18.5781C111.387 19.0303 111.999 19.2563 112.719 19.2563C113.79 19.2563 114.535 18.8042 114.954 17.9H119.525C119.291 18.8209 118.864 19.6498 118.244 20.3865C117.641 21.1233 116.879 21.7009 115.959 22.1195C115.038 22.5381 114.008 22.7474 112.869 22.7474C111.496 22.7474 110.274 22.4544 109.202 21.8683C108.131 21.2823 107.294 20.4451 106.691 19.3568C106.088 18.2684 105.786 16.9958 105.786 15.5391C105.786 14.0824 106.079 12.8098 106.666 11.7215C107.269 10.6331 108.106 9.7959 109.177 9.20987C110.249 8.62383 111.479 8.33081 112.869 8.33081C114.226 8.33081 115.431 8.61546 116.486 9.18475C117.541 9.75405 118.361 10.5661 118.947 11.621C119.55 12.6759 119.851 13.9065 119.851 15.313ZM115.456 14.1828C115.456 13.4461 115.205 12.86 114.703 12.4247C114.201 11.9894 113.572 11.7717 112.819 11.7717C112.099 11.7717 111.488 11.981 110.986 12.3996C110.5 12.8182 110.199 13.4126 110.081 14.1828H115.456Z" fill="white"/>
<path d="M19.5658 17.7231H26.7073V20.8281H19.5658V17.7231Z" fill="white"/>
<path d="M26.9557 18.3754C26.9557 17.3542 26.5533 16.3749 25.8371 15.6529C25.1209 14.9308 24.1495 14.5251 23.1365 14.5251C22.1237 14.5251 21.1522 14.9308 20.436 15.6529C19.7197 16.3749 19.3174 17.3542 19.3174 18.3754H23.1365H26.9557Z" fill="white"/>
<path fill-rule="evenodd" clip-rule="evenodd" d="M23.1521 19.3377C25.3385 19.3377 27.1109 17.5652 27.1109 15.3788C27.1109 13.1924 25.3385 11.4199 23.1521 11.4199C20.9656 11.4199 19.1931 13.1924 19.1931 15.3788C19.1931 17.5652 20.9656 19.3377 23.1521 19.3377ZM23.1521 22.4427C27.0533 22.4427 30.2159 19.2801 30.2159 15.3788C30.2159 11.4776 27.0533 8.31494 23.1521 8.31494C19.2508 8.31494 16.0881 11.4776 16.0881 15.3788C16.0881 19.2801 19.2508 22.4427 23.1521 22.4427Z" fill="white"/>
<path d="M86.1393 7.13772C87.5481 7.13772 88.6901 6.08352 88.6901 4.7831C88.6901 3.48267 87.5481 2.42847 86.1393 2.42847C84.7305 2.42847 83.5884 3.48267 83.5884 4.7831C83.5884 6.08352 84.7305 7.13772 86.1393 7.13772Z" fill="#F55425"/>
</g>
</g>
<defs>
<clipPath id="clip0_2_1167">
<rect width="120" height="32" fill="white"/>
</clipPath>
<clipPath id="clip1_2_1167">
<rect width="120" height="27.1429" fill="white" transform="translate(0 2.42847)"/>
</clipPath>
</defs>
</svg>
