<svg width="34" height="22" viewBox="0 0 34 22" fill="none" xmlns="http://www.w3.org/2000/svg">
<path d="M0.5 4C0.5 2.067 2.067 0.5 4 0.5H30C31.933 0.5 33.5 2.067 33.5 4V18C33.5 19.933 31.933 21.5 30 21.5H4C2.067 21.5 0.5 19.933 0.5 18V4Z" fill="white" stroke="#EEEEEE"/>
<path d="M21.099 5.05579C20.4616 4.31682 19.3092 4 17.835 4H13.5563C13.255 4.00001 12.9984 4.22284 12.9512 4.5255L11.1697 16.0167C11.1343 16.2433 11.3068 16.4485 11.5326 16.4485H14.1741L14.8375 12.1691L14.8169 12.3031C14.8641 12.0007 15.1185 11.7775 15.4197 11.7775H16.6749C19.1408 11.7775 21.0716 10.7589 21.6357 7.81228C21.6524 7.72513 21.6669 7.64031 21.6794 7.55744C21.6083 7.5191 21.6083 7.5191 21.6794 7.55744C21.8474 6.46833 21.6783 5.72698 21.099 5.05579Z" fill="#27346A"/>
<path d="M15.8482 7.1651C15.9204 7.13013 15.9994 7.11201 16.0794 7.11206H19.4337C19.8309 7.11206 20.2014 7.13835 20.54 7.19377C20.6347 7.20913 20.729 7.22747 20.8226 7.24876C20.9553 7.27854 21.0864 7.31499 21.2156 7.35797C21.382 7.4145 21.537 7.48034 21.6795 7.55744C21.8474 6.46791 21.6783 5.72698 21.099 5.05579C20.4612 4.31682 19.3092 4 17.835 4H13.556C13.2547 4 12.9984 4.22306 12.9512 4.5255L11.1697 16.0163C11.1343 16.2432 11.3068 16.4481 11.5322 16.4481H14.1741L15.5504 7.57177C15.5779 7.39466 15.6892 7.24261 15.8482 7.1651Z" fill="#27346A"/>
<path d="M21.6354 7.81221C21.0713 10.7584 19.1406 11.7775 16.6746 11.7775H15.4191C15.1178 11.7775 14.8634 12.0006 14.8166 12.3031L13.9913 17.6239C13.9605 17.8222 14.1113 18.0019 14.3086 18.0019H16.5352C16.7988 18.0019 17.0231 17.8069 17.0643 17.5422L17.0859 17.4268L17.5056 14.7218L17.5327 14.5723C17.5738 14.3076 17.7981 14.1127 18.0616 14.1126H18.3949C20.5519 14.1126 22.2409 13.2214 22.7344 10.6438C22.9404 9.56669 22.8338 8.66737 22.2889 8.03569C22.1236 7.84437 21.9183 7.68635 21.6791 7.55737C21.6662 7.64066 21.6522 7.72506 21.6354 7.81221Z" fill="#2790C3"/>
<path d="M21.0893 7.31796C21.0014 7.29184 20.9126 7.26872 20.8231 7.24863C20.7295 7.22768 20.6352 7.20947 20.5405 7.194C20.2016 7.13821 19.8314 7.11188 19.4338 7.11188H16.0799C15.9998 7.11169 15.9208 7.12997 15.8487 7.16534C15.6895 7.24262 15.5781 7.39478 15.5509 7.57201L14.838 12.169L14.8174 12.303C14.8643 12.0005 15.1187 11.7774 15.4199 11.7774H16.6755C19.1414 11.7774 21.0722 10.7588 21.6362 7.81214C21.653 7.72499 21.6671 7.64054 21.68 7.5573C21.5372 7.48062 21.3826 7.41437 21.2161 7.3582C21.1741 7.34404 21.1318 7.33062 21.0894 7.31796" fill="#1F264F"/>
</svg>
