<svg width="31" height="30" viewBox="0 0 31 30" fill="none" xmlns="http://www.w3.org/2000/svg">
<g clip-path="url(#clip0_19_3043)">
<path d="M22.3 0H9.90314C8.12814 0 6.68127 1.44687 6.68127 3.225V6.80938C6.63752 6.8 6.59377 6.79688 6.55002 6.79688C6.17814 6.79688 5.87814 7.09687 5.87814 7.46875V13.2094C5.89192 13.3783 5.96859 13.536 6.093 13.6511C6.21741 13.7663 6.3805 13.8306 6.55002 13.8312C6.59377 13.8312 6.64064 13.825 6.68127 13.8188V26.775C6.68127 28.5531 8.12814 30 9.90627 30H22.3031C24.0813 30 25.5281 28.5531 25.5281 26.775V3.225C25.525 1.44687 24.0781 0 22.3 0ZM24.0344 26.775C24.0344 27.7313 23.2563 28.5094 22.3 28.5094H9.90314C8.94689 28.5094 8.16877 27.7313 8.16877 26.775V3.225C8.16877 2.26875 8.94689 1.49063 9.90314 1.49063H11.8625C11.8531 1.54688 11.8438 1.60625 11.8438 1.66875C11.8438 2.225 12.3188 2.67812 12.9031 2.67812H19.7625C20.3125 2.6375 20.7438 2.2 20.7438 1.66875C20.7438 1.60938 20.7344 1.55 20.725 1.49063H22.2969C23.2531 1.49063 24.0313 2.26875 24.0313 3.225V26.7781L24.0344 26.775ZM18.5031 9.8625C17.6469 9.8625 16.8375 10.175 16.2031 10.7469C15.5733 10.1761 14.7532 9.86075 13.9031 9.8625C12.9719 9.8625 12.0938 10.2344 11.4375 10.9062C10.1156 12.2594 10.1 14.3969 11.4 15.8781C11.8656 16.4094 12.325 16.8531 13.2188 17.6406L14.95 19.1344L15.4594 19.5719C15.675 19.7563 15.9406 19.8469 16.2063 19.8469C16.4719 19.8469 16.7344 19.7563 16.95 19.5719C17.8969 18.7719 20.1875 16.8125 21.0063 15.8781C22.3063 14.3969 22.2906 12.2594 20.9688 10.9062C20.3125 10.2344 19.4344 9.8625 18.5031 9.8625ZM20.1125 15.0938C19.3313 15.9844 16.9563 18.0094 16.2063 18.6437L15.7313 18.2344L14.0031 16.7438C13.1563 15.9969 12.725 15.5813 12.2969 15.0938C11.4125 14.0844 11.4094 12.6438 12.2938 11.7375C12.725 11.2969 13.2969 11.0531 13.9063 11.0531C14.5156 11.0531 15.0875 11.2969 15.5188 11.7375L15.7813 12.0062C15.8938 12.1219 16.0469 12.1844 16.2063 12.1844C16.3656 12.1844 16.5219 12.1187 16.6313 12.0031L16.8906 11.7344C17.3219 11.2937 17.8938 11.05 18.5031 11.05C19.1125 11.05 19.6844 11.2937 20.1156 11.7344C20.9969 12.6406 20.9969 14.0813 20.1125 15.0906V15.0938Z" fill="#1E1218" stroke="#1E1218" stroke-width="0.3125"/>
</g>
<defs>
<clipPath id="clip0_19_3043">
<rect width="30" height="30" fill="white" transform="translate(0.700012)"/>
</clipPath>
</defs>
</svg>
