<svg width="31" height="30" viewBox="0 0 31 30" fill="none" xmlns="http://www.w3.org/2000/svg">
<g clip-path="url(#clip0_19_3023)">
<path d="M8.82752 21.6312C8.75811 21.5614 8.67557 21.506 8.58467 21.4682C8.49377 21.4304 8.39628 21.4109 8.29783 21.4109C8.19937 21.4109 8.10189 21.4304 8.01099 21.4682C7.92008 21.506 7.83755 21.5614 7.76814 21.6312L6.00564 23.3937L4.24314 21.6312C3.94939 21.3375 3.47439 21.3375 3.18377 21.6312C2.89314 21.925 2.89002 22.4 3.18377 22.6906L4.94627 24.4531L3.18377 26.2156C3.11394 26.285 3.05853 26.3676 3.02072 26.4585C2.98291 26.5494 2.96344 26.6469 2.96344 26.7453C2.96344 26.8438 2.98291 26.9412 3.02072 27.0321C3.05853 27.1231 3.11394 27.2056 3.18377 27.275C3.33064 27.4219 3.52127 27.4937 3.71502 27.4937C3.90877 27.4937 4.09939 27.4219 4.24627 27.275L6.00877 25.5125L7.77127 27.275C7.91814 27.4219 8.10877 27.4937 8.30252 27.4937C8.49627 27.4937 8.68689 27.4219 8.83377 27.275C9.12752 26.9812 9.12752 26.5062 8.83377 26.2156L7.07127 24.4531L8.83377 22.6906C9.12752 22.3969 9.12752 21.9219 8.83377 21.6312H8.82752Z" fill="#1E1218" stroke="#1E1218" stroke-width="0.3125"/>
<path d="M29.54 14.2344H27.5744C27.2275 12.7656 25.9088 11.6688 24.34 11.6688C22.7713 11.6688 21.4619 12.7563 21.1088 14.2156H20.39V11.0469H28.4525C28.6116 11.0469 28.7643 10.9837 28.8768 10.8712C28.9893 10.7586 29.0525 10.606 29.0525 10.4469C29.0525 10.2878 28.9893 10.1351 28.8768 10.0226C28.7643 9.9101 28.6116 9.84689 28.4525 9.84689H20.39V2.11251C20.39 1.95338 20.3268 1.80077 20.2143 1.68825C20.1018 1.57573 19.9491 1.51251 19.79 1.51251C19.6309 1.51251 19.4783 1.57573 19.3657 1.68825C19.2532 1.80077 19.19 1.95338 19.19 2.11251V9.84689H11.1556V2.11251C11.1556 1.95338 11.0924 1.80077 10.9799 1.68825C10.8674 1.57573 10.7148 1.51251 10.5556 1.51251C10.3965 1.51251 10.2439 1.57573 10.1314 1.68825C10.0189 1.80077 9.95564 1.95338 9.95564 2.11251V9.84689H2.02439C1.86526 9.84689 1.71265 9.9101 1.60013 10.0226C1.4876 10.1351 1.42439 10.2878 1.42439 10.4469C1.42439 10.606 1.4876 10.7586 1.60013 10.8712C1.71265 10.9837 1.86526 11.0469 2.02439 11.0469H9.95251V14.1938H8.94314C8.58064 12.7438 7.27439 11.6688 5.71814 11.6688C4.16189 11.6688 2.86189 12.7375 2.49626 14.1781H0.740015V14.175C0.408765 14.1781 0.140015 14.4438 0.140015 14.775C0.140015 15.1063 0.408765 15.375 0.740015 15.375H2.41501C2.60564 17.0344 4.01501 18.325 5.71814 18.325C7.42126 18.325 8.82439 17.0406 9.02127 15.3906H9.95564V19.0813H2.02439C1.86526 19.0813 1.71265 19.1445 1.60013 19.257C1.4876 19.3695 1.42439 19.5221 1.42439 19.6813C1.42439 19.8404 1.4876 19.993 1.60013 20.1055C1.71265 20.218 1.86526 20.2813 2.02439 20.2813H9.95251V27.8844C9.95251 28.0435 10.0157 28.1961 10.1283 28.3087C10.2408 28.4212 10.3934 28.4844 10.5525 28.4844C10.7116 28.4844 10.8643 28.4212 10.9768 28.3087C11.0893 28.1961 11.1525 28.0435 11.1525 27.8844V20.2813H19.1869V27.8844C19.1869 28.0435 19.2501 28.1961 19.3626 28.3087C19.4751 28.4212 19.6278 28.4844 19.7869 28.4844C19.946 28.4844 20.0986 28.4212 20.2112 28.3087C20.3237 28.1961 20.3869 28.0435 20.3869 27.8844V20.2813H28.4494C28.6085 20.2813 28.7611 20.218 28.8737 20.1055C28.9862 19.993 29.0494 19.8404 29.0494 19.6813C29.0494 19.5221 28.9862 19.3695 28.8737 19.257C28.7611 19.1445 28.6085 19.0813 28.4494 19.0813H20.3869V15.4125H21.0369C21.2431 17.05 22.6431 18.3219 24.3369 18.3219C26.0306 18.3219 27.4213 17.0563 27.6338 15.425H29.5369V15.4281C29.696 15.4281 29.8486 15.3649 29.9612 15.2524C30.0737 15.1399 30.1369 14.9873 30.1369 14.8281C30.1369 14.669 30.0737 14.5164 29.9612 14.4039C29.8486 14.2914 29.696 14.2281 29.5369 14.2281L29.54 14.2344ZM5.71501 13.1688C6.43376 13.1688 7.05251 13.5844 7.35251 14.1875L4.08064 14.1813C4.232 13.8772 4.46513 13.6214 4.75383 13.4426C5.04254 13.2637 5.3754 13.1689 5.71501 13.1688ZM5.71501 16.825C4.84001 16.825 4.10564 16.2063 3.92751 15.3813L7.49939 15.3875C7.31814 16.2063 6.58689 16.825 5.71501 16.825ZM11.1525 11.0469H19.1869V14.2125H18.3994C18.0463 12.7531 16.7338 11.6688 15.1681 11.6688C13.6025 11.6688 12.2994 12.7469 11.94 14.1969H11.1494V11.0469H11.1525ZM13.5275 14.2C13.8244 13.5906 14.4494 13.1688 15.1713 13.1688C15.8931 13.1688 16.5213 13.5938 16.8181 14.2063L13.5275 14.2ZM16.9494 15.4063C16.7619 16.2156 16.0369 16.825 15.1681 16.825C14.2994 16.825 13.5713 16.2156 13.3869 15.4L16.9494 15.4063ZM19.1869 19.0813H11.1525V15.3938H11.8681C12.0681 17.0406 13.4713 18.3219 15.1713 18.3219C16.8713 18.3219 18.265 17.0469 18.4713 15.4063H19.19V19.0781L19.1869 19.0813ZM24.3369 13.1688C25.0681 13.1688 25.6994 13.6031 25.9931 14.225L22.6838 14.2188C22.9775 13.6 23.6056 13.1688 24.3369 13.1688ZM24.3369 16.825C23.4744 16.825 22.7525 16.225 22.5588 15.4188L26.1119 15.425C25.9181 16.225 25.1963 16.825 24.3369 16.825Z" fill="#1E1218" stroke="#1E1218" stroke-width="0.3125"/>
<path d="M12.3494 8.65313C12.4963 8.8 12.6869 8.87187 12.8806 8.87187C13.0744 8.87187 13.265 8.8 13.4119 8.65313L15.1744 6.89062L16.9369 8.65313C17.0838 8.8 17.2744 8.87187 17.4681 8.87187C17.6619 8.87187 17.8525 8.8 17.9994 8.65313C18.2931 8.35938 18.2931 7.88437 17.9994 7.59375L16.2369 5.83125L17.9994 4.06875C18.2931 3.775 18.2931 3.3 17.9994 3.00937C17.7056 2.71875 17.2306 2.71562 16.94 3.00937L15.1775 4.77188L13.415 3.00937C13.1213 2.71562 12.6463 2.71562 12.3556 3.00937C12.065 3.30313 12.0619 3.77813 12.3556 4.06875L14.1181 5.83125L12.3556 7.59375C12.2858 7.66316 12.2304 7.74569 12.1926 7.8366C12.1548 7.9275 12.1353 8.02498 12.1353 8.12344C12.1353 8.22189 12.1548 8.31938 12.1926 8.41028C12.2304 8.50118 12.2858 8.58371 12.3556 8.65313H12.3494Z" fill="#1E1218" stroke="#1E1218" stroke-width="0.3125"/>
</g>
<defs>
<clipPath id="clip0_19_3023">
<rect width="30" height="30" fill="white" transform="translate(0.140015)"/>
</clipPath>
</defs>
</svg>
