<svg width="22" height="23" viewBox="0 0 22 23" fill="none" xmlns="http://www.w3.org/2000/svg">
<g clip-path="url(#clip0_934_21204)">
<path d="M10.5614 20.295C9.3277 20.295 8.0852 19.8225 7.14895 18.8863L3.1852 14.9225C2.2227 13.96 1.7152 12.63 1.77645 11.2738L1.98645 6.89004C2.0827 4.79879 3.73645 3.14504 5.83645 3.04004L10.2114 2.83004C11.5764 2.76879 12.8977 3.27629 13.8602 4.23879L17.8239 8.20254C19.7052 10.0838 19.7052 13.155 17.8239 15.0363L13.9827 18.8775C13.0377 19.8225 11.8039 20.295 10.5614 20.295ZM4.1127 13.9863L8.07645 17.95C9.4502 19.3238 11.6814 19.3238 13.0552 17.95L16.8964 14.1088C18.2702 12.735 18.2702 10.5038 16.8964 9.13004L12.924 5.17504C12.224 4.47504 11.2702 4.10754 10.2639 4.15129L5.88895 4.36129C4.47145 4.42254 3.3602 5.53379 3.2902 6.95129L3.0802 11.335C3.03645 12.315 3.4127 13.2863 4.1127 13.9863Z" fill="white"/>
<path d="M4.1127 13.9863L8.07645 17.95C9.4502 19.3238 11.6814 19.3238 13.0552 17.95L16.8964 14.1088C18.2702 12.735 18.2702 10.5038 16.8964 9.13004L12.924 5.17504C12.224 4.47504 11.2702 4.10754 10.2639 4.15129L5.88895 4.36129C4.47145 4.42254 3.3602 5.53379 3.2902 6.95129L3.0802 11.335C3.03645 12.315 3.4127 13.2863 4.1127 13.9863Z" fill="white"/>
<path d="M8.3125 12.2187C6.74625 12.2187 5.46875 10.9412 5.46875 9.375C5.46875 7.80875 6.74625 6.53125 8.3125 6.53125C9.87875 6.53125 11.1562 7.80875 11.1562 9.375C11.1562 10.9412 9.87875 12.2187 8.3125 12.2187ZM8.3125 7.84375C7.4725 7.84375 6.78125 8.535 6.78125 9.375C6.78125 10.215 7.4725 10.9062 8.3125 10.9062C9.1525 10.9062 9.84375 10.215 9.84375 9.375C9.84375 8.535 9.1525 7.84375 8.3125 7.84375Z" fill="#F55425"/>
<path d="M11.3748 16.5938C11.2085 16.5938 11.0423 16.5325 10.911 16.4013C10.6573 16.1475 10.6573 15.7275 10.911 15.4738L14.411 11.9738C14.6648 11.72 15.0848 11.72 15.3385 11.9738C15.5923 12.2275 15.5923 12.6475 15.3385 12.9013L11.8385 16.4013C11.7073 16.5325 11.541 16.5938 11.3748 16.5938Z" fill="#F55425"/>
</g>
<defs>
<clipPath id="clip0_934_21204">
<rect width="22" height="22" fill="white" transform="translate(0 0.0625)"/>
</clipPath>
</defs>
</svg>
