<svg width="151" height="150" viewBox="0 0 151 150" fill="none" xmlns="http://www.w3.org/2000/svg">
<path fill-rule="evenodd" clip-rule="evenodd" d="M1.74582 39.5521C2.75753 18.521 19.356 1.92257 40.387 0.910863C51.1579 0.392725 63.4175 0 75.835 0C88.2525 0 100.512 0.392726 111.283 0.910864C132.314 1.92257 148.912 18.5211 149.924 39.5521C150.442 50.3229 150.835 62.5825 150.835 75C150.835 87.4175 150.442 99.6771 149.924 110.448C148.912 131.479 132.314 148.077 111.283 149.089C100.512 149.607 88.2525 150 75.835 150C63.4174 150 51.1579 149.607 40.387 149.089C19.356 148.077 2.75753 131.479 1.74582 110.448C1.22769 99.6771 0.834961 87.4175 0.834961 75C0.834961 62.5825 1.22769 50.3229 1.74582 39.5521Z" fill="#304FFD"/>
<path d="M95.712 28.8809L80.2523 112.806L91.2952 115.014C114.669 97.8981 124.699 28.8809 95.712 28.8809Z" fill="#4E1E30"/>
<path d="M95.7128 28.8799C91.8477 26.5332 71.4492 20.5734 55.959 28.8799C36.9104 39.0945 20.2542 75.6275 47.1249 112.805C47.1632 112.858 67.0018 110.596 67.0018 110.596L95.7128 28.8799Z" fill="#4E1E30"/>
<path fill-rule="evenodd" clip-rule="evenodd" d="M95.7098 149.695C89.2735 149.884 82.5775 150 75.835 150C69.091 150 62.3937 149.884 55.9561 149.695V116.354C60.3521 113.035 60.3733 107.548 60.3733 102.499V97.3457H91.2926V102.504H91.4128C91.4128 107.51 91.4262 112.949 95.7098 116.277V149.695Z" fill="#FFD7A3"/>
<path fill-rule="evenodd" clip-rule="evenodd" d="M93.5028 149.757C87.749 149.909 81.8105 150 75.8353 150C71.3771 150 66.9393 149.949 62.5834 149.861V142.002C66.6042 143.096 71.0855 143.725 75.8346 143.725C82.4093 143.725 88.4925 142.544 93.5028 140.545V149.757Z" fill="#0090FF"/>
<path d="M93.5014 126.056C94.3073 126.276 95.0329 126.393 95.7099 126.45V116.277C91.4266 112.949 91.4128 107.509 91.4128 102.504L91.4098 102.375V97.2168L66.9989 97.345L60.3733 99.5535C64.7905 104.523 78.318 121.915 93.5014 126.056Z" fill="#FDC88E"/>
<path d="M106.756 68.6341C106.756 86.3204 89.1667 108.388 75.8369 108.388C62.5071 108.388 44.9175 86.3204 44.9175 68.6341C44.9175 50.9477 58.7608 44.3398 75.8369 44.3398C92.9129 44.3398 106.756 50.9477 106.756 68.6341Z" fill="#FFE1B2"/>
<path d="M80.2522 33.2969C79.0114 33.2969 74.9825 34.6911 71.6897 35.9128L71.4182 35.5053C71.4182 35.5053 70.9637 35.8624 70.177 36.4813C68.3455 37.1768 67.0013 37.7138 67.0013 37.7138L67.5178 38.575C59.1352 45.1795 40.0098 60.2879 38.29 62.008C36.0816 64.2164 51.5413 120.563 51.5413 88.5107C51.5413 61.7321 66.4187 56.4288 80.2522 53.1739C86.5097 51.7015 88.3503 48.0206 89.0863 44.3398C89.8227 40.6589 82.461 33.2969 80.2522 33.2969Z" fill="#4E1E30"/>
<path d="M86.8767 46.5491C90.9257 61.0886 99.0237 67.6683 106.616 69.6008C110.776 70.6597 108.962 57.592 108.962 57.592C108.962 57.592 103.073 42.5001 102.337 42.1322C101.601 41.764 95.7111 28.8809 95.7111 28.8809L82.4598 39.9238L86.8767 46.5491Z" fill="#4E1E30"/>
<path fill-rule="evenodd" clip-rule="evenodd" d="M66.7088 149.934C57.4691 149.8 48.5053 149.481 40.3872 149.09C32.2069 148.697 24.6973 145.945 18.5146 141.492C19.6428 129.122 30.0437 119.432 42.7073 119.432H43.4433C52.0979 119.432 56.315 117.07 58.3835 113.709L66.7088 149.934Z" fill="#FF965D"/>
<path fill-rule="evenodd" clip-rule="evenodd" d="M133.155 141.493C126.972 145.945 119.463 148.697 111.283 149.09C103.165 149.481 94.2005 149.8 84.9603 149.934L93.2856 113.709C95.3541 117.07 99.5713 119.432 108.226 119.432H108.962C121.626 119.432 132.027 129.122 133.155 141.493Z" fill="#FF965D"/>
<path d="M103.463 68.8347C107.077 68.0063 109.445 69.7761 109.445 73.2519C109.445 77.853 104.585 89.1258 99.4761 82.086C94.3672 75.0462 103.463 68.8347 103.463 68.8347Z" fill="#FFE1B2"/>
</svg>
