<svg width="19" height="20" viewBox="0 0 19 20" fill="none" xmlns="http://www.w3.org/2000/svg">
<path d="M8.70825 16.8463C8.70825 17.5022 8.17659 18.0338 7.52075 18.0338C6.86491 18.0338 6.33325 17.5022 6.33325 16.8463C6.33325 16.1905 6.86491 15.6588 7.52075 15.6588C8.17659 15.6588 8.70825 16.1905 8.70825 16.8463Z" stroke="white" stroke-width="1.5"/>
<path d="M15.8333 16.8463C15.8333 17.5022 15.3016 18.0338 14.6458 18.0338C13.9899 18.0338 13.4583 17.5022 13.4583 16.8463C13.4583 16.1905 13.9899 15.6588 14.6458 15.6588C15.3016 15.6588 15.8333 16.1905 15.8333 16.8463Z" stroke="white" stroke-width="1.5"/>
<path d="M4.74992 3.78389H14.2499C15.9988 3.78389 17.4166 5.20166 17.4166 6.95056V10.9089C17.4166 12.6578 15.9988 14.0756 14.2499 14.0756H7.91658C6.16768 14.0756 4.74992 12.6578 4.74992 10.9089V3.78389ZM4.74992 3.78389C4.74992 2.90944 4.04104 2.20056 3.16659 2.20056H1.58325M4.74992 6.95056H17.0208" stroke="white" stroke-width="1.5" stroke-linecap="round" stroke-linejoin="round"/>
</svg>
