<svg width="16" height="14" viewBox="0 0 16 14" fill="none" xmlns="http://www.w3.org/2000/svg">
<path d="M7.1897 2H15.3147M7.1897 2C7.1897 2.33152 7.058 2.64946 6.82358 2.88388C6.58916 3.1183 6.27122 3.25 5.9397 3.25C5.60818 3.25 5.29023 3.1183 5.05581 2.88388C4.82139 2.64946 4.6897 2.33152 4.6897 2M7.1897 2C7.1897 1.66848 7.058 1.35054 6.82358 1.11612C6.58916 0.881696 6.27122 0.75 5.9397 0.75C5.60818 0.75 5.29023 0.881696 5.05581 1.11612C4.82139 1.35054 4.6897 1.66848 4.6897 2M4.6897 2H1.5647M7.1897 12H15.3147M7.1897 12C7.1897 12.3315 7.058 12.6495 6.82358 12.8839C6.58916 13.1183 6.27122 13.25 5.9397 13.25C5.60818 13.25 5.29023 13.1183 5.05581 12.8839C4.82139 12.6495 4.6897 12.3315 4.6897 12M7.1897 12C7.1897 11.6685 7.058 11.3505 6.82358 11.1161C6.58916 10.8817 6.27122 10.75 5.9397 10.75C5.60818 10.75 5.29023 10.8817 5.05581 11.1161C4.82139 11.3505 4.6897 11.6685 4.6897 12M4.6897 12H1.5647M12.1897 7H15.3147M12.1897 7C12.1897 7.33152 12.058 7.64946 11.8236 7.88388C11.5892 8.1183 11.2712 8.25 10.9397 8.25C10.6082 8.25 10.2902 8.1183 10.0558 7.88388C9.82139 7.64946 9.6897 7.33152 9.6897 7M12.1897 7C12.1897 6.66848 12.058 6.35054 11.8236 6.11612C11.5892 5.8817 11.2712 5.75 10.9397 5.75C10.6082 5.75 10.2902 5.8817 10.0558 6.11612C9.82139 6.35054 9.6897 6.66848 9.6897 7M9.6897 7H1.5647" stroke="#1E2B3B" stroke-width="1.25" stroke-linecap="round" stroke-linejoin="round"/>
</svg>
