<svg width="31" height="30" viewBox="0 0 31 30" fill="none" xmlns="http://www.w3.org/2000/svg">
<g clip-path="url(#clip0_19_3031)">
<path d="M30.3375 20.0375L28.475 10.0937C27.95 6.86562 25.2906 4.45937 21.9969 4.21874L21.9344 4.20312C21.875 4.18749 21.8156 4.18124 21.7531 4.18124H9.43126C5.94376 4.18124 2.99689 6.66874 2.42814 10.0781L0.562512 20.0406C0.490637 20.3437 0.450012 20.6812 0.450012 21.0219C0.450012 22.3094 0.953137 23.5125 1.86876 24.4156C2.78439 25.3187 4.00626 25.8062 5.28126 25.7906C6.85626 25.7906 8.36251 24.9875 9.21876 23.6937L9.70001 23.0219C9.81427 22.8616 9.86065 22.6627 9.82905 22.4684C9.79745 22.2741 9.69043 22.1002 9.53126 21.9844C9.37093 21.8703 9.17208 21.824 8.97784 21.8556C8.78361 21.8872 8.60967 21.9941 8.49376 22.1531L8.00314 22.8344C8.00314 22.8344 7.99064 22.85 7.98751 22.8594C7.40314 23.7469 6.36564 24.3 5.27189 24.3C4.38126 24.3219 3.54376 23.9781 2.91251 23.3531C2.60248 23.0487 2.3565 22.6854 2.18905 22.2845C2.0216 21.8836 1.93608 21.4532 1.93751 21.0187C1.93751 20.7906 1.96251 20.5656 2.00939 20.375C2.01251 20.3625 2.01564 20.3469 2.01876 20.3312L3.89064 10.3375C4.34064 7.63124 6.67189 5.66562 9.43126 5.66562H21.6281L21.7 5.67499C21.7438 5.68749 21.7875 5.69374 21.8344 5.69687C24.4625 5.86562 26.5938 7.77187 27.0125 10.3531L28.8813 20.3344L28.8906 20.3781C28.9375 20.5687 28.9625 20.7906 28.9625 21.0219C28.9625 22.8469 27.475 24.3344 25.65 24.3344C24.5531 24.3344 23.5281 23.7906 22.8969 22.8719L22.3906 22.1625C22.2757 22.0023 22.1019 21.8942 21.9074 21.862C21.7129 21.8298 21.5136 21.876 21.3531 21.9906C21.1929 22.1055 21.0849 22.2793 21.0526 22.4738C21.0204 22.6683 21.0667 22.8677 21.1813 23.0281L21.6813 23.725C22.5813 25.0375 24.0656 25.8219 25.6531 25.8219C28.3 25.8219 30.45 23.6687 30.45 21.025C30.45 20.6844 30.4125 20.3437 30.3375 20.0437V20.0375ZM22.7656 18.2625C22.7656 16.6125 21.4219 15.2687 19.7719 15.2687C18.1219 15.2687 16.7781 16.6125 16.7781 18.2625C16.7781 19.9125 18.1219 21.2562 19.7719 21.2562C21.4219 21.2562 22.7656 19.9125 22.7656 18.2625ZM19.7719 20.0687C18.775 20.0687 17.9656 19.2594 17.9656 18.2625C17.9656 17.2656 18.775 16.4562 19.7719 16.4562C20.7688 16.4562 21.5781 17.2656 21.5781 18.2625C21.5781 19.2594 20.7688 20.0687 19.7719 20.0687ZM11.1656 15.2719C9.51564 15.2719 8.17189 16.6156 8.17189 18.2656C8.17189 19.9156 9.51564 21.2594 11.1656 21.2594C12.8156 21.2594 14.1594 19.9156 14.1594 18.2656C14.1594 16.6156 12.8156 15.2719 11.1656 15.2719ZM11.1656 20.0687C10.1719 20.0687 9.35939 19.2594 9.35939 18.2625C9.35939 17.2656 10.1688 16.4562 11.1656 16.4562C12.1625 16.4562 12.9719 17.2656 12.9719 18.2625C12.9719 19.2594 12.1625 20.0687 11.1656 20.0687ZM9.24689 7.69687C9.08941 7.69687 8.93839 7.75942 8.82704 7.87077C8.71569 7.98212 8.65314 8.13315 8.65314 8.29062V9.94687H6.99689C6.83942 9.94687 6.68839 10.0094 6.57704 10.1208C6.46569 10.2321 6.40314 10.3831 6.40314 10.5406C6.40314 10.6981 6.46569 10.8491 6.57704 10.9605C6.68839 11.0718 6.83942 11.1344 6.99689 11.1344H8.65314V12.7906C8.65314 12.9481 8.71569 13.0991 8.82704 13.2105C8.93839 13.3218 9.08941 13.3844 9.24689 13.3844C9.40436 13.3844 9.55538 13.3218 9.66673 13.2105C9.77808 13.0991 9.84064 12.9481 9.84064 12.7906V11.1344H11.4969C11.6544 11.1344 11.8054 11.0718 11.9167 10.9605C12.0281 10.8491 12.0906 10.6981 12.0906 10.5406C12.0906 10.3831 12.0281 10.2321 11.9167 10.1208C11.8054 10.0094 11.6544 9.94687 11.4969 9.94687H9.84064V8.29062C9.84064 8.13315 9.77808 7.98212 9.66673 7.87077C9.55538 7.75942 9.40436 7.69687 9.24689 7.69687ZM20.1563 10.8125C20.1563 10.2625 19.7094 9.81562 19.1594 9.81562C18.6094 9.81562 18.1625 10.2625 18.1625 10.8125C18.1625 11.3625 18.6094 11.8094 19.1594 11.8094C19.7094 11.8094 20.1563 11.3625 20.1563 10.8125ZM23.8156 11.8094C24.3656 11.8094 24.8125 11.3625 24.8125 10.8125C24.8125 10.2625 24.3656 9.81562 23.8156 9.81562C23.2656 9.81562 22.8188 10.2625 22.8188 10.8125C22.8188 11.3625 23.2656 11.8094 23.8156 11.8094ZM21.4875 9.81249C22.0375 9.81249 22.4844 9.36562 22.4844 8.81562C22.4844 8.26562 22.0375 7.81874 21.4875 7.81874C20.9375 7.81874 20.4906 8.26562 20.4906 8.81562C20.4906 9.36562 20.9375 9.81249 21.4875 9.81249ZM21.4875 14.1375C22.0375 14.1375 22.4844 13.6906 22.4844 13.1406C22.4844 12.5906 22.0375 12.1437 21.4875 12.1437C20.9375 12.1437 20.4906 12.5906 20.4906 13.1406C20.4906 13.6906 20.9375 14.1375 21.4875 14.1375Z" fill="#1E1218" stroke="#1E1218" stroke-width="0.3125"/>
</g>
<defs>
<clipPath id="clip0_19_3031">
<rect width="30" height="30" fill="white" transform="translate(0.450012)"/>
</clipPath>
</defs>
</svg>
