<svg width="31" height="30" viewBox="0 0 31 30" fill="none" xmlns="http://www.w3.org/2000/svg">
<g clip-path="url(#clip0_19_3011)">
<path d="M29.2225 27.8625H27.5569V10.0781L28.9256 10.9313C29.2725 11.15 29.7319 11.0438 29.9475 10.6938C30.1663 10.3469 30.06 9.88751 29.71 9.67189L27.5569 8.32814V4.69376C27.5569 4.49651 27.4785 4.30733 27.3391 4.16785C27.1996 4.02837 27.0104 3.95001 26.8131 3.95001H22.4038C22.01 3.95001 21.6881 4.25939 21.6663 4.64689L15.4506 0.765637C15.21 0.615637 14.9038 0.615637 14.6631 0.765637L0.410014 9.67189C0.0631391 9.89064 -0.043111 10.3469 0.172514 10.6938C0.27724 10.8608 0.443883 10.9796 0.635979 11.0241C0.828075 11.0686 1.02998 11.0353 1.19751 10.9313L2.36939 10.2V27.8625H0.897514C0.488139 27.8625 0.153764 28.1938 0.153764 28.6063C0.153764 29.0188 0.485014 29.35 0.897514 29.35H29.2225C29.6319 29.35 29.9663 29.0188 29.9663 28.6063C29.9663 28.1938 29.635 27.8625 29.2225 27.8625ZM26.0694 27.8625H15.3475V24.4813H17.3819C18.9194 24.4813 20.3694 23.8844 21.4631 22.7969C22.585 21.6844 23.2006 20.1938 23.2006 18.6031C23.2006 16.6031 22.1569 14.7094 20.5038 13.6469C20.6256 13.1813 20.685 12.7156 20.685 12.2563C20.66 9.24689 18.2194 6.80001 15.2444 6.80001C12.4506 6.80001 10.1069 8.97814 9.84751 11.725C8.72676 12.2831 7.78418 13.1432 7.12602 14.2083C6.46787 15.2734 6.1203 16.5011 6.12251 17.7531C6.12251 21.4625 9.12251 24.4844 12.81 24.4844H14.1569V27.8656H3.85064V9.32189C3.85064 9.30626 3.84751 9.29064 3.84439 9.27501L15.06 2.27189L26.0725 9.15001V27.8625H26.0694ZM19.5256 14.45C21.0381 15.2438 22.0163 16.8719 22.0163 18.6031C22.0163 19.875 21.5225 21.0656 20.6288 21.9531C20.2022 22.3787 19.6958 22.7159 19.1386 22.9454C18.5815 23.175 17.9845 23.2923 17.3819 23.2906H12.8131C9.78189 23.2906 7.31314 20.8063 7.31314 17.75C7.31314 15.5313 8.62564 13.5313 10.6569 12.6594C10.8694 12.5688 11.01 12.3594 11.0163 12.1281C11.0725 9.84376 12.9694 7.98751 15.2475 7.98751C17.5256 7.98751 19.4819 9.90626 19.5006 12.2594C19.5006 12.7375 19.4131 13.2344 19.2413 13.7281C19.1444 14.0063 19.2663 14.3125 19.5256 14.45ZM26.0694 7.39689L22.9256 5.43439H26.0694V7.39689ZM17.8694 17.7125L15.1881 19.0688V12.8188C15.1881 12.6613 15.1256 12.5103 15.0142 12.3989C14.9029 12.2876 14.7519 12.225 14.5944 12.225C14.4369 12.225 14.2859 12.2876 14.1745 12.3989C14.0632 12.5103 14.0006 12.6613 14.0006 12.8188V16.05L11.2819 14.6313C10.9913 14.4781 10.6319 14.5906 10.4819 14.8813C10.3288 15.1719 10.4413 15.5313 10.7319 15.6813L14.0006 17.3875V21.55C14.0006 21.7075 14.0632 21.8585 14.1745 21.9699C14.2859 22.0812 14.4369 22.1438 14.5944 22.1438C14.7519 22.1438 14.9029 22.0812 15.0142 21.9699C15.1256 21.8585 15.1881 21.7075 15.1881 21.55V20.3969L18.4038 18.7688C18.4733 18.7337 18.5353 18.6852 18.5861 18.6262C18.637 18.5672 18.6757 18.4987 18.7001 18.4247C18.7244 18.3507 18.734 18.2726 18.7282 18.1949C18.7224 18.1172 18.7014 18.0414 18.6663 17.9719C18.6312 17.9023 18.5827 17.8404 18.5237 17.7895C18.4647 17.7387 18.3962 17.7 18.3222 17.6756C18.2482 17.6512 18.1701 17.6417 18.0924 17.6475C18.0147 17.6533 17.9389 17.6743 17.8694 17.7094V17.7125Z" fill="#1E1218" stroke="#1E1218" stroke-width="0.3125"/>
</g>
<defs>
<clipPath id="clip0_19_3011">
<rect width="30" height="30" fill="white" transform="translate(0.0599976)"/>
</clipPath>
</defs>
</svg>
