<svg width="21" height="21" viewBox="0 0 21 21" fill="none" xmlns="http://www.w3.org/2000/svg">
<path d="M14.875 6.125H6.125" stroke="#A3AED0" stroke-width="1.5" stroke-linecap="round" stroke-linejoin="round"/>
<path d="M14.875 9.625H6.125" stroke="#A3AED0" stroke-width="1.5" stroke-linecap="round" stroke-linejoin="round"/>
<path d="M10.5 13.125H6.125" stroke="#A3AED0" stroke-width="1.5" stroke-linecap="round" stroke-linejoin="round"/>
<path d="M16.625 1.75H4.375C3.4085 1.75 2.625 2.5335 2.625 3.5V16.7601C2.625 17.9721 3.82735 18.8172 4.96776 18.4066L6.3343 17.9146C6.76131 17.7609 7.23134 17.7791 7.6452 17.9653L9.78186 18.9268C10.2386 19.1324 10.7614 19.1324 11.2181 18.9268L13.3548 17.9653C13.7687 17.7791 14.2387 17.7609 14.6657 17.9146L16.0322 18.4066C17.1726 18.8172 18.375 17.9721 18.375 16.7601V3.5C18.375 2.5335 17.5915 1.75 16.625 1.75Z" stroke="#A3AED0" stroke-width="1.5" stroke-linecap="round"/>
</svg>
