<svg width="31" height="26" viewBox="0 0 31 26" fill="none" xmlns="http://www.w3.org/2000/svg">
<path d="M27.535 4.35313H26.2912L24.835 1.19688C24.7121 0.930458 24.5156 0.704741 24.2687 0.546375C24.0217 0.388009 23.7346 0.303607 23.4412 0.303131H15.7818C15.1787 0.303131 14.6318 0.656256 14.3881 1.19688L12.9318 4.35313H10.5912V3.19063C10.5912 2.34376 9.90372 1.65626 9.05684 1.65626H4.97872C4.13184 1.65626 3.44434 2.34376 3.44434 3.19063V4.36876C1.88497 4.53438 0.659969 5.86251 0.659969 7.46876V22.5781C0.659969 24.2969 2.05684 25.6938 3.77559 25.6938H27.5412C29.26 25.6938 30.6568 24.2969 30.6568 22.5781V7.46563C30.6475 5.75001 29.2475 4.35313 27.5318 4.35313H27.535ZM29.1725 22.5781C29.1725 23.4781 28.4412 24.2094 27.5412 24.2094H3.77559C2.87559 24.2094 2.14434 23.4781 2.14434 22.5781V7.46876C2.14434 6.56876 2.87559 5.83751 3.77559 5.83751H4.18809C4.28576 5.83751 4.38248 5.81827 4.47272 5.78089C4.56295 5.74352 4.64494 5.68873 4.714 5.61967C4.78307 5.5506 4.83785 5.46861 4.87523 5.37838C4.91261 5.28814 4.93184 5.19143 4.93184 5.09376V3.19063C4.93184 3.16563 4.95684 3.14063 4.98184 3.14063H9.05997C9.08497 3.14063 9.10997 3.16563 9.10997 3.19063V4.35313H7.65059C7.24122 4.35313 6.90684 4.68438 6.90684 5.09688C6.90684 5.50938 7.23809 5.84063 7.65059 5.84063H9.51934C9.57559 5.84063 9.63184 5.83438 9.68497 5.82188C9.73809 5.83438 9.79434 5.84063 9.85059 5.84063H22.8131C23.2225 5.84063 23.5568 5.50938 23.5568 5.09688C23.5568 4.68438 23.2256 4.35313 22.8131 4.35313H14.5693L15.7412 1.81563C15.7506 1.79688 15.7693 1.79063 15.785 1.79063H23.4443C23.4443 1.79063 23.4818 1.80626 23.4912 1.82188L25.1443 5.40938C25.204 5.53818 25.2992 5.64722 25.4188 5.72364C25.5384 5.80005 25.6774 5.84065 25.8193 5.84063H27.5381C28.4381 5.84063 29.1725 6.57501 29.1756 7.47188V22.5813L29.1725 22.5781ZM16.3412 7.92813C12.4037 7.92813 9.20059 11.1313 9.20059 15.0719C9.20059 19.0125 12.4037 22.2125 16.3412 22.2125C20.2787 22.2125 23.4818 19.0094 23.4818 15.0688C23.4756 11.1313 20.2693 7.92813 16.3412 7.92813ZM16.3412 21.025C13.0568 21.025 10.3881 18.3531 10.3881 15.0719C10.3881 11.7906 13.06 9.11876 16.3412 9.11876C19.6225 9.11876 22.2881 11.7906 22.2943 15.0719C22.2943 18.3563 19.6225 21.025 16.3412 21.025ZM16.3412 11.4094C14.3225 11.4094 12.6787 13.0531 12.6787 15.0719C12.6787 17.0906 14.3225 18.7344 16.3412 18.7344C18.36 18.7344 20.0037 17.0906 20.0037 15.0719C20.0037 13.0531 18.36 11.4094 16.3412 11.4094ZM16.3412 17.5469C14.9756 17.5469 13.8662 16.4375 13.8662 15.0719C13.8662 13.7063 14.9756 12.5969 16.3412 12.5969C17.7068 12.5969 18.8162 13.7063 18.8162 15.0719C18.8162 16.4375 17.7068 17.5469 16.3412 17.5469ZM26.31 7.26251H25.3193C24.3787 7.26251 23.6131 8.04376 23.6131 9.00313C23.6131 9.96251 24.3787 10.7438 25.3193 10.7438H26.31C27.2506 10.7438 28.0162 9.96251 28.0162 9.00313C28.0162 8.04376 27.2506 7.26251 26.31 7.26251ZM26.31 9.55626H25.3193C25.0381 9.55626 24.8006 9.30313 24.8006 9.00313C24.8006 8.70313 25.0381 8.45001 25.3193 8.45001H26.31C26.5943 8.45001 26.8287 8.69688 26.8287 9.00313C26.8287 9.30938 26.5912 9.55626 26.31 9.55626ZM5.66309 8.83751C5.50562 8.83751 5.3546 8.90006 5.24325 9.01141C5.1319 9.12276 5.06934 9.27378 5.06934 9.43126V20.6188C5.06934 20.6967 5.0847 20.7739 5.11454 20.846C5.14438 20.918 5.18812 20.9835 5.24325 21.0386C5.29838 21.0937 5.36384 21.1375 5.43588 21.1673C5.50791 21.1971 5.58512 21.2125 5.66309 21.2125C5.74107 21.2125 5.81828 21.1971 5.89031 21.1673C5.96235 21.1375 6.0278 21.0937 6.08294 21.0386C6.13807 20.9835 6.18181 20.918 6.21165 20.846C6.24149 20.7739 6.25684 20.6967 6.25684 20.6188V9.43126C6.25684 9.27378 6.19429 9.12276 6.08294 9.01141C5.97159 8.90006 5.82057 8.83751 5.66309 8.83751Z" fill="#1E1218" stroke="#1E1218" stroke-width="0.3125"/>
</svg>
