<svg width="22" height="22" viewBox="0 0 22 22" fill="none" xmlns="http://www.w3.org/2000/svg">
<g clip-path="url(#clip0_934_22017)">
<path d="M2.82553 12.7825C2.34088 11.9112 2.09855 11.4756 2.09855 11C2.09855 10.5244 2.34088 10.0888 2.82553 9.21756L4.06234 6.99419L5.36943 4.81139C5.88162 3.95605 6.13772 3.52838 6.5496 3.29058C6.96149 3.05277 7.45991 3.04482 8.45675 3.02893L11.0007 2.98835L13.5446 3.02893C14.5414 3.04482 15.0398 3.05277 15.4517 3.29058C15.8636 3.52838 16.1197 3.95605 16.6319 4.81139L17.939 6.99419L19.1758 9.21756C19.6604 10.0888 19.9027 10.5244 19.9027 11C19.9027 11.4756 19.6604 11.9112 19.1758 12.7825L17.939 15.0059L16.6319 17.1887C16.1197 18.044 15.8636 18.4717 15.4517 18.7095C15.0398 18.9473 14.5414 18.9552 13.5446 18.9711L11.0007 19.0117L8.45675 18.9711C7.45991 18.9552 6.96149 18.9473 6.5496 18.7095C6.13772 18.4717 5.88162 18.044 5.36943 17.1887L4.06234 15.0059L2.82553 12.7825Z" stroke="#A3AED0" stroke-width="1.46667"/>
<circle cx="11" cy="11" r="2.75" stroke="#A3AED0" stroke-width="1.46667"/>
</g>
<defs>
<clipPath id="clip0_934_22017">
<rect width="22" height="22" fill="white"/>
</clipPath>
</defs>
</svg>
