<svg width="31" height="30" viewBox="0 0 31 30" fill="none" xmlns="http://www.w3.org/2000/svg">
<g clip-path="url(#clip0_19_3049)">
<path d="M27.9625 0.625H2.93748C1.93435 0.625 1.1156 1.44375 1.1156 2.44687V27.5531C1.1156 28.5562 1.93435 29.375 2.93748 29.375H27.9656C28.9687 29.375 29.7875 28.5562 29.7875 27.5531V2.44687C29.7875 1.44375 28.9687 0.625 27.9656 0.625H27.9625ZM28.3625 27.5531C28.3625 27.7719 28.1844 27.9531 27.9625 27.9531H2.93748C2.71873 27.9531 2.53748 27.775 2.53748 27.5531V2.44687C2.53748 2.22812 2.7156 2.04688 2.93748 2.04688H27.9656C28.1844 2.04688 28.3656 2.225 28.3656 2.44687V27.5531H28.3625ZM19.25 13.0125C18.9344 13.0125 18.6812 13.2687 18.6812 13.5812V16.8625C18.6812 17.1781 18.9375 17.4312 19.25 17.4312C19.5625 17.4312 19.8187 17.175 19.8187 16.8625V13.5812C19.8187 13.2656 19.5625 13.0125 19.25 13.0125ZM9.28748 11.375C8.97185 11.375 8.71873 11.6313 8.71873 11.9438V18.5C8.71873 18.8156 8.97498 19.0688 9.28748 19.0688C9.59998 19.0688 9.85623 18.8125 9.85623 18.5V11.9438C9.85623 11.6281 9.59998 11.375 9.28748 11.375ZM15.9344 11.375C15.6187 11.375 15.3656 11.6313 15.3656 11.9438V18.5C15.3656 18.8156 15.6219 19.0688 15.9344 19.0688C16.2469 19.0688 16.5031 18.8125 16.5031 18.5V11.9438C16.5031 11.6281 16.2469 11.375 15.9344 11.375ZM22.5687 9.7375C22.2531 9.7375 22 9.99375 22 10.3062V20.1406C22 20.4562 22.2562 20.7094 22.5687 20.7094C22.8812 20.7094 23.1375 20.4531 23.1375 20.1406V10.3062C23.1375 9.99062 22.8812 9.7375 22.5687 9.7375ZM12.6125 8.09688C12.2968 8.09688 12.0437 8.35312 12.0437 8.66562V21.7781C12.0437 22.0938 12.3 22.3469 12.6125 22.3469C12.925 22.3469 13.1812 22.0906 13.1812 21.7781V8.66562C13.1812 8.35 12.925 8.09688 12.6125 8.09688ZM5.97185 14.1062C5.65623 14.1062 5.4031 14.3625 5.4031 14.675V15.7687C5.4031 16.0844 5.65935 16.3375 5.97185 16.3375C6.28435 16.3375 6.5406 16.0812 6.5406 15.7687V14.675C6.5406 14.3594 6.28435 14.1062 5.97185 14.1062ZM25.8875 14.1062C25.5719 14.1062 25.3187 14.3625 25.3187 14.675V15.7687C25.3187 16.0844 25.575 16.3375 25.8875 16.3375C26.2 16.3375 26.4562 16.0812 26.4562 15.7687V14.675C26.4562 14.3594 26.2 14.1062 25.8875 14.1062Z" fill="#1E1218" stroke="#1E1218" stroke-width="0.3125"/>
</g>
<defs>
<clipPath id="clip0_19_3049">
<rect width="30" height="30" fill="white" transform="translate(0.449974)"/>
</clipPath>
</defs>
</svg>
