<svg width="31" height="30" viewBox="0 0 31 30" fill="none" xmlns="http://www.w3.org/2000/svg">
<g clip-path="url(#clip0_19_3073)">
<path d="M15.0601 0C6.78818 0 0.0600586 6.72813 0.0600586 15C0.0600586 23.2719 6.78818 30 15.0601 30C23.3319 30 30.0601 23.2719 30.0601 15C30.0601 6.72813 23.3319 0 15.0601 0ZM28.1069 11.4813C25.0476 11.4469 22.3257 9.98438 20.5788 7.725C22.1944 7.11875 23.9319 6.78437 25.7601 6.75937C26.8319 8.14687 27.6382 9.74375 28.1069 11.4813ZM24.7694 5.6125C23.0538 5.73437 21.4226 6.10625 19.8944 6.70937C19.0454 5.26574 18.5896 3.62473 18.5726 1.95C20.9663 2.59375 23.0944 3.88125 24.7694 5.6125ZM17.3882 1.69062C17.3882 1.74062 17.3819 1.79062 17.3819 1.84375C17.3819 3.7875 17.8976 5.60938 18.7976 7.1875C18.0788 7.53438 17.3851 7.9375 16.7194 8.3875C13.8601 6.13125 10.4319 4.71563 6.68818 4.40625C8.99131 2.58125 11.9007 1.4875 15.0601 1.4875C15.8538 1.4875 16.6288 1.55937 17.3851 1.69062H17.3882ZM5.43506 5.52813C9.26631 5.59375 12.7913 6.89375 15.7132 9.11563C14.4632 10.1 13.3288 11.2719 12.3257 12.6094C10.9632 11.9812 9.45068 11.6313 7.85693 11.6313C5.42881 11.6313 3.34443 12.2625 1.63506 13.5031C1.97881 10.4125 3.36631 7.63438 5.43506 5.53125V5.52813ZM23.8851 25.225C21.9132 26.9281 19.4444 28.0719 16.7288 28.4062C17.9444 26.6254 18.5936 24.5187 18.5913 22.3625C18.5913 18.4688 16.5069 15.0531 13.3976 13.1719C14.3663 11.9062 15.4663 10.8094 16.6726 9.89062C20.7538 13.4406 23.4663 18.8844 23.8851 25.225ZM15.0632 28.5125C12.7538 28.5125 10.5788 27.9281 8.67568 26.9031C8.98818 21.8875 10.4257 17.5156 12.7007 14.1406C15.5101 15.8031 17.4007 18.8656 17.4007 22.3594C17.4007 24.6219 16.6069 26.7875 15.1569 28.5094H15.0601L15.0632 28.5125ZM1.54756 15.1C3.19443 13.5656 5.26318 12.8156 7.85381 12.8156C9.19443 12.8156 10.4694 13.0938 11.6288 13.5938C9.38193 16.9844 7.92568 21.2906 7.53193 26.2125C3.95068 23.8 1.58506 19.7219 1.55068 15.0969L1.54756 15.1ZM24.9851 24.1594C24.3507 18.0219 21.6507 12.7469 17.6726 9.18437C18.2444 8.81563 18.8382 8.48438 19.4507 8.19687C21.4226 10.9062 24.6132 12.6688 28.2132 12.6688C28.2663 12.6688 28.3163 12.6625 28.3694 12.6625C28.5007 13.4219 28.5757 14.2 28.5757 14.9969C28.5757 18.5281 27.2132 21.7469 24.9851 24.1594Z" fill="#1E1218" stroke="#1E1218" stroke-width="0.3125"/>
</g>
<defs>
<clipPath id="clip0_19_3073">
<rect width="30" height="30" fill="white" transform="translate(0.0600586)"/>
</clipPath>
</defs>
</svg>
