<svg width="14" height="14" viewBox="0 0 14 14" fill="none" xmlns="http://www.w3.org/2000/svg">
<g clip-path="url(#clip0_19_2657)">
<g clip-path="url(#clip1_19_2657)">
<path d="M7.00003 12.0167L3.58169 13.9008C3.17336 14.1225 2.66586 13.9592 2.45003 13.5333C2.36253 13.3583 2.33336 13.1658 2.36836 12.9792L3.02169 9.00083L0.25086 6.18333C0.0905096 6.01694 -4.87333e-05 5.79547 -0.0022184 5.5644C-0.00438806 5.33333 0.0819956 5.1102 0.239193 4.94083C0.367527 4.80667 0.53086 4.71333 0.717527 4.69L4.53836 4.10667L6.24753 0.489999C6.30994 0.341983 6.41462 0.215661 6.54847 0.126841C6.68232 0.0380206 6.83939 -0.00935364 7.00003 -0.00935364C7.16066 -0.00935364 7.31773 0.0380206 7.45158 0.126841C7.58543 0.215661 7.69011 0.341983 7.75253 0.489999L9.46169 4.10667L13.2825 4.69C13.5059 4.73134 13.7044 4.85793 13.8361 5.04299C13.9679 5.22805 14.0224 5.45709 13.9884 5.68167C13.965 5.86833 13.8775 6.04917 13.7492 6.18333L10.9784 9.00083L11.6317 12.9792C11.7134 13.4517 11.4042 13.9067 10.9492 13.9883C10.7742 14.0175 10.5817 13.9883 10.4242 13.9008L7.00003 12.0167Z" fill="#F7A301"/>
</g>
</g>
<defs>
<clipPath id="clip0_19_2657">
<rect width="14" height="14" fill="white"/>
</clipPath>
<clipPath id="clip1_19_2657">
<rect width="14" height="14" fill="white"/>
</clipPath>
</defs>
</svg>
