<svg width="22" height="22" viewBox="0 0 22 22" fill="none" xmlns="http://www.w3.org/2000/svg">
<g clip-path="url(#clip0_934_7980)">
<path d="M13.375 10.0625V9.58333C13.375 7.99551 14.6622 6.70833 16.25 6.70833M16.25 6.70833C17.8378 6.70833 19.125 7.99551 19.125 9.58333V10.0625M16.25 6.70833C17.3085 6.70833 18.1667 5.85021 18.1667 4.79167C18.1667 3.73312 17.3085 2.875 16.25 2.875C15.1915 2.875 14.3333 3.73312 14.3333 4.79167C14.3333 5.85021 15.1915 6.70833 16.25 6.70833ZM19.125 16.631V18.2083C19.125 19.2669 18.2669 20.125 17.2083 20.125C8.73997 20.125 1.875 13.26 1.875 4.79167C1.875 3.73312 2.73312 2.875 3.79167 2.875H5.36902C6.15275 2.875 6.85753 3.35216 7.1486 4.07984L7.92835 6.02922C8.29857 6.95476 7.89753 8.00957 7.00593 8.45537L6.66667 8.625C6.66667 8.625 7.14583 11.0208 9.0625 12.9375C10.9792 14.8542 13.375 15.3333 13.375 15.3333L13.5446 14.9941C13.9904 14.1025 15.0452 13.7014 15.9708 14.0716L17.9202 14.8514C18.6478 15.1425 19.125 15.8472 19.125 16.631Z" stroke="#A3AED0" stroke-width="1.5" stroke-linecap="round" stroke-linejoin="round"/>
</g>
<defs>
<clipPath id="clip0_934_7980">
<rect width="22" height="22" fill="white"/>
</clipPath>
</defs>
</svg>
