<svg width="21" height="21" viewBox="0 0 21 21" fill="none" xmlns="http://www.w3.org/2000/svg">
<path d="M10.5614 19.2325C9.3277 19.2325 8.0852 18.76 7.14895 17.8238L3.1852 13.86C2.2227 12.8975 1.7152 11.5675 1.77645 10.2113L1.98645 5.82754C2.0827 3.73629 3.73645 2.08254 5.83645 1.97754L10.2114 1.76754C11.5764 1.70629 12.8977 2.21379 13.8602 3.17629L17.8239 7.14004C19.7052 9.02129 19.7052 12.0925 17.8239 13.9738L13.9827 17.815C13.0377 18.76 11.8039 19.2325 10.5614 19.2325ZM4.1127 12.9238L8.07645 16.8875C9.4502 18.2613 11.6814 18.2613 13.0552 16.8875L16.8964 13.0463C18.2702 11.6725 18.2702 9.44129 16.8964 8.06754L12.924 4.11254C12.224 3.41254 11.2702 3.04504 10.2639 3.08879L5.88895 3.29879C4.47145 3.36004 3.3602 4.47129 3.2902 5.88879L3.0802 10.2725C3.03645 11.2525 3.4127 12.2238 4.1127 12.9238Z" fill="#A3AED0"/>
<path d="M8.3125 11.1562C6.74625 11.1562 5.46875 9.87875 5.46875 8.3125C5.46875 6.74625 6.74625 5.46875 8.3125 5.46875C9.87875 5.46875 11.1562 6.74625 11.1562 8.3125C11.1562 9.87875 9.87875 11.1562 8.3125 11.1562ZM8.3125 6.78125C7.4725 6.78125 6.78125 7.4725 6.78125 8.3125C6.78125 9.1525 7.4725 9.84375 8.3125 9.84375C9.1525 9.84375 9.84375 9.1525 9.84375 8.3125C9.84375 7.4725 9.1525 6.78125 8.3125 6.78125Z" fill="#A3AED0"/>
<path d="M11.3748 15.5313C11.2085 15.5313 11.0423 15.47 10.911 15.3388C10.6573 15.085 10.6573 14.665 10.911 14.4113L14.411 10.9113C14.6648 10.6575 15.0848 10.6575 15.3385 10.9113C15.5923 11.165 15.5923 11.585 15.3385 11.8388L11.8385 15.3388C11.7073 15.47 11.541 15.5313 11.3748 15.5313Z" fill="#A3AED0"/>
</svg>
